<?xml version="1.0" encoding="UTF-8" standalone="no"?>
<!-- Created with Inkscape (http://www.inkscape.org/) -->

<svg
   version="1.1"
   id="svg1"
   width="397.00778"
   height="334"
   viewBox="0 0 397.00778 334"
   xmlns="http://www.w3.org/2000/svg"
   xmlns:svg="http://www.w3.org/2000/svg">
  <defs
     id="defs1" />
  <g
     id="g1"
     transform="translate(-3.1189239,-13)">
    <path
       d="M 19.353578,319.75 C 114.0567,160.79004 202.53898,13 203.00559,13 c 1.3157,0 196.51617,328.39023 196.80777,331.0942 L 400.12672,347 H 201.62282 3.1189238 Z m 78.20644,13.81402 c 3.816992,-1.88979 7.562702,-4.47729 8.323812,-5.75 2.04074,-3.41251 15.45211,-21.19605 16.61617,-22.03312 0.55,-0.39551 4.94255,-1.93049 9.76123,-3.41107 4.81868,-1.48058 9.1919,-3.21089 9.71827,-3.84513 0.52637,-0.63424 1.61178,-3.82426 2.41203,-7.08893 2.85009,-11.62727 6.57664,-25.54417 9.0181,-33.67833 4.12215,-13.7337 12.60367,-48.92691 12.01922,-49.87256 C 165.12807,207.3982 162.02124,207 158.5248,207 h -6.35716 l -1.25567,-2.83674 -1.25566,-2.83674 -5.94823,0.0867 -5.94823,0.0867 -0.75788,-1.5 c -0.41684,-0.825 -1.25259,-3.0787 -1.85723,-5.00823 l -1.09935,-3.50823 1.9256,-12.49177 c 1.05907,-6.87047 2.66689,-15.41677 3.57294,-18.99177 3.69347,-14.57349 8.68422,-31.51674 10.26958,-34.86459 l 1.68649,-3.56138 5.75424,-1.74782 c 3.16483,-0.9613 8.5527,-1.87796 11.97303,-2.03701 l 6.2188,-0.2892 1.33842,4 c 0.73613,2.2 1.60223,7.70719 1.92466,12.2382 l 0.58625,8.2382 4.1023,-0.61606 c 2.25626,-0.33883 4.41341,-0.89602 4.79365,-1.2382 0.38024,-0.34218 1.00058,-5.34714 1.37853,-11.12214 l 0.68719,-10.5 1.52645,-1.75 1.52646,-1.75 H 203 h 9.69002 l 1.52646,1.75 1.52645,1.75 0.68719,10.5 c 0.37795,5.775 0.99829,10.77996 1.37853,11.12214 0.38024,0.34218 2.53739,0.89937 4.79365,1.2382 l 4.1023,0.61606 0.58625,-8.2382 c 0.32243,-4.53101 1.18853,-10.0382 1.92466,-12.2382 l 1.33842,-4 6.2188,0.2892 c 3.42033,0.15905 8.8082,1.07571 11.97303,2.03701 l 5.75424,1.74782 1.68649,3.56138 c 1.58536,3.34785 6.57611,20.2911 10.26958,34.86459 0.90605,3.575 2.50868,12.08752 3.56142,18.91672 l 1.91407,12.41672 -1.58439,4.844 -1.58439,4.84399 -2.4286,0.60955 c -1.33574,0.33524 -4.10258,0.34186 -6.14853,0.0147 l -3.71993,-0.59484 -1.31668,2.97458 L 253.83236,207 h -6.35716 c -3.49644,0 -6.60327,0.3982 -6.90405,0.88488 -0.58445,0.94565 7.89707,36.13886 12.01922,49.87256 2.44146,8.13416 6.16801,22.05106 9.0181,33.67833 0.80025,3.26467 1.88566,6.45469 2.41203,7.08893 0.52637,0.63424 4.89959,2.36455 9.71827,3.84513 4.81868,1.48058 9.21123,3.01556 9.76123,3.41107 1.17145,0.84239 14.59199,18.64458 16.61617,22.04116 0.76111,1.27714 4.54125,3.87059 8.40032,5.76323 l 7.01649,3.44116 34.61803,-0.26323 L 384.76905,336.5 294.34415,185 C 244.61046,101.675 203.58235,33.38164 203.17056,33.236977 202.65121,33.054527 52.898808,282.6032 21.70031,335.64053 L 20.90062,337 H 55.760328 90.620037 Z M 292.29969,332.6193 C 291.85986,331.85991 288.575,327.41355 285,322.7385 l -6.5,-8.50009 -5.5,-1.73815 c -3.025,-0.95598 -7.82484,-2.60286 -10.66631,-3.65974 l -5.1663,-1.92159 -1.07172,-3.07433 c -0.58944,-1.69089 -0.84477,-3.44155 -0.56738,-3.89037 0.27738,-0.44882 0.10324,-1.06392 -0.38698,-1.36689 -0.49022,-0.30298 -0.90282,-1.57157 -0.91689,-2.8191 -0.026,-2.30459 -5.71508,-23.33654 -9.26949,-34.26824 -1.07298,-3.3 -3.28304,-11.625 -4.91124,-18.5 -1.6282,-6.875 -4.32567,-17.45 -5.99437,-23.5 -3.30343,-11.9768 -3.62842,-15.13491 -1.93905,-18.84268 1.41299,-3.10117 4.24566,-4.372 11.59972,-5.20402 l 5.87476,-0.66465 1.71618,-2.99026 1.71617,-2.99026 4.88913,0.34593 4.88912,0.34594 -0.50307,-3.5 c -0.27668,-1.925 -2.06657,-10.025 -3.97752,-18 -1.91095,-7.975 -3.62909,-15.175 -3.8181,-16 -0.189,-0.825 -0.40844,-1.5 -0.48764,-1.5 -0.0792,0 -0.32993,-1.41766 -0.55718,-3.15036 -0.22725,-1.7327 -1.20938,-5.28829 -2.18251,-7.90132 l -1.76933,-4.75096 -3.5,-1.196 c -1.925,-0.6578 -5.35062,-1.43859 -7.61248,-1.73508 l -4.11248,-0.53908 -1.29124,11.92239 c -0.71018,6.55731 -1.69935,12.17461 -2.19814,12.48288 -0.77219,0.47724 -4.64591,-0.0455 -16.40274,-2.21346 l -2.11708,-0.39039 -1.01574,-5.76431 c -1.00037,-5.6771 -1.47333,-10.10591 -1.65681,-15.51431 L 209.5,129 h -6.5685 -6.56849 l -1.07428,11.55944 c -0.59086,6.3577 -1.34693,11.83209 -1.68016,12.16533 -0.68647,0.68647 -11.58763,2.49506 -16.05631,2.66387 L 174.60452,155.5 173.84786,152 c -0.41616,-1.925 -1.0629,-7.38654 -1.43719,-12.13675 l -0.68053,-8.63674 -4.11507,0.53942 c -2.26329,0.29668 -5.69007,1.07272 -7.61507,1.72454 l -3.5,1.18511 -2.16211,6.41221 c -3.86502,11.46253 -8.09558,28.22038 -9.31859,36.91221 -0.65781,4.675 -1.37621,9.175 -1.59644,10 l -0.40043,1.5 4.98024,-0.34594 4.98023,-0.34593 1.71617,2.99026 1.71618,2.99026 5.87476,0.66465 c 13.65698,1.54511 15.18365,5.75772 9.25827,25.5467 -1.39983,4.675 -3.87646,14.25718 -5.50362,21.29374 -1.62716,7.03655 -4.31523,17.16155 -5.97349,22.5 -1.65826,5.33844 -4.40706,14.88126 -6.10844,21.20626 -1.70138,6.325 -3.72447,13.76923 -4.49576,16.54274 l -1.40234,5.04274 -10.28231,3.33518 -10.28232,3.33517 -6.5,8.49138 c -3.575,4.67026 -6.85986,9.1127 -7.29969,9.87209 L 112.90062,334 H 203 293.09938 Z"
       id="path1" />
  </g>
</svg>
