<?xml version="1.0" encoding="UTF-8" standalone="no"?>
<!-- Created with Inkscape (http://www.inkscape.org/) -->

<svg
   version="1.1"
   id="svg1"
   width="600"
   height="850"
   viewBox="0 0 600 850"
   xmlns="http://www.w3.org/2000/svg"
   xmlns:svg="http://www.w3.org/2000/svg">
  <defs
     id="defs1" />
  <g
     id="g1">
    <path
       d="M 48.745923,829.91927 C 38.364624,827.45892 28.123196,818.8383 23.299507,808.5 L 20.5,802.5 v -377 -377 l 2.821301,-6.104575 C 26.890163,34.673317 34.624984,26.971463 42.5,23.298467 L 48.5,20.5 h 252 252 l 6,2.798467 c 7.87502,3.672996 15.60984,11.37485 19.1787,19.096958 L 580.5,48.5 v 377 377 l -2.8213,6.10458 c -3.56886,7.7221 -11.30368,15.42396 -19.1787,19.09695 l -6,2.79847 -250,0.15449 C 159.36151,830.74294 50.895335,830.42868 48.745923,829.91927 Z M 545.5,425.5 v -370 h -245 -245 l -0.255867,369 c -0.140727,202.95 -0.042,369.56341 0.219388,370.25201 0.379185,0.99893 49.955819,1.20107 245.255869,1 L 545.5,795.5 Z M 80.897883,701.73007 c -3.917998,-2.6174 -6.894775,-7.89765 -6.894775,-12.23007 0,-4.33242 2.976777,-9.61267 6.894775,-12.23007 L 84.295766,675 H 234 383.70423 l 3.39789,2.26993 c 8.93009,5.96569 8.93009,18.49445 0,24.46014 L 383.70423,704 H 234 84.295766 Z m 0,-75 c -3.917998,-2.6174 -6.894775,-7.89765 -6.894775,-12.23007 0,-4.33242 2.976777,-9.61267 6.894775,-12.23007 L 84.295766,600 H 301 517.70423 l 3.39789,2.26993 c 8.93009,5.96569 8.93009,18.49445 0,24.46014 L 517.70423,629 H 301 84.295766 Z m 0,-75 c -3.917998,-2.6174 -6.894775,-7.89765 -6.894775,-12.23007 0,-4.33242 2.976777,-9.61267 6.894775,-12.23007 L 84.295766,525 H 301 517.70423 l 3.39789,2.26993 c 8.93009,5.96569 8.93009,18.49445 0,24.46014 L 517.70423,554 H 301 84.295766 Z m 0,-75 c -3.917998,-2.6174 -6.894775,-7.89765 -6.894775,-12.23007 0,-4.33242 2.976777,-9.61267 6.894775,-12.23007 L 84.295766,450 H 301 517.70423 l 3.39789,2.26993 c 8.93009,5.96569 8.93009,18.49445 0,24.46014 L 517.70423,479 H 301 84.295766 Z m 0,-75 c -3.917998,-2.6174 -6.894775,-7.89765 -6.894775,-12.23007 0,-4.33242 2.976777,-9.61267 6.894775,-12.23007 L 84.295766,375 H 301 517.70423 l 3.39789,2.26993 c 8.93009,5.96569 8.93009,18.49445 0,24.46014 L 517.70423,404 H 301 84.295766 Z M 76.453689,321.25 C 79.115347,287.50898 92.732812,257.22215 115.47286,234.46678 123.38728,226.54704 142.90388,212 145.61476,212 c 0.50852,0 3.61574,2.02072 6.90491,4.4905 7.82353,5.87451 17.84196,10.75634 28.98033,14.12168 7.91729,2.39212 10.62406,2.7152 22.5,2.68557 10.57704,-0.0264 15.22044,-0.4973 21.44602,-2.17494 9.99046,-2.69218 22.24852,-8.58759 30.5264,-14.68142 l 6.38812,-4.70267 4.38556,2.38064 c 19.32524,10.49041 41.10373,34.15893 51.67901,56.16392 C 326.12133,286.29755 332,309.9402 332,324.87834 V 330 H 203.88172 75.763446 Z M 194.5,217.28545 c -6.78346,-0.93811 -15.4075,-3.6666 -22,-6.96039 -32.41036,-16.1931 -47.0949,-52.93372 -35.02657,-87.63622 3.54697,-10.19929 8.11428,-17.23192 17.02657,-26.217061 13.33469,-13.443684 30.27312,-20.437052 49.5,-20.437052 11.86109,0 20.93654,2.152759 32,7.590619 7.88501,3.875602 10.96244,6.131832 18.10263,13.272024 7.13921,7.13921 9.39712,10.2187 13.27297,18.10263 6.10682,12.42194 7.96295,21.31985 7.30111,35 -1.13326,23.42456 -12.14939,43.14538 -31.23004,55.90729 -14.23949,9.52396 -32.18669,13.69597 -48.94667,11.37816 z m 178.74086,-63.24128 c -9.41501,-5.8524 -9.62305,-19.53328 -0.3844,-25.27841 L 376.5,126.5 l 62.05942,-0.27877 c 20.94432,0.64477 58.47175,-1.23395 61.91354,0.19578 12.78943,5.31277 12.4659,21.16723 2.42251,27.08299 -3.28112,1.93265 -5.46657,2.0096 -64.89547,2.28503 -60.27862,0.27938 -61.56473,0.24481 -64.75914,-1.74086 z M 373,108.80083 c -9.53716,-6.37817 -8.97014,-19.366646 1.10453,-25.30083 3.23173,-1.903555 5.51648,-2.511544 47.39547,-2.329527 14.58783,0.0634 40.74822,-0.551609 44.5319,0.968731 9.11381,3.662071 11.9387,20.426346 1.86357,26.360796 -3.2324,1.90395 -5.50856,2.0154 -47.39547,2.32076 l -44,0.32077 z m 113.89788,-1.07076 c -3.91799,-2.6174 -6.89477,-7.897653 -6.89477,-12.23007 0,-4.332417 2.97678,-9.612674 6.89477,-12.230067 C 489.43889,81.572433 491.73426,81 496,81 c 6.80291,0 11.56608,2.68102 14.24845,8.019933 3.36533,6.698274 1.23372,14.447977 -5.14633,18.710137 -4.74458,3.16958 -13.45966,3.16958 -18.20424,0 z"
       id="path1" />
  </g>
</svg>
