<?xml version="1.0" encoding="UTF-8" standalone="no"?>
<!-- Created with Inkscape (http://www.inkscape.org/) -->

<svg
   version="1.1"
   id="svg1"
   width="800"
   height="800"
   viewBox="0 0 800 800"
   xmlns="http://www.w3.org/2000/svg"
   xmlns:svg="http://www.w3.org/2000/svg">
  <defs
     id="defs1" />
  <g
     id="g1">
    <path
       d="M 25.5,685.61125 C 16.283549,682.70703 7.6894303,674.83288 3.1351653,665.12001 L 0.5,659.5 V 444 228.5 l 2.6800561,-5.71807 c 3.5520116,-7.57843 10.4355029,-14.76612 17.5423849,-18.31761 5.165952,-2.58156 7.015658,-2.92873 17.473284,-3.27948 l 11.695726,-0.39229 0.304274,-21.32593 c 0.281975,-19.76299 0.456706,-21.53262 2.384163,-24.14627 1.51515,-2.05456 6.301189,-4.63878 17.626621,-9.51748 38.288931,-16.49388 78.776681,-26.91029 121.813231,-31.33927 20.18176,-2.07694 69.48571,-1.56279 87.75547,0.91514 38.64943,5.24203 70.73601,13.58653 102.78588,26.7307 8.2164,3.36968 16.06391,6.12669 17.43891,6.12669 1.375,0 9.22251,-2.75701 17.43891,-6.12669 32.04987,-13.14417 64.13645,-21.48867 102.78588,-26.7307 18.26976,-2.47793 67.57371,-2.99208 87.75547,-0.91514 43.03655,4.42898 83.5243,14.84539 121.81323,31.33927 11.32543,4.8787 16.11147,7.46292 17.62662,9.51748 1.92746,2.61365 2.10219,4.38328 2.38416,24.14627 l 0.30428,21.32593 11.69572,0.39229 c 10.45763,0.35075 12.30734,0.69792 17.47329,3.27948 7.10688,3.55149 13.99037,10.73918 17.54238,18.31761 L 799.5,228.5 V 444 659.5 l -2.68006,5.71807 c -3.54011,7.55305 -10.408,14.73952 -17.53935,18.35294 L 773.5,686.5 l -372,0.18585 c -296.87631,0.14832 -372.807782,-0.0687 -376,-1.0746 z M 769.69567,662.044 c 1.75761,-1.07168 4.00761,-3.18771 5,-4.70228 C 776.42035,654.70952 776.5,645.29162 776.5,444 c 0,-201.29162 -0.0797,-210.70952 -1.80433,-213.34172 -3.29488,-5.02862 -7.30287,-6.6504 -16.44567,-6.65454 L 750,224 v 201.59887 c 0,184.51776 -0.13852,201.89078 -1.63484,205.04405 -0.89917,1.89485 -2.90182,4.10036 -4.45035,4.90113 -4.26,2.20293 -683.569621,2.20293 -687.829625,0 -1.548522,-0.80077 -3.551175,-3.00628 -4.45034,-4.90113 C 50.138517,627.48965 50,610.11663 50,425.59887 V 224 l -8.25,0.004 c -9.142804,0.004 -13.15079,1.62592 -16.445666,6.65454 C 23.579652,233.29048 23.5,242.70838 23.5,444 c 0,201.29162 0.07965,210.70952 1.804334,213.34172 0.992384,1.51457 3.242384,3.6306 5,4.70228 3.152177,1.92201 8.183283,1.94852 369.695666,1.94852 361.51238,0 366.54349,-0.0265 369.69567,-1.94852 z M 369.95321,613.03362 c -2.8964,-1.69568 -28.41095,-9.85433 -41.95321,-13.41515 -33.17226,-8.72237 -59.64437,-12.00366 -97,-12.02344 -40.0401,-0.0212 -70.0943,4.13263 -107,14.78861 -14.13806,4.08216 -31.799007,10.08203 -32.890833,11.17386 -0.243375,0.24337 62.745003,0.42882 139.974163,0.41209 84.3362,-0.0183 139.7989,-0.39208 138.86988,-0.93597 z m 338.93762,0.52388 C 707.79901,612.46567 690.13806,606.4658 676,602.38364 639.0943,591.72766 609.0401,587.57383 569,587.59503 c -37.35563,0.0198 -63.82774,3.30107 -97,12.02344 -13.54226,3.56082 -39.05681,11.71947 -41.95321,13.41515 -0.92902,0.54389 54.53368,0.91771 138.86988,0.93597 77.22916,0.0167 140.21754,-0.16872 139.97416,-0.41209 z M 96.561237,586.48225 c 29.704213,-10.59483 64.575413,-18.15618 98.862443,-21.437 16.30627,-1.56029 57.92932,-1.30124 74.71951,0.46505 40.48824,4.25926 76.76153,13.07488 112.60681,27.36722 l 5.25,2.0933 V 382.22155 169.47227 l -6,-2.65183 -6,-2.65184 v 96.96536 c 0,103.21538 0.1561,99.72111 -4.64762,104.03379 -1.01881,0.91466 -3.48521,1.96592 -5.4809,2.33614 -4.57255,0.84824 -6.23754,-8e-4 -25.12148,-12.81031 L 326,344.68823 311.25,354.69358 c -8.1125,5.50294 -16.26717,10.78791 -18.12148,11.74438 -5.55461,2.86511 -12.20609,0.74695 -15.47114,-4.92677 C 276.80847,360.03603 276.36674,330.04926 276,249 l -0.5,-110.5 -6,-0.69148 c -3.3,-0.38031 -16.575,-0.99165 -29.5,-1.35853 -51.83306,-1.47129 -101.99579,7.42854 -150.75,26.74596 L 74,169.23831 v 212.86625 212.86626 l 5.25,-2.0933 c 2.8875,-1.15131 10.677557,-4.02918 17.311237,-6.39527 z M 434.5,586.51258 c 29.42418,-10.47415 60.64654,-17.35085 95.35681,-21.00228 16.79019,-1.76629 58.41324,-2.02534 74.71951,-0.46505 40.3612,3.86204 79.6827,13.28247 116.17368,27.83227 l 5.25,2.0933 V 382.10456 169.23831 l -15.25,-6.04236 C 676.06901,149.45463 639.2901,140.79711 601,137.3615 c -20.8742,-1.87296 -55.22693,-1.36901 -76,1.11491 -34.81377,4.16282 -76.53061,15.20964 -106.75,28.26791 l -6.25,2.70073 v 212.76288 212.76289 l 5.25,-2.0933 c 2.8875,-1.15131 10.65,-4.01554 17.25,-6.36494 z M 326,319.52613 c 3.93283,0 5.8549,0.91495 15.25,7.2593 l 10.75,7.2593 V 244.6844 155.32406 l -14.75,-4.1798 c -8.1125,-2.29889 -19.8125,-5.24875 -26,-6.55524 L 300,142.21359 v 95.91557 95.91557 l 10.75,-7.2593 c 9.3951,-6.34435 11.31717,-7.2593 15.25,-7.2593 z"
       id="path1" />
  </g>
</svg>
