<svg
   version="1.1"
   id="svg1"
   width="2952"
   height="3680"
   viewBox="0 0 2952 3680"
   xmlns="http://www.w3.org/2000/svg"
   xmlns:svg="http://www.w3.org/2000/svg">
   <path
      d="M 1557.0087,3679.9831 1557,3677 v -11.376 -11.376 l -8.0261,-4.874 -8.0262,-4.874 0.2762,-9.8935 0.2761,-9.8936 8.2469,-4.6064 8.2469,-4.6065 v -11.1049 -11.1049 l -7.5269,-4.6451 -9.4669,-6.0814 v -9.4186 -10.8549 l -7.5269,-4.6451 -9.4731,-6.435 v -8.5861 -10.376 l -8.0247,-4.874 -8.0247,-4.874 0.2747,-10.9773 0.2747,-10.9773 7.25,-4.0172 7.25,-4.0173 v -11.1103 -11.1104 l -7.5269,-4.6451 -9.4731,-6.0372 v -8.9628 -10.3549 l -7.5269,-4.6451 -9.4731,-6.1685 v -8.8526 -10.376 l -8,-4.8718 -8,-4.8717 v -10.5788 -10.5787 l 8,-4.409 8,-4.409 v -11.1405 -11.1405 l -8,-4.8718 -8,-4.8717 v -10.6283 -10.6282 l -8,-4.8718 -8,-4.8717 v -10.1283 -10.1282 l -8,-4.8718 -8,-4.8717 v -10.5788 -10.5787 l 8,-4.409 8,-4.409 v -11.1405 -11.1405 l -8,-4.8718 -8,-4.8717 v -10.1072 -10.1071 l -7.5269,-4.6451 -9.4731,-6.4792 v -9.0419 -10.876 l -8,-4.8718 -8,-4.8717 v -10.5788 -10.5787 l 8,-4.409 8,-4.409 v -11.1209 -11.1208 l -7.25,-4.4675 -7.25,-4.4675 -0.2828,-10.5721 -0.2828,-10.5722 -7.9672,-4.8517 -7.9672,-4.8518 v -10.6283 -10.6282 l -8,-4.8718 -8,-4.8717 v -10.0788 -10.0787 l 8,-4.409 8,-4.409 v -11.1405 -11.1405 l -8,-4.8718 -8,-4.8717 v -10.1283 -10.1282 l -8,-4.8718 -8,-4.8717 v -10.1283 -10.1282 l -8.0254,-4.874 -8.0254,-4.874 0.2754,-10.3934 0.2754,-10.3934 8.2469,-4.6066 8.2469,-4.6066 v -11.0765 -11.0765 l 8,-4.409 8,-4.409 0.013,-10.5145 0.013,-10.5145 9.0842,-5.2676 9.0841,-5.2677 5.6526,3.1948 5.6525,3.1947 3.3638,2.2425 3.3638,2.2425 6.6362,-4.0136 6.6362,-4.0136 3,-2.0009 3,-2.0009 -0.3115,-10.2613 -0.3115,-10.2613 8.8115,-4.8938 8.8115,-4.8938 0.1185,-11.7229 0.1184,-11.723 -8.6184,-5.1831 -8.6185,-5.1831 -1,0.012 -1,0.012 -8.32,5.0317 -8.32,5.0317 -8.421,-5.1373 -8.421,-5.1373 -0.01,-9.1442 -0.01,-9.1443 9.3476,-5.4441 9.3475,-5.444 7.4025,4.3354 7.4024,4.3354 1,-0.2471 1,-0.2471 8.7434,-5 8.7434,-5 0.01,-11.0295 0.01,-11.0294 -8.5,-4.9119 -8.5,-4.9118 v -10.6959 -10.1802 c -16.2452,-8.949 -0.3706,-0.1511 -16.5625,-9.098 -0.013,-7.1918 0.3202,-12.0085 0.2897,-19.2002 16.057,-9.3353 0.1821,-0.1484 16.2103,-9.1932 15.215,9.7353 -0.189,0.249 15.2637,9.9376 l 1.7279,-1.1875 7.4121,-4.5 7.4121,-4.5 1.3733,-0.8176 1.3734,0.8176 8.3449,5.019 8.3449,5.0189 8.8856,-5.0849 8.8857,-5.0848 1.1976,-0.8671 0.1706,-12.2107 0.1707,-11.1401 -8.5,-5.159 -8.5,-5.159 v -10.5976 -10.5976 l -8.5656,-5.0705 -8.5656,-5.0704 -1.4553,-0.9035 -1.4553,0.9035 -7.6874,4.5 -7.6873,4.5 -0.6797,0.435 -0.6796,-0.435 -7.8036,-4.6081 -8.5399,-4.6081 c 0.7065,-19.7357 0.059,-0.051 0.7287,-19.6961 l 8.9118,-5.0999 8.9119,-5.0998 8.181,4.9433 8.1811,4.9433 c 18.0142,-9.9082 14.8872,-8.3647 18.1568,-10.0586 18.2828,9.5732 0.1499,-0.1304 18.6445,9.7778 -0.1515,22.8434 -0.039,0.2417 -0.3864,22.7547 14.4588,9.2629 -0.2697,0.5159 14.5834,9.3993 -0.016,22.2989 0.041,-0.033 -0.01,22.0892 l 7.879,5.7041 9.0493,5.7041 20.8484,-9.9744 -0.2814,-12.274 -0.2815,-12.274 -6.5,-4.3127 -6.5,-4.3127 -1.6907,-1.1767 -1.6906,-1.1767 c 0.052,-7.512 0.043,-7.4946 -4e-4,-11.2313 l -0.1184,-10.0874 c -17.997,-9.8429 0.01,0.1478 -18.0144,-9.7901 -0.085,-20.3537 0,0.1386 0.015,-20.447 -6.1487,-3.6149 -6.0513,-3.4457 -17.9609,-11.3628 l -8.658,5.1745 -8.658,5.1745 -0.6348,-0.2872 -0.6348,-0.2872 -7.7267,-4.449 -7.7268,-4.4489 0.01,-9.5511 0.01,-9.551 8.3778,-4.75 8.3778,-4.75 0.6332,-0.435 0.6331,0.435 8.1073,5.0283 8.1072,5.0283 9.0797,-5.2783 8.31,-5.2783 c 0.1277,-21.8393 -0.064,-0.1106 0.2017,-21.9517 17.218,-9.54 0.2342,-0.1115 17.1257,-9.786 l 8.4361,4.7751 7.6998,4.6747 -0.1699,11.4818 -0.1699,11.4817 9.1685,5.4965 9.1685,5.4965 8.9422,-5.0843 8.9422,-5.0843 0.7579,0.011 0.7579,0.011 7.5,4.4774 7.5,4.4774 1.4017,0.011 1.4018,0.011 7.8016,-4.5 7.8017,-4.5 h 1.1577 1.1577 l 8.2543,4.9858 8.2542,4.9858 8.8444,-4.9579 8.8443,-4.958 4.5403,2.6444 4.5403,2.6443 3.2376,2.0778 3.2376,2.0778 0.016,10.5 0.016,10.5 8.7291,4.997 8.7291,4.9969 2.1689,1.0362 2.169,-1.3062 8.2279,-4.862 8.2279,-4.8619 -0.011,-11 -0.011,-11 -8.3686,-5.0697 -8.3685,-5.0696 -0.2849,-9.5727 -0.2849,-9.5727 8.2684,-4.7692 8.2683,-4.7692 5.0166,2.8414 5.0165,2.8414 3.7106,2.0701 3.7106,2.0702 6.2894,-3.4215 6.2894,-3.4216 3.38,-2.259 3.38,-2.2591 -0.184,-9.903 -0.184,-9.9031 8.031,-4.6664 8.0311,-4.6663 0.7729,0.043 0.773,0.043 7,4.3179 7.8992,4.318 c 0.092,21.4304 -0.044,-0.3333 0.1008,21.3779 l 8.355,5.2006 8.355,5.2006 c -0.6706,20.4942 -0.4722,-0.165 -0.734,20.8163 l -8.3918,4.8103 -8.3919,4.8102 0.077,10.5316 0.077,10.5316 0.077,0.8076 0.077,0.8075 c 5.7704,3.9474 5.7839,4.0773 17.5582,11.0022 20.4739,-12.5815 0.3533,0.2118 20.3297,-12.8258 0.075,-20.91 -0.057,0.145 0.2533,-20.8535 l 17.1424,-9.5578 -0.2018,-9.1822 -0.2018,-9.1823 c 17.8439,-11.2978 0.203,0.1871 17.7662,-11.3763 4.9784,3.1226 10.0872,6.0204 15.1884,8.9346 l 0.2839,10.0841 -0.051,10.1509 c -18.1073,10.3398 -0.088,-0.013 -18.0679,10.1282 v 10.292 10.292 c -18.0021,12.1475 0.068,-0.06 -17.8738,12.0316 l -0.2137,9.9736 -0.2138,9.9736 3.0729,2 3.0729,2 6.6253,4.2048 6.6254,4.2049 c 6.4882,-3.922 0.1205,-0.042 18.9631,-12.2724 -0.037,-19.995 -7e-4,0.089 0.014,-20.1373 l 8.714,-5.0124 8.7141,-5.0124 0.5,-10.2434 0.5,-10.2434 8.2864,-4.9245 8.2865,-4.9246 7.939,4.6804 8.1519,4.6803 -0.188,11.25 -0.117,9.6173 18.9004,11.621 8.8708,-5.3141 8.8708,-5.3141 c 0.6276,-20.6407 -0.072,0.037 0.6608,-20.6441 l 9.0718,-5.1994 8.2674,-4.7735 0.402,-0.3569 0.402,-0.3569 c -0.2532,-20.1186 0.044,-0.1684 -0.2529,-20.2217 l 9.5334,-4.9595 8.4228,-4.6518 8.156,4.9018 8.1559,4.9019 0.7615,0.4016 0.7616,-0.4016 8.5361,-4.9298 8.5361,-4.9297 8.2927,5.0488 8.2928,5.0489 1.0076,0.4496 1.0077,-0.3546 8.2843,-4.7783 8.2843,-4.7784 7.708,4.4794 7.7081,4.4794 0.2521,9.8823 0.2522,9.8823 -8.0672,4.5 -8.0672,4.7366 -0.9888,-0.5046 -0.9889,-0.5282 -7.8742,-4.3149 -7.8741,-4.5752 -9.5501,5.3431 -9.5501,5.3432 -0.022,11.136 -0.022,11.1361 6.8714,4.2551 6.7294,4.2552 2.0265,1.4213 2.1684,1.4214 9.1225,-5.1868 9.1225,-5.1868 7.7297,4.4923 7.7296,4.4923 0.2807,10.9087 0.2806,10.9087 9.3914,5.584 9.3913,5.584 9.546,-5.54 9.546,-5.5401 0.282,-10.5137 0.282,-10.5138 8.7377,-5.057 8.7378,-5.0569 0.012,-10.6257 0.012,-10.6257 9,-5.1942 9,-5.1942 v -10.355 -10.3549 l 9,-5.1503 9,-5.1503 v -10.2397 -10.2397 l 9.25,-5.33 8.9154,-5.3301 c -0.2315,-19.8734 0.027,0.2716 -0.1932,-18.7702 l -0.056,-1.4916 2.2532,-1.3578 7.9152,-4.6403 7.9151,-4.6404 v -11.3722 -11.3723 l -9.5353,-5.6118 -9.5352,-5.6118 0.2852,-9.6349 0.2853,-9.635 7.5,-4.7245 7.5,-4.7245 1.8252,-1.1988 1.8251,1.0768 6.6749,4.0518 6.6748,4.0518 1.5335,1.0565 1.5336,1.0566 8.9664,-5.43 8.9665,-5.4301 0.2817,-10.4283 0.2818,-10.4283 8.6148,-4.8991 8.6147,-4.8991 4.1847,2.286 4.1846,2.2859 3.9188,2.664 3.9189,2.6639 0.1507,10.2677 0.1507,10.2678 9.5365,5.8144 9.5365,5.8144 c 17.7137,-11.391 0.1476,-0.099 17.6358,-11.5914 l 7.9949,4.7077 7.9949,4.7078 v 9.7298 9.7298 l 9.3259,5.4537 9.3258,5.4537 c 17.0958,-9.687 -0.061,0.016 17.0667,-9.7754 l 9.0774,5.3334 9.0773,5.3335 c 5.9958,-2.8348 5.9543,-2.8193 17.2094,-9.6874 l 8.7362,5.0159 8.7362,5.0159 1.2226,-0.593 1.2225,-0.593 7.0061,-3.8717 7.0061,-3.8717 8.3495,4.7738 8.3495,4.7739 2.0549,1.2504 0.067,0.8719 0.083,8.2564 0.083,8.2565 9.395,5.4618 9.3951,5.4619 2.6049,-1.4941 2.605,-1.4941 6.1776,-3.2917 6.1776,-3.2917 8.4842,4.9935 8.4842,4.9935 2.8382,-1.7144 2.8382,-1.7143 5.8136,-3.1795 5.8136,-3.1795 8.4489,4.9904 8.4489,4.9903 8.3067,-4.4174 8.3067,-4.4174 9.1475,5.167 9.1474,5.1671 0.2834,9.4476 0.2833,9.4477 9.0792,5.3062 9.0792,5.3062 8.4208,-4.395 8.4208,-4.395 9.1083,5.2766 9.1082,5.2767 5.8918,-3.3493 5.8917,-3.3493 2.3952,-1.0555 2.3951,-1.0556 8.6049,4.9224 8.6048,4.9223 8.3472,-4.4114 8.3472,-4.4114 8.9028,5.0946 8.9028,5.0947 0.1095,2.1749 0.1096,2.1748 -0.082,7.1529 -0.082,7.1529 9.6192,5.515 9.6192,5.515 8.2903,-4.4087 8.2903,-4.4087 8.6167,4.9763 8.6167,4.9763 6.6963,-3.4038 6.1608,-3.4037 2.1855,-1.4411 2.1856,-1.441 9.0821,5.2527 9.0822,5.2526 8.4185,-4.366 8.4185,-4.3661 8.8315,5.097 8.8315,5.097 0.1095,2.1257 0.1096,2.1257 -0.083,7.2014 -0.083,7.2014 9.6644,5.4928 9.6643,5.4928 7.7028,-4.1175 7.7029,-4.1174 9.0139,5.1251 9.0139,5.125 8.3858,-4.3879 8.3858,-4.388 9.07,5.3291 9.0701,5.3292 c 5.6096,-3.1813 5.436,-3.1028 17.0177,-8.8396 l 7.878,4.6385 7.8779,4.6384 0.4623,0.434 0.4624,0.434 0.04,9.019 0.04,9.0189 2.7474,1.667 2.7474,1.667 V 3098.7316 3680 l -700.25,-0.032 z M 1569.6961,2817 l 2.0051,-1.5 -0.4638,-10.7438 -0.4638,-10.7439 -7.4223,-4.5061 -7.4222,-4.5062 h -1.1267 -1.1266 l -7.8379,4.595 -7.8379,4.5951 v 10.8327 10.8327 l 8.2025,4.9698 8.2024,4.9697 6.643,-3.6475 6.643,-3.6475 z m -22.5624,-87.9617 8.254,-4.9618 3.0562,1.8301 3.0561,1.8302 4.8702,2.797 4.8702,2.7971 c 20.7772,-10.3022 0.064,-0.1441 20.7596,-10.3309 l -0.024,-10.75 -0.024,-10.75 -8.9846,-5.2984 -8.9846,-5.2984 -4.7415,2.3957 -4.7416,2.3956 -3.5,2.149 -3.5,2.149 -1.4,0.7656 -1.4,-0.7656 -7.3377,-4.25 -7.3378,-4.25 -0.093,-2 -0.093,-2 -0.1804,-8 -0.1805,-8 -0.089,-1.2658 -1.5266,-1.2659 -7.6603,-4.4841 -7.6603,-4.4842 -2.1946,-1.1875 -2.1947,1.1875 -8.6076,5.1444 -8.6077,5.1443 0.2814,11.0486 0.2814,11.0485 8.7377,5.0571 8.7378,5.0571 0.012,10.189 0.012,10.1889 8.75,5.4993 8.75,5.4993 1.1898,0.562 1.1898,-0.438 z m 333.647,-26.8594 6.7193,-3.8212 2.25,-1.4194 2.25,-1.4194 v -11.1466 -11.1465 l -9.73,-5.5785 -9.7301,-5.5786 -5.5199,3.1132 -5.52,3.1131 -3.75,2.3651 -3.75,2.365 v 10.8611 10.861 l 9.25,5.5853 9.25,5.5852 0.7807,0.041 0.7806,0.041 z m -50.2907,-34.4033 8.51,-5.2244 v -10.5296 -10.5296 l -9.3234,-5.6019 -9.3234,-5.6019 -9.663,5.6059 -9.663,5.6059 -0.014,10.7748 -0.014,10.7747 2.25,0.9134 2.25,0.9134 6.5,4.0266 6.5,4.0265 1.74,0.035 1.7399,0.035 z m 53.26,-29.744 9.25,-5.2802 -0.025,-10.6257 -0.025,-10.6257 -9.7148,-5.8813 -9.7149,-5.8813 -5.0098,2.6487 -5.0099,2.6487 -4.75,2.9844 -4.75,2.9845 v 10.4438 10.4438 l 9.7084,5.9846 9.7084,5.9846 0.5416,-0.2744 0.5416,-0.2743 z m 421.6918,-246.1728 6.757,-4.1747 3.8012,-2.9941 v -11.1537 -11.1537 l -8.4045,-4.8566 -8.4044,-4.8566 -0.6658,-0.2976 -0.6658,0.3716 -8.9205,4.8779 -8.9204,4.8779 -0.01,11.5401 -0.01,11.5401 8.75,5.1686 8.75,5.1686 0.4418,0.3422 0.4419,-0.2602 z"
   />
</svg>
