<?xml version="1.0" encoding="UTF-8" standalone="no"?>
<!-- Created with Inkscape (http://www.inkscape.org/) -->

<svg
   version="1.1"
   id="svg1"
   width="2952"
   height="3680"
   viewBox="0 0 2952 3680"
   xmlns="http://www.w3.org/2000/svg"
   xmlns:svg="http://www.w3.org/2000/svg">
   <path
      d="m 743.25,1879.112 -9.25,-5.5987 v -10.6437 -10.6436 l 8.75,-4.9736 8.75,-4.9736 0.28147,-10.4068 0.28147,-10.4068 -8.51326,-4.9826 -8.51326,-4.9826 -0.0182,-10.5593 -0.0182,-10.5593 -7.88563,-4.6907 -7.88563,-4.6907 h -1.05591 -1.0559 l -8.05847,4.7096 -8.05846,4.7096 -0.0239,10.0404 -0.0239,10.0404 -9.17156,5.4098 -9.17156,5.4098 -4.05458,-2.3119 -4.05458,-2.3119 -5.25,-3.3355 -5.25,-3.3355 v -10.4695 -10.4696 l 9.03249,-5.2684 9.03249,-5.2685 -0.28249,-9.9447 -0.28249,-9.9447 -7.46815,-4.4083 -7.46815,-4.4083 -1.53185,-1.001 -1.53185,0.873 -7.75,4.727 -7.75,4.7271 v 10.197 10.1971 l -9.01382,5.3363 -9.01382,5.3363 -8.34401,-4.9868 -8.34401,-4.9868 -3.27121,1.3754 -3.2712,1.3755 -5.87097,3.5664 -5.87096,3.5664 -0.0239,9.6776 -0.0239,9.6776 -8.98905,5.301 -8.98904,5.3011 -0.73709,-0.388 -0.7371,-0.3879 -8.25,-4.8057 -8.25,-4.8057 0.0214,-11.1074 0.0214,-11.1074 8.47859,-4.9148 8.4786,-4.9148 v -10.0905 -10.0905 l 8.98263,-4.9947 8.98264,-4.9947 0.0174,-10.5587 0.0174,-10.5587 -8.5,-4.9118 -8.5,-4.9119 v -10.6538 -10.6539 l -8.37652,-5.0062 -8.37651,-5.0063 -8.551,5.2797 -8.551,5.2797 -8.82248,-5.2643 -8.82249,-5.2643 -0.24947,-11.3847 -0.24946,-11.3848 8.49736,-4.75 8.49735,-4.75 h 1.06761 1.06761 l 8.27054,4.885 8.27055,4.8851 8.13396,-4.6351 8.13396,-4.635 0.0229,-10.5 0.023,-10.5 -8.24296,-5.0142 -8.24295,-5.0142 -0.28324,-10.6775 -0.28324,-10.6775 8.56392,-5.0583 8.56392,-5.0583 1.55922,-0.9705 c 18.74737,11.7068 2.53613,1.6152 18.81249,11.5768 l 0.0669,9.5941 v 11.2003 l 8.28143,4.9417 8.28144,4.9417 -0.28144,11.0755 -0.28143,11.0755 -8.75,5.4455 -8.75,5.4455 v 9.3636 9.3635 c 17.89746,11.614 0.12369,-0.1204 17.96128,11.5649 -0.27079,19.8991 -0.037,0.046 -0.26226,19.8839 16.90172,10.2832 0.10476,0.01 16.83596,10.3123 l 7.98251,-4.6964 7.98251,-4.6964 0.28425,-10.1423 0.28424,-10.1423 8.9651,-5.3167 8.96509,-5.3168 6.6e-4,-10.272 6.6e-4,-10.272 c 19.23248,-12.0369 -0.003,0.042 19.26417,-12.1065 17.69161,11.3386 -0.004,0.095 17.75264,11.3697 L 702,1674.8518 v 10.6618 l 8.49211,4.9932 8.49212,4.9932 0.0559,0.5 0.0559,0.5 0.27574,10.7106 -0.22622,10.1083 c -17.8877,10.557 -0.27803,0.2017 -17.86238,10.5198 -0.17221,19.7121 -0.0439,0.083 -0.16773,19.698 l 7.90834,4.7316 7.90833,4.7317 h 1.05611 1.05611 l 8.64875,-4.942 8.64875,-4.942 4.57907,2.6537 4.57907,2.6537 4.27286,2.6786 4.27285,2.6787 8.19042,-4.9226 8.19042,-4.9226 1.06448,0.2822 1.06449,0.2823 7.70997,4.5 7.70998,4.5 -0.004,12 -0.004,12 -8.01585,4.4398 -8.01585,4.4398 0.2819,10.5047 0.28191,10.5047 7.92774,4.7547 7.6433,4.7546 c -0.19895,22.4879 -0.0543,0.019 -0.071,22.9173 l -8.55852,4.804 -8.55853,4.8039 0.0246,10.814 -0.0641,9.3819 c -18.40938,11.0563 -0.044,-0.041 -18.34339,11.0954 z m -103.52731,-250.4141 -8.7773,-5.1979 0.2773,-10.9895 0.27731,-10.9895 8.82859,-5.2789 8.82859,-5.2789 8.83888,5.2544 8.83888,5.2544 0.33253,3.514 0.33253,3.514 -0.5,7.7049 -0.5,7.7049 -8.31708,5.0451 -8.31709,5.0451 -0.68291,-0.052 -0.68292,-0.052 z"
  />
</svg>
