<?xml version="1.0" encoding="UTF-8" standalone="no"?>
<!-- Created with Inkscape (http://www.inkscape.org/) -->

<svg
   version="1.1"
   id="svg1"
   width="2952"
   height="3680"
   viewBox="0 0 2952 3680"
   xmlns="http://www.w3.org/2000/svg"
   xmlns:svg="http://www.w3.org/2000/svg">
   <path
      d="m 902.5,1973.191 -8,-4.8023 -0.28065,-10.9698 -0.28065,-10.9697 7.78065,-4.5349 7.78065,-4.5348 0.5,-10.3364 0.5,-10.3365 8.5,-5.3178 8.5,-5.3177 0.81474,-0.036 0.81474,-0.035 8.37502,5.1178 8.37503,5.1179 c -0.19746,20.925 0.0216,0.087 -0.13113,20.922 l -9.35738,5.5964 -8.37782,4.75 -0.007,10.095 -0.007,10.095 -1.75,1.5427 -1.75,1.5427 -6.5,3.3551 -6.5,3.3551 -0.5,0.2539 -0.5,0.2538 z m -123.25,-93.4404 -8.25,-4.9948 v -10.699 -10.699 l 8.46891,-4.7536 8.46891,-4.7537 0.28109,-11.6291 0.28109,-11.6292 8.25,-4.9182 8.25,-4.9182 v -10.1639 -10.1639 l -8.48179,-4.964 -8.48179,-4.964 -0.0193,-11.5 -0.0193,-11.5 -7.74891,-3.4221 -7.74891,-3.4221 -1.21713,-0.9231 -1.21714,-0.923 -0.28286,-10.5777 -0.28287,-10.5776 -7,-4.2996 -7,-4.2996 -1.38974,-0.028 -1.38973,-0.028 -7.48691,4.5 -7.4869,4.5 h -0.92196 -0.92196 l -8.50067,-5.1161 -8.50068,-5.1161 0.15407,-10.1339 0.15407,-10.1339 -0.11268,-1 -0.11268,-1 -8.49212,-4.9932 L 702,1685.5136 v -10.6312 -10.6312 l -8.57625,-5.1256 -8.57626,-5.1256 -1.94123,-1.2305 0.0706,-9.0195 -0.0231,-10.25 -7.72689,-4.5479 -7.72688,-4.548 -0.0943,-11.556 -0.0943,-11.556 7.81082,-4.6808 7.81082,-4.6809 0.28348,-10.6331 0.28348,-10.6332 8,-4.7876 8,-4.7877 1.87336,-0.044 1.87336,-0.044 7.62664,4.6513 7.62664,4.6513 1,0.01 1,0.01 6.72709,-4.1316 6.7271,-4.1316 2.35224,-0.5904 2.35224,-0.5903 8.17067,4.7751 8.17066,4.7752 v 10.7205 10.7205 l 8.96724,5.1753 8.96723,5.1753 0.28277,10.5988 0.28276,10.5988 8.25186,4.919 8.25185,4.919 8.99578,-5.1917 8.99579,-5.1918 8.39123,5.0686 8.39124,5.0685 h 0.53192 0.53192 l 8.06166,-5 8.06166,-5 h 0.53456 0.53457 l 7.43332,4.5123 7.43333,4.5124 1.45055,0.5566 1.45056,0.5566 8.08816,-5.0689 8.08817,-5.069 h 0.41994 0.41994 l 8.83699,5.4563 8.83699,5.4562 4.004,-2.4529 4.00401,-2.4529 4.74898,-2.7534 4.74899,-2.7533 10e-4,-10.5711 10e-4,-10.5711 8.5,-4.7711 8.5,-4.7711 v -10.1777 -10.1778 l 7.25,-4.4232 7.25,-4.4231 2.01893,-1.2705 2.01893,-1.2705 9.27168,5.4215 9.27169,5.4215 8.36112,-4.9386 8.36113,-4.9385 8.84826,5.3015 8.8483,5.3015 0.2851,10.1887 0.2851,10.1888 3.7969,2.3969 3.797,2.3969 4.9179,2.7083 4.918,2.7083 8,-4.6074 8,-4.6073 1.1908,-0.8801 1.2577,0.8601 8.2175,4.8624 8.2175,4.8624 8.6287,-5.2322 8.6288,-5.2322 8.9295,5.3609 8.9295,5.3609 -0.1626,10.3743 -0.1788,10.1296 9.5914,5.9011 8.25,4.9546 v 11.1101 11.1102 l -8.8333,5.2294 -8.8334,5.2295 -0.2022,1.7395 -0.2022,1.7395 -0.037,8.5 -0.037,8.5 -8.1777,4.587 -8.1776,4.5869 -0.2816,10.4426 -0.2816,10.4426 -8.2184,4.9705 -8.2184,4.9704 -1.1945,0.3126 -1.1945,0.3127 -8.4119,-5.0627 -8.4118,-5.0626 h -0.6336 -0.6336 l -8.5101,5.2244 -8.51,5.2244 v 10.0362 10.0362 l -8.25,4.9894 -8.25,4.9894 -1.1945,0.3126 -1.19458,0.3127 -8.55548,-5.1491 L 982,1749.8271 v -11.174 -11.174 l 9,-5.2605 9,-5.2606 v -10.2394 -10.2395 l 9,-5.2605 9,-5.2606 v -9.4483 -9.4482 l -5.6756,-3.6307 -5.6757,-3.6307 -3.1072,-1.4817 -3.1071,-1.4817 -8.19264,4.8317 -8.19261,4.8316 -0.0246,10.75 L 984,1688 h -1.16211 -1.16211 l -7.83789,4.595 -7.83789,4.5951 -0.003,10.1549 -0.003,10.155 -8.99656,5.4544 -8.99656,5.4544 v 9.6865 9.6864 l 9,5.3281 9,5.3281 -0.003,11.0311 -0.003,11.031 -8.99656,5.4544 -8.99656,5.4544 0.003,10.0456 0.003,10.0456 8.43224,4.8268 8.43224,4.8268 8.61631,-5.0893 8.61631,-5.0893 8.92432,5.2625 8.92433,5.2625 0.0239,11.137 0.0239,11.137 -8.74462,4.973 -8.74475,4.973 -0.10293,1.39 -0.10293,1.39 -0.15232,9.0106 -0.15231,9.0106 -8.25,4.9894 -8.25,4.9894 -1.19452,0.3126 -1.19452,0.3127 -8.55548,-5.1491 -8.5568,-5.1491 v -10.2988 -10.2987 l -7.71274,-5.1148 -7.71275,-5.1148 -1.53725,0.011 -1.53726,0.011 -7.5,4.4774 -7.5,4.4774 -1.15523,0.011 -1.15524,0.011 -7.29878,-4.5 -7.29878,-4.5 h -1.34258 -1.34258 l -7.9534,4.5875 -7.9535,4.5887 v 10.6936 10.6935 l -8.87817,5.256 -8.87818,5.256 -8.37182,-5.0351 -8.37183,-5.0352 h -1.17375 -1.17374 l -8.43523,5.0413 -8.43522,5.0413 c -18.12994,-10.5098 0.002,-0.05 -18.22773,-10.7172 l -7.26239,4.2163 -6.29194,3.7813 -2,1.1893 -2,1.1893 z M 603.19375,1690.9335 594.2963,1684.13 v -9.309 -9.3091 l 9.43668,-5.5433 9.43669,-5.5433 0.30352,-11.2745 0.30353,-11.2744 -8.93136,-5.0255 -8.93135,-5.0255 -0.30267,-11.1767 -0.30268,-11.1766 8.39127,-4.6164 8.39126,-4.6162 0.53924,-10.5221 0.53924,-10.5222 9.16707,-5.4133 9.16707,-5.4132 0.87868,-0.037 0.87868,-0.036 9.09725,5.2472 9.09724,5.2473 v 11.549 l -0.10213,9.1886 -3.6726,2.4115 -7.54935,4.317 -7.54935,4.3172 -0.29967,11.1817 -0.29967,11.1818 9.7724,5.3856 9.77241,5.3856 -0.30567,10.8122 -0.30566,10.8121 -8.89745,5.0322 -8.89745,5.0322 v 10.0975 10.0974 l -4.94651,2.7744 -4.94652,2.7743 -5.39316,3.3084 -5.39317,3.3084 -0.17548,-0.01 -0.17549,-0.01 z"
   />
</svg>
