<svg
   version="1.1"
   id="svg1"
   width="2952"
   height="3680"
   viewBox="0 0 2952 3680"
   xmlns="http://www.w3.org/2000/svg"
   xmlns:svg="http://www.w3.org/2000/svg">
   <path
      d="m 2330.753,1514.7294 -8.747,-5.2294 0.025,-11 0.025,-11 8.472,-4.8181 8.472,-4.8181 v -10.4075 -10.4074 l -7.7291,-4.5245 -7.7291,-4.5244 h -0.7354 -0.7355 l -7.4121,4.5 -7.4121,4.5 h -1.5879 -1.5879 l -7.7854,-4.6907 -7.7855,-4.6906 -0.7347,-1.0594 -0.7347,-1.0593 -0.039,-10 -0.039,-10 -8.9762,-5.2934 -8.9761,-5.2933 -0.012,-10.7067 -0.012,-10.7066 -7.7378,-4.446 -7.7377,-4.446 -0.7347,-1.054 -0.7347,-1.054 -0.01,-10 -0.01,-10 8.7434,-5 8.7434,-5 1.2422,-0.3218 1.2422,-0.3218 8.5078,5.1389 8.5078,5.1389 v 10.4204 10.4203 l 3.832,2.4191 3.8321,2.419 4.9817,2.7815 4.9818,2.7814 7.9362,-4.8393 7.9362,-4.8392 0.9645,-0.6152 1.0355,0.6152 7.7891,4.7499 8.4248,5.2351 2.0772,-0.8526 1.7089,-0.769 7.6861,-4.3967 7.6861,-4.3967 4.2327,2.4042 4.2326,2.4042 4.8313,3.1305 4.8312,3.1305 v 10.3518 10.3517 l 6.75,4.317 6.75,4.317 1.75,1.2004 1.75,1.3676 v 9.9868 11.2918 l -9,5.2605 -9,5.2606 v 10.3558 10.3558 l -9.5,5.6691 -9.5,5.6692 -0.024,9.704 -0.024,9.7041 -8.9034,5.25 -8.9034,5.25 -0.3227,-0.021 -0.3228,-0.02 z"
   />
  </g>
</svg>
