<svg
   version="1.1"
   id="svg1"
   width="2952"
   height="3680"
   viewBox="0 0 2952 3680"
   xmlns="http://www.w3.org/2000/svg"
   xmlns:svg="http://www.w3.org/2000/svg">
   <path
      d="m 637.72263,2903.191 0.33359,-11.3607 0.33359,-11.3606 c -17.8225,-9.1945 -0.11303,0.2067 -18.15483,-9.4294 0.40829,-20.6171 -0.006,-0.2297 0.29538,-20.7135 l -17.36268,-9.8264 c -16.65091,10.13 -10e-4,-0.043 -16.73765,10.3701 -17.94025,-10.2955 -0.0156,-0.099 -18.03062,-10.4011 -16.74021,10.3697 -0.0493,0.085 -16.66229,10.2837 l -18.89304,-13.044 c 0.70074,-18.662 0.0605,0.097 0.71416,-18.7435 -16.91382,-11.064 0.0485,0.2349 -16.86216,-11.0615 l -2.33425,1.4113 c -16.51363,9.5003 -11.01062,6.6319 -16.73086,9.5975 l -17.27227,-13.5586 c 0.15926,-18.5095 -0.0631,-0.1599 0.17163,-18.9467 -17.12079,-10.728 0.11987,0.1023 -17.08434,-10.6879 l 0.15986,-10.1736 0.15986,-10.1737 -7.4e-4,-0.192 -0.73468,-0.4642 -4.25,-2.1432 -4.04922,-2.4193 -1.80901,-1.184 -3.53956,-1.8932 -3.53957,-1.8932 -8.90632,5.3723 -8.90632,5.3724 v 9.8637 9.8638 l -0.0384,1.1873 -5.96156,3.6301 -5.70734,2.9324 -5.70734,2.9325 -8.29266,-4.9333 -8.29266,-4.9333 -1.6978,-1.0716 -1.73126,1.0701 -7.41211,4.5 -7.41211,4.5 -0.66543,0.3346 -0.73234,-0.3346 -6.8588,-4.0058 -6.8588,-4.0057 -3.25091,-2.2571 -0.0328,-1.0266 0.25928,-9.0381 0.28295,-9.3456 0.0384,-0.778 -2.32789,-1.5115 -7.26082,-4.3051 -7.23716,-4.6127 -5.55117,3.1048 -5.55117,3.1049 -3.74175,2.0882 -3.74175,2.0883 -0.0236,9.5 -0.0236,9.5 0.0217,1.2324 -1.58735,1.2324 -7.95187,4.7677 -7.95187,4.7678 -9,-5.4519 -9,-5.4518 0.12023,-10.3925 0.12023,-10.3926 8.62977,-5.133 8.62977,-5.133 0.16667,-8.7728 0.16666,-8.7727 0.0833,-1.7018 0.0833,-1.7018 -8.25,-4.9203 -8.25,-4.9203 0.0167,-10.6279 0.0167,-10.6279 8.98328,-5.382 8.98328,-5.3821 -0.0123,-10.1179 -0.0123,-10.118 -7.70998,-4.5 -7.70997,-4.5 -1.08051,-0.2853 -1.08051,-0.2854 0.39081,-8.7146 0.39082,-8.7147 -1.01374,-2.6196 -1.01374,-2.6196 -8.07432,-4.6573 -8.07412,-4.6572 v -10.8806 -10.8805 l 9.25,-5.4436 9.25,-5.4436 2.5,1.6964 2.5,1.6964 6.12379,3.5492 6.1238,3.5493 9.33685,-5.2326 9.33685,-5.2326 8.75179,5.088 8.75179,5.0879 0.28756,10.9208 0.28757,10.9207 8.26415,4.8749 8.26414,4.875 8.23586,-4.8326 8.23585,-4.8326 0.28325,-10.656 0.28326,-10.656 8.42158,-5.1645 9.10779,-5.4011 c -0.13079,-19.8696 -0.17505,-20.0342 -0.17505,-20.0342 l 9.92834,-6.0193 8.39056,-5.3749 c 0.28118,-7.5417 0.32777,-12.9571 0.49451,-19.4368 l -2.07755,-1.4015 -8.11103,-4.7551 -8.11102,-4.7552 0.28268,-10.5676 0.28267,-10.5677 c 12.41587,-6.8622 12.54378,-6.9662 19.10717,-9.962 l 8.31458,4.7798 7.89627,4.6293 1.22008,0.802 -0.0381,2.2782 0.0365,9.6682 0.0365,9.6682 4.21349,2.6319 4.21349,2.6318 4.25,2.1385 4.25,2.1384 v 10.4403 10.4402 l 1.25,1.0598 1.25,1.0598 6.28374,3.9796 6.28374,3.9797 1.43584,0.937 c 6.27566,-3.6203 12.37845,-7.3073 18.99668,-10.6267 l 8.5,5.165 8.5,5.165 0.2619,10.9299 0.2619,10.9298 -9.0119,5.3151 -9.0119,5.3152 0.03,10.1848 0.03,10.1849 8.20857,4.6782 8.20856,4.6782 7.96409,-4.3599 9.23571,-5.0291 0.0784,-1.5822 0.18179,-2.3852 0.0776,-8.7842 0.0972,-8.6504 c 5.72104,-2.9717 11.28727,-6.2318 16.88811,-9.4221 v -10.1984 -10.1985 l 9.41373,-5.6177 9.41373,-5.6176 5.83627,3.348 5.83627,3.348 3,1.7609 3,1.7608 8.62797,-5.167 8.62798,-5.1671 9.01149,5.4643 9.01149,5.4643 8.02794,-4.8258 8.02795,-4.8258 3.0408,1.6641 3.0408,1.6642 6.48335,3.6036 6.48335,3.6036 c 16.12623,-9.4774 0.0688,-0.034 16.13361,-9.5714 12.8073,6.6711 12.73249,6.5935 19.07462,9.9353 11.73581,-7.0479 11.65387,-6.9468 17.65668,-10.1426 l 8.24455,5.0075 8.24454,5.0075 2.13144,-1.1079 2.13144,-1.1079 6.75,-3.9079 6.75,-3.908 v -10.4356 -10.4356 l 4.22764,-2.1567 4.22765,-2.4408 4.02235,-2.3202 4.02236,-2.6042 1.4209,-1.0093 0.0485,-1.0094 0.0153,-9.5875 0.0153,-9.5874 9.25,-4.9792 9.25,-4.9792 0.2498,-8.9333 0.2498,-8.9334 0.0842,-4.3917 c 5.45643,-3.3223 -0.34092,-0.084 15.79138,-9.4764 18.93389,10.458 12.53397,6.8917 19.18436,10.5596 l 9.20114,-5.2315 9.20114,-5.2315 2.51911,1.4664 2.5191,1.4664 5.7022,3.6695 5.7022,3.6695 7.7978,-4.0975 7.7978,-4.0975 2.45679,-1.38 0.0432,-0.6702 0.0284,-10.1275 0.0284,-10.1276 8.9449,-5.3439 8.94489,-5.3438 8.30639,5.0938 8.30638,5.0939 0.83144,0.502 0.83144,-0.502 8.47385,-5.1184 8.47385,-5.1185 6.66503,4.5326 6.66502,4.5326 1.96849,1.1188 c 17.9571,-10.7515 15.3366,-9.0741 18.01345,-10.7502 l 1.27216,0.8031 9.08269,5.25 9.0827,5.25 0.0403,10.6642 0.0403,10.6643 5.25,3.2974 5.25,3.2974 2.36431,1.2883 2.3643,1.2884 1.75084,1.0175 1.75083,-1.0175 2.38486,-1.8117 2.38486,-1.8118 4.5,-2.5004 4.5,-2.5004 1.16752,-0.8608 1.30951,0.9848 8.50354,5 8.5036,5 0.01,9.75 -0.023,9.8337 c 14.9897,12.39 0.062,0.059 14.9569,12.3552 10.109,-6.4908 7.2739,-4.7962 10.1454,-6.5402 l 8.399,-5.1014 4.4487,2.3514 4.4487,2.3513 5.0674,3.2609 5.0674,3.2609 0.5,10.6614 0.5,10.6614 3,1.8141 3,1.8141 5.0989,2.6478 5.0989,2.6478 7.6341,-4.6342 7.6341,-4.6342 1.6884,-1.2778 1.5938,1.2778 7.85,4.75 7.8499,4.75 0.026,10.3397 0.026,10.3397 c 11.4236,7.2812 11.4674,7.3424 17.237,11.0332 18.3702,-10.8679 0.079,-0.1 18.4016,-10.9158 16.6835,10.2814 0.1409,0.077 16.7311,10.3259 l -0.2494,10.0894 -0.2493,10.0893 2.1462,1.9995 2.1461,1.9994 4.6683,2.4614 4.6684,2.4614 3.0444,1.7885 3.0444,1.7884 4.4556,-2.8199 4.4556,-2.82 3.6251,-2.3797 3.6251,-2.3798 3.3749,2.054 3.3749,2.054 3,1.5554 3,1.5554 2.4864,1.4002 2.4865,1.4001 2.2301,-1.4612 2.2301,-1.4613 4.7834,-2.6589 4.7835,-2.6589 1.6805,-1.0371 1.6804,-1.0371 8.5048,5.1972 8.5048,5.1971 1.5846,0.8868 c 11.1731,-7.1122 11.136,-7.1386 16.4737,-11.041 6.1731,3.8253 6.1697,3.8163 18.681,11.2071 l 8.0642,-5.3029 8.133,-4.6672 0.7548,-0.4377 c 10.4836,6.4007 0.037,-0.022 10.4811,6.3549 l 3.9448,2.6105 3.9448,2.6106 0.2837,10.0088 0.2838,10.0089 8.236,4.9608 8.2359,4.9609 2.7641,-1.4585 2.764,-1.4586 5.7611,-3.2028 5.7611,-3.2028 7.9423,4.5811 7.9423,4.5811 0.6965,0.4016 0.6966,-0.4016 c 11.5824,-6.3204 11.5676,-6.2411 17.8312,-9.7684 12.2897,6.2249 12.2547,6.286 18.4397,9.3568 l 0.047,11.654 -0.5553,11.6539 -7.7813,4.5342 -7.7813,4.5341 -2.2966,1.5573 -2.2966,-1.5213 -7.8017,-4.5 -7.8016,-4.5 -0.5133,-0.3681 -0.5132,0.3681 -7.277,4 -7.277,4 -2.1274,1.3051 -2.1273,-1.3051 -6.8451,-4 -6.845,-4 -1.8487,-0.937 -1.8487,0.937 -7.4614,4 -7.4614,4 -1.5435,0.7529 c -16.1202,-9.7482 -0.024,0.1616 -16.095,-9.807 l -1.823,1.0541 -7.9316,4.575 -7.9317,4.575 -1.3254,-0.5086 -1.3254,-0.5086 -6.6934,-4.0664 -6.6934,-4.0664 -1.9178,-1 -1.9179,1 -8.5393,4.095 -8.5393,4.0949 -7.1906,-4.1704 -7.1907,-4.1704 -1.6009,-1.01 -1.6009,0.7578 -8.4854,4.3025 -8.4854,4.3025 -5.754,-3.351 -5.754,-3.3509 -2.9507,-1.7526 -2.9508,-1.7526 -8.7089,4.6105 -8.709,4.6105 -0.2093,11.1421 0.2327,11.1421 c 19.309,10.9409 0.6575,0.243 19.2732,10.7889 l 3.3517,-2.0456 3.3517,-2.0456 5.8259,-3.1277 5.8258,-3.1277 7.4596,4.5289 7.4596,4.5288 1.8156,0.7955 1.8156,-0.7955 4.899,-2.5895 4.8989,-2.5894 3.0523,-1.8699 3.0522,-1.8699 3.4478,2.1079 3.4477,2.108 4.1924,2.3514 4.1925,2.3514 1.8075,0.8227 1.8076,-0.8567 8.0213,-4.3074 8.0213,-4.3073 2.9787,1.7037 2.9787,1.7037 6,3.4674 6,3.4674 9.2369,-4.9263 9.2368,-4.9263 7.5448,4.7025 7.5447,4.7024 -0.2816,11.0201 -0.2816,11.0202 -1.5,0.867 -1.5,0.8669 -7.3247,3.9547 -7.3248,3.9546 -7.3539,-4.4641 -7.3538,-4.4641 -1.8214,-1.2195 -1.8214,0.7178 -8.6687,4.4123 -8.6687,4.4122 -7.0061,-4.1622 -7.0062,-4.1623 -1.0926,-0.5937 -1.0303,0.5937 c -17.1504,9.1284 -1.8215,0.8489 -17.0276,9 l -17.8752,-9.9833 -8.5623,5.1172 -8.5623,5.1173 v 9.6267 9.6266 l 7.9531,4.8432 7.9531,4.8432 8.4358,-5.0955 8.4358,-5.0954 0.8611,-0.5524 0.8611,0.5524 c 5.7756,3.976 5.8502,3.8914 17.5274,10.2476 5.7921,-3.0277 5.8777,-3.0822 17.0288,-9.7843 10.6768,6.3453 10.7126,6.3113 16.0147,9.5303 l 1.2388,0.7292 1.2387,-0.7292 7.8965,-4.5 8.5373,-5.0966 c 11.5525,7.1182 11.4978,6.9988 17.2651,10.3961 11.8405,-6.2694 11.8065,-6.3017 17.5143,-9.7995 l 0.556,-0.4198 0.556,0.4198 c 17.9852,11.1602 0.049,0.023 18.1264,11.338 v 11.1221 11.1221 l -5.25,2.6934 -5.25,2.6933 -4.0819,2.472 -4.082,2.472 c -17.5859,-10.4476 -0.033,0.1223 -17.5904,-10.5206 l -1.2941,0.6077 -7.8965,4.5 -7.8965,4.5 -0.7467,0.4062 -0.7466,-0.4062 -7.6115,-4.5 -7.6114,-4.5 -1.3834,-0.4419 c -16.641,10.474 0.016,0 -16.6149,10.3414 l -3.7221,-2.1843 -3.722,-2.1844 -4.9772,-3.2654 -4.9772,-3.2654 -0.8872,-0.5937 -0.8871,0.5937 -7.8419,4.6647 -7.8418,4.6646 -0.7987,0.4877 -0.025,1.683 -0.1943,9 0.087,9 9.2417,4.6804 7.898,4.6805 0.602,0.9666 0.602,0.9665 -0.3142,10.5954 -0.3142,10.5953 -9.2918,5.545 -9.2919,5.5449 -5.2272,-3.4425 -5.2272,-3.4425 -4.4168,-2.3431 -4.4167,-2.3431 v -10.707 -10.7071 c -16.561,-10.1504 -0.052,0.045 -16.569,-10.0821 l -0.1152,-8.75 -0.1152,-8.75 -0.1003,-2.2814 -0.1003,-2.2814 -17.0302,-10.4373 0.1448,-9.8048 0.1448,-9.8049 -15.6417,-9.8903 -0.824,-0.6187 c -17.913,11.268 -0.1366,0.1826 -17.8537,11.1187 -16.7952,-10.9122 0.023,-0.1423 -16.83,-10.8708 l -2.3046,1.131 -2.3046,1.1309 -7.1065,3.9428 -7.1065,3.9428 -4.8935,-3.0458 -4.8935,-3.0458 -3.2925,-1.8494 -3.2925,-1.8493 c -17.6428,10.129 0,0.047 -17.5851,10.1906 l -1.8299,-0.8727 -7.454,-4.6525 -7.454,-4.6526 -1.3426,-0.6562 -1.3426,0.6562 -7.9534,4.5875 -7.9534,4.5875 -0.1035,2.1625 -0.1034,2.1625 0.1852,7.6237 0.1853,7.6236 c -18.6966,11.9083 0,0.2481 -18.7062,11.783 -17.0823,-10.0473 -0.01,0.029 -16.6227,-9.5303 l -1.1133,-0.6939 -1.0249,0.6939 -7.8887,4.5502 -7.8888,4.5503 -5.7095,-3.182 -5.70947,-3.1819 -3.75,-2.5043 -3.75,-2.5043 v -10.3787 -10.3787 l -3.25,-1.9853 -3.25,-1.9854 -5.12034,-2.6891 -5.12034,-2.6891 -9.00757,5.0231 -9.00757,5.023 -9.87209,-5.9264 -9.20918,-5.9265 0.0469,-10.2948 -0.0856,-10.2949 -7.52884,-4.5709 -7.52884,-4.5708 -8.53327,5.1833 -8.53888,5.1843 v 10.2749 8.8607 c -18.88069,11.3478 -12.69674,7.7411 -18.97625,11.5341 l -3.26188,-2.4456 -3.26187,-2.4456 -5.62863,-3.1413 -5.62863,-3.1413 -8.58189,5.1289 -8.58188,5.129 -8.72917,-5.0654 -8.72918,-5.0654 c -16.97434,10.6596 0.0948,0.1984 -16.92759,10.5833 -0.63947,20.0368 -0.0935,0.061 -0.68966,19.9533 l 9.51043,4.9451 8.44978,4.9451 0.0182,10.5791 0.0182,10.5791 8.25,4.956 8.25,4.9559 0.28243,10.577 0.28244,10.5771 -9.03244,5.2569 -9.03243,5.257 v 10.3129 10.3128 l -2.4375,1.9143 -3.0625,1.9143 -6.5341,3.5526 -6.5341,3.5526 c -17.15575,-9.9278 -0.0411,-0.218 -17.13377,-9.8634 -17.80559,9.8435 0.0332,0.01 -17.82405,9.8315 l 0.0932,8.4485 -0.50053,11.2922 c -17.91614,11.0133 -0.0648,0.029 -17.90015,10.9543 -16.91672,-10.6231 -11.06492,-7.0597 -16.92634,-10.5514 -18.12267,9.6811 0.0196,0 -18.26221,9.8863 l -3.23897,-2.1965 -3.23898,-2.1965 -5.6416,-2.8553 -5.6416,-2.8553 -8.3584,5.0693 -8.3584,5.0694 -6.41549,-3.5569 -6.41549,-3.5568 -2.66602,-1.5301 -2.66602,-1.53 c -5.98221,3.8719 -0.11285,0.1373 -18.53899,10.7181 z m 785.30767,-176.9968 -9,-5.2777 0.071,-11.2234 0.1464,-10.738 0.7828,-0.4869 8.4036,-4.9992 8.4035,-4.9993 0.8824,-0.5 0.8824,0.5 8.964,5.2396 8.9641,5.2395 -0.01,11.0105 -0.01,11.0104 -8.7434,5 -8.7434,5 -1,0.2511 -1,0.251 z"
   />
</svg>
