<?xml version="1.0" encoding="UTF-8" standalone="no"?>
<!-- Created with Inkscape (http://www.inkscape.org/) -->

<svg
   version="1.1"
   id="svg1"
   width="2952"
   height="3680"
   viewBox="0 0 2952 3680"
   xmlns:svg="http://www.w3.org/2000/svg">
   <path
      d="m 1460.75,2539.8824 -8.75,-5.1383 v -10.851 -10.8511 l -9.0279,-5.271 -9.0278,-5.271 0.2778,-10.8892 0.2779,-10.8892 8.75,-4.9738 8.75,-4.9738 v -10.1474 -10.1475 l 9.1768,-5.3639 9.1768,-5.3639 2.5732,1.6399 2.5732,1.6398 6.4083,3.6591 6.4083,3.6591 5.0917,-2.761 5.0917,-2.7609 3,-2.4 3,-2.3999 0.1917,-8.2637 0.1918,-8.2637 0.048,-2.5469 -2.8629,-1.7774 -7.5345,-4.2868 -7.5345,-4.2868 v -10.7262 -10.7261 l -7.5355,-4.5749 -7.5354,-4.5749 -2.0187,-1.2047 0.09,-10.0767 v -11.2815 l 8.75,-4.9685 8.75,-4.9686 0.2811,-11.0787 0.2812,-11.0788 8.5245,-4.7467 8.5246,-4.7467 -0.1978,-10.1746 -0.1978,-10.1745 c 19.1844,-10.0624 0.013,0.01 19.2842,-10.1667 v -11.0942 -11.0943 c 17.7827,-9.6893 -0.028,0.016 17.642,-9.6841 l 0.1419,-9.7896 0.2839,-10.6888 3.7161,-2.3436 3.7161,-2.3437 5.7624,-3.25 5.7625,-3.25 8.9591,5.3525 8.9592,5.3525 0.028,10.5106 0.028,10.5106 7.9085,4.7394 7.9085,4.7394 h 0.7432 0.7433 l 7.8016,-4.5 7.8017,-4.5 1.3084,-0.7217 1.2848,0.7217 8.2584,4.967 8.2584,4.9669 8.6892,-5 9.0407,-5.0669 c 18.2247,10.4614 12.2383,6.9123 18.2533,10.5271 l 0.018,10.5511 0.018,10.551 8.4818,4.964 8.4818,4.964 v 10.536 10.536 l 8.4968,4.8638 8.4967,4.8637 0.018,10.6363 0.018,10.6362 8.4227,4.9291 8.683,4.9291 c -0.077,7.6418 -0.021,15.2269 -0.097,22.864 l -9.0141,5.76 -8.8248,5.05 -8.7471,-5.2277 -8.747,-5.2277 -5.0241,2.8051 -5.0241,2.8051 -3.8679,2.4416 -3.8678,2.4417 0.2858,9.6931 0.2858,9.6932 8.7827,5.3858 8.7826,5.3858 -0.2826,10.6138 -0.2827,10.6138 -8.75,5.3662 -8.75,5.3662 v 11.4649 8.4083 l -10.4645,6.9726 -8.8081,4.9376 -8.2542,-4.9858 -8.2543,-4.9858 -1.1661,-0.6609 -1.1493,0.6609 -7.8017,4.5 -7.8016,4.5 -1.3097,0.6902 -1.318,-0.6902 -7.8379,-4.595 -7.8379,-4.5951 0.015,-11.1549 0.015,-11.155 0.049,-1.2863 1.4207,-0.8846 7.2406,-4.2032 8.5658,-5.2917 -0.1431,-3.621 -0.3317,-7.8009 -0.3316,-7.801 -7.914,-4.7465 -7.9139,-4.7466 -3.0861,1.5837 -3.086,1.5836 -5.2861,3.3679 -5.2861,3.3679 0.2861,9.7394 0.2861,9.7393 -9.3258,5.6263 -9.6604,5.5594 c -12.2229,-7.0358 -12.2227,-7.1798 -18.3961,-10.9718 -17.2486,12.3614 -0.012,-0.078 -17.2767,12.4111 l 0.284,9.6875 0.284,9.6875 -9.0797,5.2783 -9.0797,5.2783 -8.1072,-5.0283 -8.1073,-5.0283 h -0.6331 -0.6332 l -8.3778,4.75 -8.3778,4.75 -0.01,9.5295 -0.01,9.5294 8.5,4.9119 8.5,4.9118 v 9.7269 9.7269 l 0.016,2.7038 -7.7648,4.9598 c -10.5812,5.4534 -0.067,0.063 -10.6007,5.504 z m 178.5209,-218.4068 7.7291,-4.5245 v -10.4006 -10.4007 l -7.5355,-4.5749 -7.5354,-4.5749 -1.6306,-0.8366 -1.6306,0.8366 -7.334,4.571 -7.3339,4.5711 v 10.326 10.326 l 7.75,4.5877 7.75,4.5877 1.0878,0.5504 0.954,-0.5204 z m -258.6188,150.361 c -0.036,-21.7005 0.029,0.067 0.09,-21.8433 l -7.6212,-4.6174 -9.06,-5.9559 -0.03,-0.92 -0.015,-10.25 0.05,-9.1122 1.8728,-1.1378 8.6065,-5.0835 7.9439,-5.2254 c 10.7678,6.609 11.3971,6.8753 17.011,9.843 l 0.2871,10.4252 0.2398,12.0579 c 12.2436,6.2656 12.2391,6.301 18.304,9.1572 l 0.021,2.3019 0.039,10.1482 0.1098,10.1246 c -19.1287,10.4728 -0.065,-0.053 -19,10.2716 -18.7144,-10.1237 0.096,0.076 -18.848,-10.1841 z m 16.8479,-115.1979 -2,-1.1652 -6.75,-3.8228 -6.75,-3.8228 v -10.851 -10.8509 l 8.5344,-5.563 8.5344,-5.563 0.9542,-0.6626 1.0489,0.6626 8.964,5.2396 8.9641,5.2395 v 11.7605 l -0.095,10.7192 -1.6752,1.0412 -7.865,4.4926 -7.8651,4.4925 -0.9468,0.5124 -1.0532,-0.6944 z"
   />
</svg>
