<svg
   version="1.1"
   id="svg1"
   width="2952"
   height="3680"
   viewBox="0 0 2952 3680"
   xmlns="http://www.w3.org/2000/svg"
   xmlns:svg="http://www.w3.org/2000/svg">
   <path
      d="m 859,1383.3567 -7.4833,-4.2816 -7.4833,-4.2817 -7.7351,4.6033 -7.7351,4.6033 h -1.7214 -1.72139 l -8.15885,-4.9045 -8.15886,-4.9045 -8.15135,4.9026 -8.15135,4.9026 c -21.44444,-11.4609 -0.13779,-0.035 -21.38658,-11.4538 l -0.30671,-11.2751 -0.30671,-11.275 c 19.41962,-9.6414 -0.01,-0.2077 19.44402,-9.5 l 0.028,-10.5648 0.028,-10.5648 -3.25,-1.6799 -3.25,-1.68 -3.16003,-1.8313 -3.16003,-1.8313 -2.58997,-1.697 -2.58997,-1.697 0.041,-10.227 0.041,-10.2269 4.70901,-2.2468 4.70901,-2.2468 4.75,-3.005 4.75,-3.0051 v -9.8431 -9.8432 c -4.87104,-3.2571 -0.032,0 -4.88449,-3.31 l -6.55776,-4.1117 -6.55779,-4.104 v -9.4363 l 0.0947,-7.0699 c -18.63435,-11.4604 -0.73965,-0.1832 -18.68022,-11.5186 -0.0965,-24.7575 0.0732,0.045 0.0856,-24.7557 19.5178,-9.3674 -0.0895,0.1397 19.56341,-9.4191 l -0.2817,-10.4606 -0.28171,-10.4605 -7.5,-4.4418 -7.5,-4.4418 -6,3.2725 -6,3.2725 -3.63173,1.8854 -3.63173,1.8854 -4.36827,-2.9085 -4.36827,-2.9085 -4,-2.2477 -4,-2.2477 -8.66256,5.1169 -8.66257,5.1169 -8.5906,-5.1342 -8.5906,-5.1342 -7.12918,4.1275 L 673.7353,1163 H 672.86765 672 v 10.9137 10.9137 l -9.75,5.3363 -9.75,5.3363 -0.7327,0.3276 -0.73271,0.3275 -8.52483,-5.1492 -8.52484,-5.1492 0.12256,-11.8749 0.12255,-11.8748 8.13498,-4.8494 8.13499,-4.8495 0.28275,-11.2041 0.18218,-10.1666 1.7734,-1.0374 8.14304,-4.6135 8.14304,-4.6136 -0.66034,-9.394 -0.66033,-9.3941 1.79507,-1.9835 1.79506,-1.9835 7.87822,-4.6187 7.87821,-4.6187 8.85371,5.1098 8.85372,5.1098 h 0.53851 0.5385 l 7.83263,-4.6514 7.83263,-4.6514 1,-0.013 1,-0.013 7.95459,4.8314 7.95459,4.8314 h 1.08556 1.08557 l 7.20984,-4.2107 7.20985,-4.2108 v -10.9873 -10.9873 l 1.75,-0.652 1.75,-0.6521 7,-4.3284 7,-4.3285 0.5,-10.1697 0.5,-10.1697 8.47012,-5.1227 8.47013,-5.1228 0.78165,-3.4457 0.78166,-3.4456 -0.57788,-6.5 -0.57789,-6.5 8.96794,-5.4442 8.96794,-5.44414 c -0.17146,-18.74279 0.0883,0.27272 -0.0539,-18.77621 l -4.61486,-2.81101 -4.61487,-2.81102 -3.75,-2.30774 -3.75,-2.30774 -0.0136,-9.04897 -0.0137,-9.04897 -0.60218,-2.24694 -0.60217,-2.24694 -8.63417,-4.98046 L 774.5,936.0452 774.81054,924.5226 775.12108,913 c 17.89132,-9.53614 0.0523,0.0537 17.87892,-9.47875 L 792.993,894.01062 792.986,884.5 784.4926,879.68426 776,874.86851 775.97614,864.18426 775.95228,853.5 766.97614,848.20665 758,842.91329 757.9567,832.20665 757.9134,821.5 l -8.99957,-5.4826 -8.99958,-5.4826 c -0.15646,-19.96069 0.0714,-0.0323 -0.038,-20.07006 l -8.18812,-4.99657 -8.18812,-4.99658 -0.28328,-10.68144 -0.28328,-10.68145 -5.49951,-3.1465 -5.49951,-3.1465 -2.96721,-2.49675 L 706,747.82221 v -10.80194 -10.80194 l 9,-5.32812 9,-5.32813 v -9.65892 -9.65893 l -8.10306,-4.87211 -8.10305,-4.87212 -0.14695,-11.11099 -0.14694,-11.11099 8.5,-4.94438 8.5,-4.94439 0.5,-10.33738 0.5,-10.33739 8.5,-5.10724 8.5,-5.10724 0.3109,-10.5 0.3109,-10.5 9.53951,-5.72402 9.53952,-5.72403 c 15.7433,12.0168 0.16885,-0.12828 15.79917,12.12296 l 0.11831,8.16255 0.11832,8.16254 0.0802,4.72693 c 16.58163,11.11728 -0.0143,0.0325 16.68313,11.08305 l 0.009,5.59501 0.009,5.59501 0.61845,5.14741 0.61845,5.14742 2.62286,1.18422 2.62286,1.18421 5.25,3.47183 5.25,3.47182 v 7.82154 7.82155 l 0.64219,3.21095 0.64219,3.21095 1.60781,0.5543 1.60781,0.5543 6.75,4.08981 6.75,4.08981 v 10.72736 10.72735 l 6.53844,3.25407 6.53844,3.25407 1.96156,1.82747 1.96156,1.82747 0.0318,9.21105 0.0318,9.21104 1.21819,1.53741 1.2182,1.5374 4.5873,2.6594 4.5873,2.6594 3.1627,2.9544 3.1627,2.95441 v 9.61896 9.61896 l 7.25,4.61442 7.25,4.61442 1.25,1.55654 1.25,1.55654 v 9.19018 9.19018 l 3.25,2.47048 3.25,2.47047 3.5,1.76519 3.5,1.76519 2.25,2.05734 2.25,2.05734 v 8.97976 8.97975 l 4.19774,3.59593 4.19773,3.59593 5.05227,3.2244 5.05226,3.22441 0.64215,0.0256 0.64215,0.0256 8.00199,-4.5 8.00199,-4.5 h 1.62101 1.62101 l 5.73485,3.15632 5.73485,3.15631 1.25,1.53482 1.25,1.53481 0.0192,10.05887 0.0191,10.05887 c 20.13727,10.40742 0.0106,0.12607 20.17359,10.4599 16.99131,-9.96597 -0.93302,0.0207 16.84325,-10.02684 15.09739,11.23278 0.0814,0.37054 15.06389,11.23585 0.438,20.1384 0.1271,-1.74755 0.3664,18.14061 17.828,11.64472 0.051,0.0796 17.7659,11.69047 19.9566,-9.09422 0.097,0.1274 19.8783,-9.22882 l 7.5517,4.61441 7.5517,4.61441 h 2.0453 2.0453 l 7.7776,-4.55971 7.7777,-4.55971 7.7893,4.55971 7.7894,4.55971 h 2.8464 2.8465 l 6.8489,-4 6.8489,-4 h 0.6507 0.6507 l 6.733,4 6.733,4 3.9419,-0.004 3.9418,-0.004 3.5,-2.10154 3.5,-2.10155 3.0684,-1.86403 3.0684,-1.86403 6.7925,3.96932 6.7925,3.96931 4.1391,-0.003 4.1391,-0.003 6.5,-3.92965 6.5,-3.92965 4.5,2.58803 4.5,2.58802 1.9725,1.34465 1.9725,1.34464 h 5.2058 5.2059 l 6.045,-3.60098 6.0449,-3.60099 6.4392,3.60099 6.4392,3.60098 h 4.7067 4.7067 l 5.7616,-3.5 5.7616,-3.5 h 1.0656 1.0656 l 5.9719,3.5 5.9718,3.5 5.3318,-0.003 5.3317,-0.003 5.8727,-3.5412 5.8728,-3.54119 5.9489,3.54377 5.9489,3.54376 h 5.0355 5.0355 l 6.7221,-3.67615 6.722,-3.67615 6.0516,3.67615 6.0516,3.67615 4.3692,-0.0572 4.3692,-0.0573 7,-4.3381 7,-4.3381 0.6759,-4.35465 0.6759,-4.35466 0.074,-5.66111 0.074,-5.6611 3.0246,-2.54505 3.0246,-2.54504 4.9744,-2.79385 4.9744,-2.79385 0.1571,-2.5 0.1571,-2.5 0.094,-6.64195 0.094,-6.64195 1.905,-2.10805 1.905,-2.1067 h 0.8603 0.8603 l 6.864,-4.9924 6.8639,-4.9924 -0.3973,-8.03954 -0.3974,-8.03955 0.9984,-1.86544 0.9983,-1.86544 6.5542,-3.60261 6.5541,-3.60262 h 1.3862 1.3861 l 0.6198,-2.82216 0.6199,-2.82216 -0.2904,-7.2595 -0.2904,-7.2595 3.1841,-2.66834 3.1841,-2.66834 5.5659,-3.90753 5.5659,-3.90753 v -9.30351 -9.30352 l 2.0195,-1.88141 2.0194,-1.88141 5.9054,-3.40755 5.9055,-3.40754 1.0751,-4.19282 1.0751,-4.19282 V 742.30718 736.5 l 1.8848,-3.09096 1.8849,-3.09096 4.3614,-2.25164 4.3614,-2.25165 2.3469,-2.15739 2.3468,-2.1574 -0.655,-6.72621 -0.6551,-6.72621 1.5571,-3.27379 1.5571,-3.27379 6.006,-2.92661 6.0059,-2.92661 1.6504,-1.82372 1.6505,-1.82372 0.3955,-8.56828 0.3956,-8.56828 0.9126,-2.40042 0.9127,-2.40043 6.7865,-3.44319 6.7865,-3.44319 1.4341,-2.33777 1.434,-2.33778 0.2921,-8.29612 0.292,-8.29612 0.8658,-1.54696 0.8657,-1.54696 7.3939,-3.78786 7.394,-3.78785 0.7727,-3.36906 0.7727,-3.36907 -0.574,-6.11812 -0.5739,-6.11812 2.3154,-2.559 2.3155,-2.55899 7.3459,-4.49311 7.346,-4.4931 7.2807,4.42022 7.2807,4.42022 h 0.7345 0.7344 l 8.3032,-5.01534 8.3031,-5.01534 8.3358,5.01343 8.3357,5.01343 0.8692,0.002 0.8692,0.002 6.1308,-3.68341 6.1308,-3.68341 2.0352,-1.29089 2.0353,-1.29089 8.4647,5.1187 8.4648,5.1187 1,0.0188 1,0.0188 8.2408,-4.79283 8.2408,-4.79284 9.1847,5.30084 9.1848,5.30083 4.0744,-2.33108 4.0745,-2.33108 3.7846,-2.37453 3.7846,-2.37453 -0.2846,-10.17463 -0.2846,-10.17464 -8,-4.70291 -8,-4.70292 -0.5,-10.79362 -0.5,-10.79362 -8.25,-4.91656 -8.25,-4.91655 0.024,-11.12789 0.024,-11.12788 8.9762,-5.29335 8.9761,-5.29336 v -9.38673 -9.38674 l -9.0485,-5.22222 -9.0486,-5.22222 0.5486,-1.42948 0.5485,-1.42947 v -9.84489 -9.84489 l 1.2778,-0.32333 1.2777,-0.32332 7.71,-4.5 7.71,-4.5 0.012,-10.16293 0.012,-10.16292 8.9993,-5.33708 8.9994,-5.33707 6e-4,-10.18009 7e-4,-10.18009 -9,-5.1942 -9,-5.19421 v -10.25359 -10.25359 l -8.25,-4.91821 -8.25,-4.91821 -0.2808,-11.59977 -0.2809,-11.59977 4.2809,-2.08009 4.2808,-2.08009 5.3373,-3.52404 5.3373,-3.52405 h 0.3592 0.3592 l 7.8035,4.99987 7.8035,4.99986 1.2675,1.4e-4 1.2676,1.3e-4 7.9061,-4.90354 7.9062,-4.90354 8.3263,4.88049 8.3263,4.8805 0.7675,0.023 0.7676,0.0231 8.0617,-5 8.0616,-5 h 0.3743 0.3743 l 10.0132,6.04898 10.0131,6.04899 0.2834,10.61404 0.2833,10.61404 8.25,5.06088 8.25,5.06088 v 10.64677 10.64677 l 7.1649,4.1482 7.165,4.14819 9.0355,-5.13731 9.0355,-5.13732 1.5495,1.08854 1.5496,1.08855 8.222,4.7799 8.222,4.7799 0.028,10.73746 0.028,10.73745 3.75,2.35269 3.75,2.35268 4.105,2.34865 4.105,2.34865 8.2758,-4.68879 8.2759,-4.68879 h 1.1651 1.1652 l 7.2988,4.5 7.2987,4.5 h 1.1762 1.1761 l 7.7227,-4.52067 7.7226,-4.52066 2.4449,0.61361 2.4448,0.61362 6.7099,4.40705 6.7098,4.40705 0.6018,-7.3e-4 0.6017,-7.2e-4 8.4862,-5.04841 9.6909,-5.71768 c 8.6068,5.61358 0.085,-0.13016 17.7149,11.71129 l -0.2796,9.60699 -0.2796,9.60699 c 19.2151,13.02052 12.7831,8.7517 19.2309,13.03819 l -0.2819,11.01395 -0.2818,11.01396 -8,4.83632 -8,4.83633 -0.5,10.77664 -0.5,10.77664 -9,5.26226 -9,5.26227 -1.6552,0.0128 -1.6553,0.0129 -7.2987,-4.5 -7.2988,-4.5 h -1.0669 -1.0669 l -7.7291,4.52443 -7.7291,4.52444 0.018,9.22556 0.018,9.22557 8.4818,4.96401 8.4818,4.96401 v 11.71084 11.71084 l -9,5.1503 -9,5.1503 v 9.19122 9.19122 l 5.75,3.37751 5.75,3.37752 3.2153,2.38053 3.2153,2.38053 0.2847,10.15514 0.2847,10.15514 7.1721,4.34623 7.172,4.34623 7.828,-4.71645 7.8279,-4.71646 0.7195,-1.05933 0.7195,-1.05933 2.2805,1.41776 2.2805,1.41777 7.1232,4.39907 7.1232,4.39907 6.8768,-4.17852 6.8768,-4.17852 1.6089,-1.41563 1.6089,-1.41563 5.0405,3.27732 5.0405,3.27731 4.8506,3 4.8506,3 0.2858,10.5 0.2859,10.5 6.11,3.5 6.11,3.5 2.3542,1.82258 2.3541,1.82258 v 10.31345 10.31346 l 6.9248,4.11396 6.9249,4.11397 1.3251,-0.0113 1.3252,-0.0113 7.5,-4.47743 7.5,-4.47743 0.8611,-0.0113 0.8611,-0.0113 8.4103,5.08003 8.4102,5.08002 6.5178,-3.58262 6.5178,-3.58262 2.2184,-1.45359 2.2185,-1.4536 9.7424,5.65405 9.7424,5.65405 0.01,10.05214 0.01,10.05214 9.2433,5.5 9.2432,5.5 0.306,10.5 0.3061,10.5 9.0477,5.5 9.0477,5.5 -0.5955,7.5 -0.5956,7.5 0.8121,2.99369 0.812,2.9937 8.1798,4.87842 8.1797,4.87842 v 10.36534 10.36534 l 3.75,2.35269 3.75,2.35268 4,2.28245 4,2.28245 7.2204,-4.3496 7.2204,-4.3496 0.599,-2.72724 0.599,-2.72723 -0.2723,-7.31289 -0.2724,-7.31288 0.762,-1.23287 0.7619,-1.23287 h 1.0065 1.0065 l 8.3162,-4.91201 8.3162,-4.91202 9.0574,5.42987 9.0574,5.42987 8.4954,-5.01786 8.497,-5.01793 h 0.4863 0.4863 l 8.0616,5 8.0617,5 h 0.4869 0.4868 l 8.5547,-5.05286 8.5547,-5.05285 9.726,5.86639 9.726,5.86639 0.5,10.7946 0.5,10.7946 8,4.72256 8,4.72255 0.5,10.81185 0.5,10.81184 8.4582,5.10746 8.4581,5.10747 -0.286,10.18827 -0.2861,10.18828 3.8279,2.40187 3.8279,2.40186 4.125,2.36017 4.125,2.36017 8.7013,-5.20031 8.7012,-5.20031 h 0.4597 0.4597 l 8.964,5.23956 8.9641,5.23955 v 10.71709 10.71709 l 8.9761,5.29336 8.9762,5.29335 0.024,10.68897 0.024,10.68897 8.6328,5.34139 8.6327,5.34139 -0.1878,10.11131 -0.1878,10.11132 7.5905,4.60832 7.5905,4.60833 0.7146,-0.002 0.7145,-0.002 8.3102,-4.99809 8.3102,-4.99809 h 0.6242 0.6242 l 8.8156,5.21896 8.8156,5.21896 v 10.71099 10.71097 l -7.5,4.1401 -7.5,4.1401 c -0.047,24.438 -0.071,0.035 -0.1776,24.378 l -11.3885,5.7349 -7.9339,4.5044 -0.2567,10.3713 -0.2566,10.3713 8.5066,4.964 8.5067,4.964 v 10.7014 10.7013 l -9.1372,5.0847 -9.1373,5.0846 h -0.6583 -0.6584 l -7.4544,-4.4833 -7.4544,-4.4834 -1.5,-0.01 -1.5,-0.01 -7.8651,4.4925 -7.865,4.4926 h -0.8023 -0.8023 l -7.6115,-4.5 -7.6114,-4.5 h -1.3923 -1.3924 l -8.4097,4.8568 -8.4098,4.8568 -4.4191,-2.4378 -4.4191,-2.4378 -3.8043,-2.4692 -3.8044,-2.4691 -2.1956,0.6962 -2.1957,0.6963 -3.7301,2.3539 -3.7302,2.3539 h -0.6155 -0.6155 l -2.7168,1.9346 -2.7169,1.9346 -8.1881,-4.9346 -8.188,-4.9346 -1.2495,0.01 -1.2494,0.01 -2.5,1.3146 -2.5,1.3146 -5.8182,3.2473 -5.8182,3.2472 -8.0626,-4.568 -8.0627,-4.568 h -1.6734 -1.6733 l -4.5114,2.75 -4.5113,2.75 -1.9344,1.2564 -1.9345,1.2563 -1.2881,0.6153 -1.288,0.6152 -7.2926,-4.5005 -7.2926,-4.5004 -2.0764,-0.6591 -2.0765,-0.659 -7.6755,4.5379 -7.6756,4.5379 h -1.7825 -1.7825 l -2.3848,-1.8117 -2.3849,-1.8118 -4.6781,-2.6882 -4.678,-2.6883 h -1.4893 -1.4893 l -7.6115,4.5 -7.6114,4.5 -1.2212,-0.075 -1.2212,-0.075 -8.3382,-5.1749 -8.3382,-5.175 v -11 -11 l 8.3305,-5.0054 8.3304,-5.0053 0.6406,-2.9947 0.6406,-2.9946 0.1183,-6.5863 0.1183,-6.5863 -8.75,-5.179 -8.75,-5.1791 0.1301,-11.5761 0.1301,-11.5761 7.8699,-4.4747 7.8699,-4.4748 0.8724,-0.8562 0.8723,-0.8561 -0.052,-9.82765 -0.052,-9.82763 8.9299,-5.36001 8.9298,-5.36001 -0.023,-10.13999 -0.023,-10.13999 -7.7269,-4.5501 -7.7269,-4.55011 -8.3029,4.95734 -8.3029,4.95734 0.1793,10.44531 0.1793,10.44532 -9.1237,5.14745 -9.1238,5.14745 v 10.64921 10.64917 l -9.25,5.375 -9.25,5.375 -0.1413,9.9758 -0.1413,9.9758 -8.8587,5.2058 -8.8587,5.2057 -0.5,10.7891 -0.5,10.7891 -8,4.6775 -8,4.6775 -1.1737,0.078 -1.1738,0.078 -8.4276,-5.0368 -8.4276,-5.0367 -8.3987,4.8375 -8.3986,4.8375 -0.2829,10.0123 -0.2829,10.0123 -8.7171,4.972 -8.7171,4.9721 -0.2815,10.4879 -0.2816,10.4878 -8.9771,4.9771 -8.9771,4.977 0.2587,9.986 0.2586,9.9859 8.2183,5.0141 8.2184,5.014 0.2816,10.4752 0.2817,10.4753 7,4.2839 7,4.2838 1.5,1.2637 1.5,1.2636 -0.3288,10.9773 -0.3288,10.9772 -7.6479,4.75 -7.648,4.75 h -1.8872 -1.8873 l -7.2199,-4.5 -7.22,-4.5 -1.416,0.022 -1.4161,0.022 -2.5,1.9555 -2.5,1.9555 c -6.5145,5.2546 5.0115,-3.9283 -6.3039,5.0775 l -4.2242,-0.034 h -1.5639 l -7.2417,-4.4648 -7.2417,-4.4648 -1.2123,-0.2777 -1.2123,-0.2777 -8.0879,4.7425 -8.0879,4.7425 h -0.6057 -0.6058 l -9.5563,-5.5949 -9.5564,-5.5948 -0.01,-10.6552 -0.01,-10.6551 -4.2423,-2.3806 -4.2423,-2.3807 -4.2135,-2.6193 -4.2135,-2.6194 -0.072,-10.5 -0.072,-10.5 -7.9366,-4.7743 -7.9366,-4.7743 -5.7779,3.2017 -5.778,3.2018 -2.8373,1.9528 -2.8373,1.9528 0.3373,10.2785 0.3373,10.2786 -3.5,1.8163 -3.5,1.8163 -5.75,3.5221 -5.75,3.522 v 9.2529 l 0.051,5.9817 -5.2021,3.2654 -7.1744,4.1397 -7.1745,4.1397 -1.75,1.5153 -1.75,1.5153 -0.01,9.595 -0.01,9.595 -8.514,5.25 -8.514,5.25 h -1.3222 -1.3222 l -6.0915,-3.9371 -6.0915,-3.9372 -0.3136,-10.884 -0.3135,-10.8839 8.75,-4.8323 8.75,-4.8323 v -10.6166 -10.6165 l -7.1782,-4.4294 -7.1781,-4.4295 -1.5991,0.1205 -1.599,0.1204 -7.4296,4.5807 -7.4297,4.5807 -1.8231,-0.5787 -1.8231,-0.5786 -7.1502,-4.4084 -7.1503,-4.4084 -6.5698,3.6541 -6.5698,3.6541 -1.7184,1.052 -1.7184,1.052 -0.2816,10.4828 -0.2816,10.4828 -9,5.5978 -9,5.5978 -0.1468,9.8143 -0.1469,9.8142 -6.1433,3.8843 -6.1434,3.8844 h -0.7712 -0.7713 l -2.1885,2.039 -2.1886,2.0389 v 9.8795 9.8795 l -3.25,1.9548 -3.25,1.9547 -6,3.2342 -6,3.2341 -9.2312,-5.3573 -9.2313,-5.3574 -0.019,-10.6629 -0.019,-10.663 -8.9993,-5.337 -8.9994,-5.3371 -6e-4,-10.5422 -7e-4,-10.5422 -6.75,-3.8766 -6.75,-3.8766 -1.75,-1.4862 -1.75,-1.4862 v -10.3324 -10.3325 l -4.0996,-2.5879 -4.0995,-2.588 -4.4797,-2.5009 -4.4796,-2.501 -3.1708,1.6267 -3.1708,1.6267 -4.5,2.8711 -4.5,2.871 -1.5,0.062 -1.5,0.062 -7.4544,-4.4834 -7.4544,-4.4833 h -1.0912 -1.0912 l -7.4544,4.4833 -7.4544,4.4834 -1.4125,0.017 -1.4124,0.017 -5.0876,-3.1537 -5.0875,-3.1536 -3.75,-2.4824 -3.75,-2.4823 v -10.2587 -10.2587 l -8.25,-4.9434 -8.25,-4.9434 -0.2834,-10.6149 -0.2833,-10.615 -8.4667,-5.114 -8.4666,-5.1141 v -10.262 -10.262 l 8.25,-4.9539 8.25,-4.9539 0.5,-9.1471 0.5,-9.1471 3.7776,-2.5585 3.7776,-2.5585 2.7224,-1.4265 2.7224,-1.4266 2.25,-2.1238 2.25,-2.1238 v -8.5107 l -0.142,-11.3029 c -15.8524,-11.8762 0.1732,-0.05 -15.9034,-12.0631 -17.7185,11.9448 0.1483,-0.01 -17.6634,11.779 l -9.3144,-4.9958 -9.3144,-4.9958 c -14.7445,11.1577 0.1864,0.071 -14.6624,10.9034 v 7.4262 7.4263 l -8.669,6.4556 -8.6689,6.4557 -1.8311,0.9871 -1.831,0.9872 v 9.2628 9.2629 h 1.1211 1.1212 l 8.8788,5.1243 8.8789,5.1243 v 10.2982 10.2982 l 8.4673,5.1926 8.4674,5.1926 0.2826,10.5794 0.2827,10.5794 8,4.7934 8,4.7933 0.6924,3.7622 0.6923,3.7621 0.058,7.1279 0.058,7.1279 8.25,4.9179 8.25,4.9179 0.2829,10.6127 0.2829,10.6127 -2.7829,1.9305 -2.7829,1.9305 -6.25,3.3918 -6.25,3.3918 v 10.6372 10.6371 l -8.9833,5.3821 -8.9833,5.382 -0.017,10.031 -0.017,10.0311 -9.1717,5.4689 -9.1717,5.469 -0.7946,0.3221 -0.7946,0.3221 -8.2419,-5.0721 -8.2419,-5.0721 h -1.2849 -1.2849 l -7.231,4.5 -7.2311,4.5 h -1.3458 -1.3458 l -7.6801,-4.6647 -7.68,-4.6648 -1,0.01 -1,0.01 -7.2869,4.3789 -7.2868,4.3789 -0.5434,2.1652 -0.5435,2.1653 0.3303,8.362 0.3303,8.362 -8.8589,5.25 -8.8589,5.25 h -1.6953 -1.6953 l -4.4458,-2.7613 -4.4458,-2.7614 -3.5589,-1.8631 -3.5589,-1.8632 -3.1635,1.6359 -3.1635,1.6359 -3.7045,2.514 -3.7045,2.5139 -2.1534,0.5405 -2.1534,0.5404 -8.3451,-5.0164 -8.345,-5.0165 -0.5747,0.3167 -0.5746,0.3167 -8.1235,4.6485 -8.1235,4.6485 -1.8765,-0.7645 -1.8765,-0.7646 -7.1385,-4.2977 -7.1385,-4.2978 -8.6432,5.1052 -8.6432,5.1052 -4.2183,-2.4702 -4.2183,-2.4701 -5.1859,-2.7637 -5.1859,-2.7638 -0.6222,-2.4791 -0.6222,-2.4791 0.2058,-8.5549 0.2057,-8.5549 -8.6476,-5.3506 -8.6477,-5.3506 -0.032,-10.6889 -0.032,-10.689 -7.4451,-4.25 -7.4451,-4.25 -1.2728,0.073 -1.2728,0.073 -7,4.2171 -7,4.2171 -0.2886,9.9035 -0.2885,9.9035 -1.0918,1.3155 -1.0917,1.3155 -7.8697,4.6812 -7.8697,4.6812 v 10.2863 10.2862 c -20.0965,11.3837 -13.0048,8.2721 -20.1107,11.3482 l -7.7586,-4.4484 -6.9067,-4.3537 -1.8361,-1.0926 -1.8361,-1.0927 -0.026,-10.2591 -0.026,-10.2591 c -5.0163,-3.7247 -9.0635,-5.8803 -15.6337,-10.028 -18.9375,9.4242 0.3888,-0.042 -18.5106,9.2281 l -4.7118,-2.0513 -4.1439,-2.1459 -4.315,-2.6497 -4.315,-2.6498 0.4894,-9.3256 0.4893,-9.3257 -1.8056,-1.6743 -1.8056,-1.6744 -2.3688,-1.8055 -2.3687,-1.8055 -5.25,-3.0179 -5.25,-3.0179 -0.01,-10.6766 -0.01,-10.6766 -3.7417,-2.105 -3.7418,-2.1049 -4.783,-2.749 -4.7829,-2.7489 -7.9671,4.8516 -7.967,4.8517 v 10.1851 10.1852 l -8.25,5.002 -8.25,5.0021 -1.75,2.0765 -1.75,2.0765 v 9.3052 9.3053 l -9.2344,4.5556 -9.2345,4.5556 -7.4871,-5.0523 -7.4871,-5.0523 -9.4098,5.0371 -9.4098,5.0372 0.1884,10.1428 0.1885,10.1429 c -18.1263,9.0185 -1.1258,0.2756 -19.2512,9.4745 l 0.051,4.0255 0.294,9 0.2941,9 -6.01031,3.5 -6.01031,3.5 -2.62514,1.3577 -2.62515,1.3577 c -0.0628,20.3967 -0.0395,-0.1595 10e-4,20.4035 -18.18254,10.8757 -0.0349,0.022 -18.18049,10.8811 -18.94253,-10.535 -0.008,0.1486 -19.0491,-10.637 v -10.9573 -10.9574 c -17.02706,-9.5268 -7.48815,-4.2654 -16.9846,-9.4505 l -0.008,-10.6625 -0.008,-10.6625 -7.99909,-4.6138 -7.99909,-4.6139 -7.41381,4.0689 -7.4138,4.069 -1.04855,1.2634 -1.04856,1.2634 -0.28855,9.8337 -0.28855,9.8338 -8.75,4.9732 -8.75,4.9733 v 10.7018 10.7018 c -18.95383,10.7439 -0.20641,0.052 -19,10.6914 z"
   />
</svg>
