<?xml version="1.0" encoding="UTF-8" standalone="no"?>
<!-- Created with Inkscape (http://www.inkscape.org/) -->

<svg
   version="1.1"
   id="svg1"
   width="2952"
   height="3680"
   viewBox="0 0 2952 3680"
   xmlns="http://www.w3.org/2000/svg"
   xmlns:svg="http://www.w3.org/2000/svg">
   <path
      d="m 1245.4336,1761.5792 c -17.5622,-9.9301 0.01,-0.09 -17.4989,-9.8076 l 0.2826,-10.5658 0.2827,-10.5658 8.5,-5.245 8.5,-5.2449 1.2778,-0.8875 1.1945,0.7375 8.5138,5.106 8.5139,5.1059 v 10.7967 10.7968 c -19.3536,9.6419 -0.045,0.02 -19.5664,9.7737 z m 44.7846,-35.3664 -9.2819,-5.6043 0.2819,-10.5118 0.2818,-10.5117 8.5,-5.1977 8.5,-5.1977 0.5,-10.1217 0.5,-10.1216 -8.2472,-4.9259 -8.2471,-4.9259 -8.2529,4.7537 -8.2528,4.7536 -0.3109,10.4491 -0.3109,10.4491 -9.314,5.5871 -9.314,5.5872 -8.8384,-5.3101 -8.8384,-5.31 -3.5367,2.0765 -3.5367,2.0766 -5.2183,3.1111 -5.2184,3.111 -0.2816,10.4247 -0.2817,10.4247 -8.7467,4.9717 -8.7467,4.9717 -9.0033,-5.33 -9.0033,-5.3301 0.034,-11.0311 0.034,-11.031 8.7162,-5.061 8.7162,-5.0609 0.2821,-10.5183 0.2821,-10.5183 8.5022,-4.7343 8.5022,-4.7343 -0.2843,-10.1311 -0.2843,-10.1312 -8,-4.7942 -8,-4.7941 -0.5,-11.2612 -0.5,-11.2611 c -17.5209,-9.9233 -0.047,-0.042 -17.5152,-9.9248 0.1097,-21.575 0.027,0.018 0.096,-21.5601 l 7.8694,-4.1916 7.4496,-3.9484 2.5282,-1.5682 v -2.0369 l 0.2879,-9.8137 0.2878,-9.8137 8.6847,-5.2589 8.6848,-5.259 8.8152,5.9171 8.8153,5.9172 1.0237,0.7762 0.9763,-0.7382 8.3102,-4.9981 8.3102,-4.9981 0.9809,-0.6271 0.8863,0.6034 1.583,1.187 2.4348,1.7312 6.0371,3.9784 6.3446,3.8363 6.754,-4.3691 6.754,-4.3691 3.7489,-2.2873 1.856,1.1676 7.7283,5.0963 7.7284,5.0964 2.2716,-1.2452 2.2717,-1.2452 6.3683,-3.9713 6.3683,-3.9714 3.3231,1.9446 3.323,1.9445 5.0576,3.1768 5.0577,3.4419 0.016,9.3813 0.016,10 0.032,1.0918 1.4374,1.0583 8.4413,5.1646 8.4414,5.1646 2.5586,-1.6806 2.5587,-1.6806 6.7358,-3.8873 6.7357,-3.8873 3.0483,1.8463 2.8588,1.8699 5.7211,3.4275 6.0997,3.3092 2.9003,-1.5265 2.9003,-1.5265 5.75,-3.1968 5.75,-3.1968 v -10.7699 l -0.059,-11.3886 c 17.7449,-9.8891 -0.01,0.084 17.7795,-9.7922 16.2489,10.2485 -0.02,0.063 16.2794,10.4109 v 10.2336 10.2335 l 8.0548,4.1906 8.0549,4.1906 1.9034,1.0693 -0.013,3.9026 -0.012,8.6849 -0.012,8.6849 -9.0477,5.3508 -9.0477,5.3507 c -16.7898,-10.8636 -0.085,0.082 -15.6418,-10.2015 l -1.1892,-0.7071 -1.1891,0.7071 -7.413,4.5 -7.4131,4.5 -0.9407,0.4419 -0.9408,-0.4419 -8.5288,-5.0973 -8.5289,-5.0972 -9.0474,5.2215 -9.0474,5.2216 -0.015,10.1257 -0.015,10.1257 -0.016,1.0788 -1.4535,1.0268 -4,2.4452 -4,2.4453 -4,2.1506 -3.25,2.1506 -0.1667,10.7045 -0.083,8.3295 18,11.7482 v 11.6725 9.7975 c -18.5715,10.4966 -0.037,-0.026 -18.5,10.4983 v 10.6892 10.6893 l -8.4484,4.7868 -8.4483,4.7869 -0.7533,0.3172 -0.7534,0.3173 -8.7388,-5.1617 -8.7387,-5.1616 -3.0596,1.5416 -3.0595,1.5415 -6,3.4614 -6,3.4615 z"
  />
</svg>
