<svg
   version="1.1"
   id="svg1"
   width="2952"
   height="3680"
   viewBox="0 0 2952 3680"
   xmlns="http://www.w3.org/2000/svg"
   xmlns:svg="http://www.w3.org/2000/svg">
   <path
      d="m 1596.5,2140.6023 -8.7333,-5.0511 -8.7333,-5.0512 -0.017,-11.5587 -0.017,-11.5587 8.4672,-4.8929 8.4673,-4.8929 0.2827,-9.9436 0.2828,-9.9437 c 17.7352,-10.4679 -0.041,-0.047 17.937,-10.6541 18.1164,9.925 0.025,0.048 18.063,9.9938 l 0.5,11.1648 0.5,11.1647 7.7807,4.5352 7.7806,4.5353 0.121,10.9794 -0.1469,10.9795 -8.5602,4.7837 -8.0247,4.7838 c -17.438,-10.3529 -0.1291,-0.085 -17.4843,-10.3203 -18.4754,10.9129 0.074,-0.042 -18.4656,10.947 z"
   />
</svg>
