<?xml version="1.0" encoding="UTF-8" standalone="no"?>
<!-- Created with Inkscape (http://www.inkscape.org/) -->

<svg
   version="1.1"
   id="svg1"
   width="2952"
   height="3680"
   viewBox="0 0 2952 3680"
   xmlns="http://www.w3.org/2000/svg"
   xmlns:svg="http://www.w3.org/2000/svg">
   <path
      d="m 1509.6891,1921.906 -1.3443,-0.906 -7.9224,-4.7719 -7.4584,-4.7719 -0.035,-1.9781 0.031,-1.9781 0.2814,-9.9839 0.2815,-9.9839 7.7389,-4.3666 7.739,-4.3667 v -10.6601 -10.66 l -8.0102,-4.8004 -8.0102,-4.8003 -8.4898,5.1281 -8.4898,5.128 v 8.7107 8.7106 l -2.25,1.9354 -2.25,1.9354 -7,4.2366 -7,4.2366 -3.5,-2.0607 -3.5,-2.0607 -6.2308,-3.639 -6.2309,-3.6391 -0.019,-9.655 -0.019,-9.655 -4.75,-2.7301 -4.75,-2.7301 -3.25,-2.4158 -3.25,-2.4158 0.019,-9.6991 0.019,-9.6991 9.5929,-6.1625 9.5929,-6.1624 4.6383,2.5721 4.6383,2.5721 4.405,2.2247 4.4049,2.2248 7.2217,-4.3844 7.2217,-4.3844 1.3437,-0.7734 1.3436,0.7734 8.2515,5.0602 8.2514,5.0602 9.0044,-5.3102 9.0044,-5.3102 0.024,-10.1829 0.024,-10.1829 8.3889,-5.0671 8.3889,-5.0671 1.3991,-0.8618 1.3549,0.8618 7.9391,4.9197 7.9391,4.9196 c 17.8646,-10.766 0.146,0.083 17.6833,-10.8424 l 2.7033,1.5247 2.7034,1.5247 5,2.9726 5,2.9726 1.0594,0.5381 1.0594,0.5381 8.1906,-4.6405 8.1906,-4.6405 v -10.2983 -10.2983 l 7.75,-4.5365 7.75,-4.5365 1.6837,-0.6401 1.6837,-0.6401 9.0663,5.2882 9.0663,5.2882 v 10.1483 10.1482 l 7.75,4.7996 7.75,4.7996 h 1 1 l 7.6266,-4.6513 7.6267,-4.6513 1.239,-0.7071 1.3716,0.7071 8.8293,5.25 8.8292,5.25 -0.1337,10.8524 -0.1337,10.8523 8.6157,5.1477 8.6158,5.1476 -0.2433,10.43 -0.2432,10.43 -8.5,5.245 -8.5,5.2449 -1.2675,0.075 -1.2676,0.075 -8.0774,-5.0098 -8.0774,-5.0097 -8.4051,5.0769 -8.405,5.0768 v 9.8789 9.8789 l 8.25,4.8411 8.25,4.841 0.2779,10.9629 0.2778,10.963 -9.1166,5.3229 -9.1167,5.3229 -1.1612,-0.5072 -1.1612,-0.5073 -8,-4.8698 -8,-4.8697 -0.5,-10.784 -0.5,-10.7839 -8,-4.7031 -8,-4.7031 -0.2833,-10.6542 -0.2833,-10.6541 -7.5021,-4.5547 -7.5022,-4.5547 -0.8857,-0.5625 -0.8857,0.5625 -8.7009,5.025 -8.701,5.0249 -8.7543,-5.4408 -8.7542,-5.4409 -8.3737,4.7898 -8.3736,4.7897 -0.1537,10.7403 -0.1536,10.7402 -8.5964,5.1132 -8.5963,5.1131 -0.051,10.5228 -0.051,10.5227 -8.9323,5.25 -8.9323,5.25 z m 229.8109,-93.2488 -5,-3.2452 -5,-3.2451 -3.75,-2.574 -3.75,-2.5739 v -10.4424 -10.4424 l 8.3889,-5.0671 8.3889,-5.0671 1.2522,-0.9375 1.3772,0.9375 7.7394,4.7131 7.9582,4.713 0.088,11.537 -0.1306,11.5369 c -17.5974,10.1859 -0.1122,0.021 -17.5625,10.1572 z m -299.9051,-33.4179 -0.4475,-0.3592 c -18.1209,-13.4375 0.077,0.1085 -18.0365,-13.3589 v -10.9115 -10.9115 l 8.3908,-5.1273 8.3906,-5.1272 1.3916,-0.8605 1.3918,0.8605 8.7755,5.4873 8.7754,5.4874 8.9095,-5.4874 8.9093,-5.4873 1.4216,-0.8452 1.3222,0.8452 9.3516,5.6795 9.3518,5.6797 -0.2613,11.2833 -0.2612,11.2834 c -20.6025,11.4518 -0.011,-0.048 -20.6137,11.5104 -16.9407,-11.6986 0.011,-0.095 -17.1216,-11.8101 l -9.5504,5.9049 -9.505,5.9179 z m 124.3167,-30.4139 -1.4116,-0.9723 -6.6365,-4.1781 -6.6364,-4.1782 -1.6136,-1.3724 -1.6135,-1.3725 v -10.3104 -10.3105 c 5.9559,-3.6963 12.1014,-7.5811 18.0121,-11.3485 19.4861,10.7243 0.017,0 19.4879,10.7143 l -0.5,10.9321 -0.5,10.9321 -8.5,5.2429 -8.5,5.2428 z"
   />
</svg>
