<svg
   version="1.1"
   id="svg1"
   width="2952"
   height="3680"
   viewBox="0 0 2952 3680"
   xmlns="http://www.w3.org/2000/svg"
   xmlns:svg="http://www.w3.org/2000/svg">
   <path
      d="m 954.76672,2130.5512 -8.73329,-5.0512 -0.0167,-11.5587 -0.0167,-11.5587 8.46724,-4.8929 8.79853,-4.8929 c 0.21451,-19.7894 0.0457,0.1348 0.23423,-19.8873 18.43822,-10.7232 0.0394,0.083 18.41156,-10.8199 17.58736,10.2569 -0.0167,-0.048 17.58844,10.1596 -0.26583,20.5702 0.006,-0.6844 -0.27163,20.5893 16.8554,8.6715 0.0123,-0.02 16.8329,9.2714 l -0.2806,12.5187 -0.2807,10.9795 -8.0248,4.7837 -8.02468,4.7838 c -18.1464,-10.2687 0.0485,0.1203 -18.22047,-10.3203 l -8.86501,5.4735 -8.86501,5.4735 z"
   />
</svg>

