<svg
   version="1.1"
   id="svg1"
   width="2952"
   height="3680"
   viewBox="0 0 2952 3680"
   xmlns="http://www.w3.org/2000/svg"
   xmlns:svg="http://www.w3.org/2000/svg">
   <path
      d="m 1990.6828,2293.8239 -8.6828,-5.176 v -10.7806 -10.7806 l 8.9761,-5.2933 8.9762,-5.2934 0.024,-10.0104 0.024,-10.0105 -9,-5.2605 -9,-5.2606 v -10.431 -10.4309 l 4.25,-2.8626 4.25,-2.8626 4.75,-2.7276 4.75,-2.7276 v -9.8536 -9.8536 l -4.8375,-3.1043 -4.8376,-3.1042 c -7.0498,-4.2206 0.057,0.035 -7.0584,-4.1791 l -7.8832,4.8737 -7.8833,4.8737 -0.5,10.4218 -0.5,10.4219 -4,2.7133 -4,2.7134 -5.1166,2.7687 -5.1167,2.7688 -9.1333,-5.407 -9.1334,-5.4071 V 2183.531 2172.5 l 8.4968,-4.8638 8.4967,-4.8637 V 2153.3862 2144 l -0.016,-0.75 -0.016,-0.75 -8.6154,-5.2857 -8.6155,-5.2857 c -16.66,10.4765 -11.1411,7.0683 -16.7363,10.5657 l -0.01,10.5029 -0.01,10.5028 -8.6051,5.25 -8.605,5.25 -1.136,-0.038 -1.1359,-0.038 -8.5,-5.2548 -8.5,-5.2548 -0.282,-11.1298 -0.2821,-11.1298 c 18.3021,-9.9222 0.085,-0.045 18.2207,-9.8244 0.4575,-20.4181 -0.075,0 0.3434,-20.4902 l -7.2855,-4.4202 -7.2854,-4.4203 -1.0815,-0.6626 -1.1761,0.6626 -8.3357,4.6789 -8.3358,4.6789 v 10.1955 10.1955 l -8.5763,5.1256 -8.5762,5.1256 -0.9965,0.5187 -0.9965,-0.5187 -8.9275,-5.25 -8.9275,-5.25 0.2503,-10.8892 0.2502,-10.8892 8.75,-4.9738 8.75,-4.9738 v -10.3199 -10.3199 l -8.5,-5.1342 -8.5,-5.1342 v -10.8232 -10.8233 l 8.75,-4.8596 8.75,-4.8597 v -10.4518 -10.4518 l -8.25,-4.9203 -8.25,-4.9203 v -11.1713 -11.1712 l 8.9931,-5.2455 8.9932,-5.2455 2.2568,1.1673 2.2569,1.1674 7.217,4.4544 7.217,4.4545 0.283,10.667 0.283,10.6671 8.25,4.869 8.25,4.8689 -0.012,11.1311 -0.012,11.131 -8.7378,5.0568 -8.7377,5.0567 -0.2792,9.9433 -0.2792,9.9432 7.9377,4.75 7.9377,4.75 h 0.7026 0.7026 l 8.3545,-5.0463 8.3544,-5.0463 0.2844,-10.2037 0.2845,-10.2037 8,-4.7461 8,-4.7461 1.6198,-0.8992 1.8093,0.8992 7.4121,4.5 7.4121,4.5 1.099,0.5679 1.1936,-0.5679 8.0104,-4.6543 8.0103,-4.6543 -0.2833,-9.9382 -0.2833,-9.9383 -8.5,-5.2001 -8.5,-5.2001 -0.282,-11.1256 -0.282,-11.1256 9.0147,-5.0818 9.0146,-5.0817 0.9946,-0.6693 1.2623,0.6693 8.3889,5.0671 8.3889,5.0671 0.014,10.1829 0.014,10.1829 9.5155,5.4521 8.5115,5.2849 c 0.1169,7.9138 -0.088,-0.06 -0.1553,22.4839 l -1.7827,1.2716 -8.0584,4.7096 -8.0585,4.7096 -0.011,6.5404 -0.011,6.5404 -0.027,3.6752 -0.027,3.3406 -6.3142,3.8388 -5.1096,3.2364 -3.5561,2.1662 -3.5562,2.1663 -8.254,-4.9618 -8.2541,-4.9617 h -1.4043 -1.4044 l -7.5354,4.5749 -7.5355,4.5749 v 9.6857 9.6857 l 7.9085,4.7394 7.9085,4.7394 h 0.6262 0.6262 l 7.9306,-4.5 7.9306,-4.5 h 1.1458 1.1458 l 8.2919,5.0085 8.2918,5.0085 7.7243,-4.5667 7.7242,-4.5667 2.2771,-1.2755 7.9687,4.9885 7.5002,4.5535 9.1887,-5.2583 9.2834,-5.3056 3.4923,2.4138 6.7676,4.1564 6.7676,4.1564 1,0.5779 1,-0.5579 7.3395,-4.1634 7.3396,-4.1634 3.0524,-1.6564 3.0524,1.6564 6.3335,4 6.3336,4 2.0795,1.4508 -0.031,10.3098 v 11.7606 l -8.25,4.9894 c -9.6907,5.5509 0.1185,-0.2139 -9.9554,5.6288 l -9.7551,-5.5078 -8.998,-5.5078 c -17.1265,11.291 -0.1065,0.094 -17.1152,11.3187 l 0.1505,10.2787 0.1505,10.2788 c 16.832,8.7056 0.087,0.067 16.8683,8.6389 l 1.1313,-0.6389 6.8933,-4 7.0589,-4 2.8513,-1.822 2.8987,1.822 7.5354,4.5749 7.5355,4.5749 v 10.7111 10.7111 l 8.4818,4.964 8.4818,4.964 -0.01,11.5 -0.01,11.5 -8.0557,4.75 -8.0558,4.75 -1.454,0.9465 -1.4067,-0.9465 -8.9893,-5.5606 -8.9893,-5.5605 v -10.2488 -10.2487 l -8.0398,-4.7824 -8.3238,-5.2557 -3.1364,1.76 -6.75,4.0631 -6.75,4.0631 v 9.7912 9.7911 l 8.75,5.3662 8.75,5.3662 0.2832,10.6648 0.2832,10.6647 -8.9852,5.3132 -8.9853,5.3131 -0.2979,10.877 -0.298,10.8769 -8.5,4.8443 -8.5,4.8442 -1.0672,0.6797 -1.0673,-0.6217 z"
   />
</svg>
