<svg
   version="1.1"
   id="svg1"
   width="2952"
   height="3680"
   viewBox="0 0 2952 3680"

   xmlns="http://www.w3.org/2000/svg"
   xmlns:svg="http://www.w3.org/2000/svg">

   <path
      d="m 1090,1437.9971 -0.012,-10.7485 -0.012,-10.7486 -7.6877,-4.5 -7.6877,-4.5 -0.7517,-0.3172 -0.7518,-0.3173 -8.6525,5.1107 -8.6526,5.1107 c -18.7984,-11.6088 0.071,0.027 -18.7429,-11.6262 l -0.049,-9.2846 v -10.824 l 8.6828,-5.176 8.6827,-5.1761 1.2581,-0.8282 1.3055,0.8282 7.5007,4.5538 7.5007,4.5538 c 18.0791,-11.0722 -0.019,-0.2594 17.9065,-11.181 l 0.07,-8.9829 0.07,-8.9829 -1.7518,-1.4999 -1.7519,-1.5 -6.4867,-4.2409 -6.3528,-4.3413 c -0.01,-23.1119 0.027,-0.045 -0.1289,-22.9542 l 8.215,-4.4418 7.78,-4.4083 1.3973,-0.8952 c 0.093,-20.5616 0.091,0.044 0.1021,-20.591 18.6466,-10.0948 0.1974,0.051 18.7823,-10.31 l 9.6088,5.7341 9.6089,5.7341 v 10.7218 10.7218 c 14.8222,9.6928 0.057,-0.099 14.8665,9.7116 17.8488,-10.1778 0.059,0.072 17.7835,-10.0593 l 1.1975,0.6526 8.5762,5.1256 8.5763,5.1256 v 10.2194 10.2194 l 1.75,1.4964 1.75,1.4965 6.5,3.8255 6.5,3.8256 0.4503,0.3666 0.4503,0.3667 -0.1134,10.7163 -0.1134,10.7164 -9.0869,5.4933 -9.0869,5.4934 v 10.547 l -0.095,8.7487 c -16.0827,11.1604 -0.1,0.078 -16.0049,11.2075 -18.5095,-10.4625 -0.2497,-0.039 -19.0416,-10.7616 l -7.9294,4.4925 -7.9294,4.4925 v 11.1856 11.1855 c -19.0286,11.222 -0.1546,0.015 -18.8849,11.3683 -11.0251,-6.679 -0.057,0.1977 -19.1141,-11.9505 z"
   />
</svg>
