<svg
   version="1.1"
   id="svg1"
   width="2952"
   height="3680"
   viewBox="0 0 2952 3680"
   xmlns="http://www.w3.org/2000/svg"
   xmlns:svg="http://www.w3.org/2000/svg">
   <path
      d="M 738.5863,2503.4786 731.6726,2499 H 730.8363 730 v -10.8454 -10.8453 l -8.5,-5.1942 -8.5,-5.1942 v -10.4171 -10.4171 l -8.97614,-5.2933 -8.97614,-5.2934 -0.0239,-10.6748 -0.0239,-10.6749 9,-5.1503 9,-5.1503 0.0239,-10.6749 0.0239,-10.6748 8.97614,-5.2934 8.97614,-5.2933 v -10.2659 -10.266 l -8,-4.7587 -8,-4.7588 v -10.6842 -10.6842 l -7.79641,-4.7478 -7.7964,-4.7477 h -1.62578 -1.62577 l -7.7831,4.8298 -7.78311,4.8298 -7.54471,-4.4352 -7.54472,-4.4353 -1.75,-1.5495 -1.75,-1.5496 v -10.1054 -10.1055 l 9,-5.2605 9,-5.2606 v -9.9665 -9.9664 l -3.83204,-2.4191 -3.83203,-2.419 -4.92953,-2.7523 -4.92952,-2.7522 -8.39169,5.2047 -8.39169,5.2046 -8.09675,-4.6482 -8.09675,-4.6483 -2.5,-1.8075 v -1.3701 -9.6997 -9.6997 l 8.9682,-5.3093 8.9682,-5.3093 0.2818,-10.4943 0.2818,-10.4944 8,-4.8712 8,-4.8711 1.09454,-0.4817 1.09455,-0.4817 8.5893,5.1334 9.0268,5.7271 2.19481,-1.2658 7.76521,-4.5 7.76521,-4.5 -0.26521,-9.9919 -0.26521,-9.9919 -8.5,-5.072 -8.5,-5.0721 -0.5,-10.8916 -0.5,-10.8916 -8.32875,-4.9635 -8.32876,-4.9636 -3.17124,1.8577 -3.17125,1.8578 -5.25,3.3421 -5.25,3.3421 v 10.4839 10.484 l -3.25,1.9917 -3.25,1.9917 -6,3.1116 -6,3.1117 -8.75,-5.2436 -8.75,-5.2437 v -10.8073 -10.8073 l 8.5,-5.1342 8.5,-5.1342 v -10.3379 -10.3378 l -8.02515,-4.7048 -8.02515,-4.7049 -8.85371,5.1098 -8.85372,5.1098 -0.72781,0.464 -0.70572,-0.464 -2.65437,-1.8335 -2.65437,-1.8334 -5.60567,-3.1574 -5.60567,-3.1573 -8.30394,4.9908 -8.30394,4.9908 -0.42879,0.2149 -0.39753,-0.2149 -8.90337,-5.25 -8.90337,-5.25 -0.0239,-10.531 -0.0239,-10.5311 -9,-5.3281 -9,-5.3281 0.0113,-11.1409 0.0113,-11.1408 9.3359,-4.9257 9.33589,-4.9257 8.40285,4.8097 8.40285,4.8096 0.57463,0.3167 0.57462,0.3167 8.23558,-4.9507 8.23558,-4.9506 0.9884,-0.7031 0.98839,0.7031 8.4514,5.0865 8.4514,5.0864 v 10.426 10.4259 l 5.25,3.3201 5.25,3.3201 3.12572,1.8097 3.12571,1.8097 8.62429,-5.2093 8.62428,-5.2093 v -10.1934 -10.1933 l 9.08652,-5.3111 9.08652,-5.3112 9.37991,5.5975 9.37991,5.5975 0.28357,10.6783 0.28357,10.6783 8.14096,4.8529 8.14095,4.8529 8.57679,-5.1437 8.57678,-5.1437 8.42114,5.0866 8.42113,5.0866 h 0.57566 0.57565 l 7.78547,-4.6907 7.78547,-4.6906 0.73469,-1.0594 0.73468,-1.0593 0.0153,-9.6373 0.0153,-9.6374 9.03339,-5.1361 9.03339,-5.1361 8.96684,5.2734 8.96685,5.2735 -0.25023,10.9574 -0.25024,10.9573 -8.5,5.2001 -8.5,5.2001 -0.28412,10.0143 -0.28412,10.0143 8.64652,5.0891 8.64652,5.0891 8.80447,-5.0384 8.80446,-5.0385 8.83314,5.3493 8.83313,5.3493 0.28287,10.5834 0.28287,10.5835 7.21713,4.269 7.21713,4.2691 2.52344,1.556 -0.0234,1.4779 v 9.6832 9.6833 l 8.58744,5.1323 8.58743,5.1323 8.50657,-5.0067 8.50658,-5.0067 0.57488,-0.4198 0.53069,0.4198 8.85255,5.25 8.85256,5.25 6.6e-4,10.536 6.6e-4,10.536 8.48179,4.964 8.48179,4.964 0.0182,10.6408 0.0182,10.6409 9,5.3281 9,5.3281 v 10.5733 10.5732 l -6.25,3.603 -6.25,3.603 -3.25,1.6305 -3.25,1.6305 v 10.4309 10.431 l -8.95134,5.2933 -8.95133,5.2934 -0.29867,10.4542 -0.29866,10.4542 -8.25,4.9179 -8.25,4.9179 v 9.6427 9.6426 l -9.25,5.5844 -9.25,5.5844 -0.2815,10.4207 -0.28149,10.4207 -2.71851,1.2262 -2.7185,1.2262 -6.25,3.9785 -6.25,3.9786 v 9.9867 9.9867 l 8.47652,5.0067 8.47652,5.0067 8.66498,-5.0042 8.66497,-5.0041 0.6085,0.2861 0.60851,0.2862 8.25341,4.8395 8.25341,4.8395 0.54066,2.1605 0.54067,2.1605 -0.29408,8.9426 -0.29407,8.9427 -9.21282,5.5573 -9.21281,5.5574 -0.0372,10.1276 -0.0372,10.1275 -1.25,1.0251 -1.25,1.0251 -7.7978,4.0975 -7.7978,4.0975 -5.7022,-3.6695 -5.7022,-3.6695 -2.5191,-1.4664 -2.51911,-1.4664 -9.22055,5.2425 -9.22055,5.2425 -8.76034,-5.4406 -8.76035,-5.4407 -0.28185,-10.4709 -0.28185,-10.4709 -8.44994,-4.9452 -8.44994,-4.9452 -0.0182,-10.6149 -0.0182,-10.6149 -8.50302,-5.2144 -8.50301,-5.2145 -8.5301,4.6498 -8.5301,4.6497 0.28311,10.5915 0.28312,10.5915 8.25,4.9434 8.25,4.9434 0.0259,10.6447 0.0259,10.6447 8.22407,4.9423 8.22407,4.9424 0.5,0.7042 0.5,0.7043 -0.5,10.8036 -0.5,10.8037 -8,4.281 -8,4.2811 h -2 -2 z M 838.5,2238.393 v -10.7966 l -8.18393,-4.8809 -8.18394,-4.8809 -9.0422,5.3327 -9.04221,5.3327 -0.0239,10.1778 -0.0239,10.1777 8.25,5.0127 8.25,5.0127 9,-4.8456 9,-4.8456 z m -77.88888,-48.4601 8.38888,-5.0671 -0.0383,-9.6829 -0.0383,-9.6829 -8.71171,-5.0166 -8.71171,-5.0165 -0.5,-10.7448 -0.5,-10.7448 -8,-4.7928 -8,-4.7927 -0.5,-10.7676 -0.5,-10.7675 -7.97305,-4.8442 -7.97304,-4.8441 -2.02696,1.0519 -2.02695,1.052 -6.78543,3.9286 -6.78543,3.9287 0.28543,9.6773 0.28543,9.6773 8.43861,5.0389 8.4386,5.039 -0.25628,10.469 -0.25627,10.4689 9.03475,5.3397 9.03475,5.3396 0.28292,10.624 0.28292,10.624 7.5,4.7249 7.5,4.7249 0.86112,0.061 0.86113,0.061 z m 366.13888,253.7738 -8.75,-5.189 v -11.0147 l 0.088,-10.4845 5.4116,-3.0106 6.25,-3.9785 6.25,-3.9786 0.024,-10.2754 0.024,-10.2754 9.0116,-5.3145 9.0116,-5.3144 -0.2855,-9.6304 -0.2854,-9.6304 -7.947,-4.7659 -7.9469,-4.7658 -5.5531,3.1068 -5.553,3.1069 -3.25,1.9354 -3.25,1.9354 v 9.8093 9.8093 l -8.9682,5.3093 -8.9682,5.3093 -0.2818,10.5395 -0.2818,10.5395 -8.877,5.3078 -8.8771,5.3077 -9.3729,-5.5933 -9.373,-5.5934 v -10.4107 -10.4107 l 9.0009,-5.2933 9.001,-5.2934 -0.251,-10.4572 -0.2509,-10.4572 -7.7269,-4.5428 -7.7269,-4.5428 -0.023,-11.155 -0.023,-11.1549 7.75,-4.5365 7.75,-4.5365 1.444,-0.8219 1.2097,-0.7594 9.3294,5.454 8.5638,5.1728 7.9766,-4.6764 7.9765,-4.6763 v -9.2942 -9.2941 l 0.016,-1.7628 3.4844,-2.2002 7.7275,-4.5941 7.7275,-4.5941 8.005,4.9648 8.0049,4.9648 1.1693,0.7812 1.1693,-0.7812 7.8016,-4.5 7.8017,-4.5 0.986,-0.5156 0.9547,0.5156 8.6286,5.1569 6.2863,4.3614 c -0.2936,20.5502 -0.1146,-0.06 -0.2752,20.6084 l 8.4566,4.3391 5.7607,3.4995 2.7778,1.4412 2.7779,1.4411 -0.1788,9.8262 -0.1789,9.8262 1.2988,1.5775 1.2987,1.5775 7.1766,4.1735 7.1766,4.1736 c 18.3473,-10.3951 0.022,0.027 18.3187,-10.399 17.6966,11.0912 0.081,-0.139 17.5937,11.0996 l 0.017,11.1174 0.015,9.1954 -9.7068,6.4928 -7.8163,4.5084 c -0.026,21.4753 0.1091,-0.027 -0.3191,21.6863 l -9.9281,5.34 -8.3032,5.0431 -8.4382,-5.0431 -8.4382,-5.0431 -1.1738,-0.7024 -1.1737,0.7039 -8.1273,4.8349 -8.1273,4.835 -8.789,-5.2804 -8.789,-5.2804 -4.5837,2.6391 -4.5837,2.639 -3.75,2.3182 -3.75,2.3182 -0.015,9.2374 -0.015,9.2375 -0.05,1.3286 -1.4197,0.9308 -8.6845,5.1203 -8.6845,5.1203 -0.3155,-0.052 -0.3155,-0.052 z m -174.75,-63.39 -8.5,-5.2785 -0.656,-0.019 -0.656,-0.019 -8.58151,5.0508 -8.58151,5.0508 -8.98863,-5.3008 -8.98863,-5.3008 -0.0239,-10.655 -0.0239,-10.6549 -7.90901,-4.6368 -7.90901,-4.6367 -0.59099,-1.5401 L 890,2340.8364 v -9.3722 -9.3723 l 9.5,-5.6692 9.5,-5.6691 0.0181,-10.1268 0.0182,-10.1268 8.98184,-4.7789 8.98185,-4.7788 0.0113,-11.2212 0.0113,-11.2211 9.32159,-4.9181 9.32158,-4.9181 8.66716,5.2352 8.66716,5.2352 v 10.8896 10.8895 l -8.97614,5.2933 -8.97614,5.2934 -0.0239,10.0136 -0.0239,10.0135 8.11666,4.7365 8.11667,4.7364 h 1.04544 1.04545 l 7.83789,-4.595 7.83789,-4.5951 v -9.3232 -9.3231 l 0.5812,-1.5146 0.5812,-1.5146 8.41554,-4.8172 8.41553,-4.8172 0.003,-10.031 0.003,-10.0311 8.81563,-5.2189 8.8156,-5.219 h 0.9344 0.9344 l 8.385,5.0431 8.3849,5.043 8.5139,-5.0883 8.5138,-5.0883 8.6012,4.9771 8.6012,4.9772 0.281,11.4802 0.281,11.4803 -8.503,4.8359 -8.503,4.836 -0.028,10.031 -0.028,10.0311 -9,5.3281 -9,5.3281 v 10.1515 10.1514 l 8,4.7943 8,4.7942 -0.024,11.1951 -0.024,11.1952 -9.0451,5.3344 -9.045,5.3344 -8.5074,-5.0844 -8.5073,-5.0844 h -0.5349 -0.5348 l -8.3889,5.0671 -8.38893,5.0671 -8.38888,-5.0671 -8.38887,-5.0671 h -1.36113 -1.36112 l -8,4.7957 -8,4.7956 z m -317.21171,-1.7294 -8.71171,-5.0873 -0.0383,-11.1829 -0.0383,-11.1829 8.38888,-5.0671 8.38887,-5.0671 0.83144,-0.5469 0.83144,0.5469 8.17677,5.0144 8.7071,5.3901 4.1755,-2.4003 6.45434,-4.0653 7.60339,-4.5956 2.35037,1.4454 7.54595,4.7802 7.54595,4.7802 v 10.7867 10.7868 l -8.53068,5.0387 -8.53068,5.0387 -1.09268,0.75 -1.09268,-0.75 -7.41211,-4.5 -7.41211,-4.5 -1.21478,-0.75 -1.24602,0.75 -6.98413,4.0901 -6.98413,4.0902 -1.5,0.7471 -1.5,0.7471 z m -34.01325,-62.8794 -8.72496,-5.2079 -0.025,-10.6829 -0.025,-10.6829 8.25,-4.9734 8.25,-4.9734 2.22168,-1.3058 1.11982,0.6184 8.57925,4.9413 8.57925,4.9413 v 10.7406 10.7406 l -2.75,1.9161 -2.75,1.916 -6.5961,3.652 -6.5961,3.6521 -0.4039,-0.042 -0.4039,-0.042 z m -87.17518,-31.9708 -8.90014,-5.2371 0.0359,-10.6049 0.0359,-10.6049 -5.13579,-2.9903 -5.13578,-2.9903 -3.50618,-2.1097 -3.50619,-2.1097 -8.82793,5.4506 -8.82793,5.4507 -9.41588,-5.619 L 451,2246.7536 v -10.3988 -10.3988 l 4.51417,-2.8628 4.51416,-2.8628 5.36862,-2.8109 5.36862,-2.8108 8.52378,5.0942 8.52377,5.0943 7.84344,-4.7018 8.98121,-5.3042 L 504.5,2195.5 l 0.0181,-1.4028 1.48279,-0.9076 7.99956,-4.6899 7.99956,-4.6898 v -10.3185 -10.3185 l 8.75,-5.2243 8.75,-5.2244 0.57327,-0.3119 0.57326,-0.3119 5.92674,3.5467 5.92673,3.5466 3.05613,1.8649 3.05614,1.8649 8.25407,-4.9618 8.25407,-4.9617 0.5555,-0.375 0.58674,0.375 8.86868,5.0752 8.86867,5.0751 -0.009,10.6749 -0.009,10.6748 -8.514,5.25 -8.514,5.25 h -0.90098 -0.90098 l -8.53085,-5.0985 -8.53085,-5.0984 -0.81864,0.3484 -0.81863,0.3485 -7.72677,4.449 -7.72677,4.4489 v 10.2287 10.2286 l 6.25,3.7558 6.25,3.7558 2.00559,1.2715 2.00559,1.2714 8.89459,-4.9684 8.8946,-4.9684 9.09981,5.2831 9.09982,5.283 0.28048,10.9874 0.28047,10.9874 -8.54052,5.2431 -8.54053,5.2431 h -1.10107 -1.10108 l -8.40617,-5.0776 -8.40617,-5.0775 -0.78274,0.3275 -0.78274,0.3276 -7.66274,4.5 -7.66273,4.5 -0.28723,10.4711 -0.28723,10.471 -8.5,5.2599 -8.5,5.2598 -0.5,0.01 -0.5,0.01 z M 1129,2257.3713 l -7.5,-4.5748 -1.7785,-1.1437 0.1124,-9.8889 0.2061,-9.2639 0.074,-1.2416 -1.6137,-1.0542 -8,-4.8943 -8,-4.8944 -0.2815,-11.0772 -0.2816,-11.0771 9.0237,-5.1306 9.0236,-5.1306 h 0.4979 0.4978 l 8.4783,5.2049 8.4783,5.2049 0.2817,10.5451 0.2818,10.5451 8.5,5.109 8.5,5.109 0.2819,11.0546 0.282,11.0546 -8.4208,5.0864 -8.4209,5.0864 -1.3299,0.848 -1.3923,-0.902 z m -86.5978,-31.7156 -7.0978,-4.1557 -3.3486,-2.2588 0.068,-10.6136 0.024,-10.1276 8.9034,-5.25 8.9034,-5.25 1.177,-0.6519 1.2212,0.6519 8.405,5.1543 8.4049,5.1543 -0.2813,11.022 -0.2813,11.022 -8.397,4.8237 -8.397,4.8237 -1.0588,0.591 -1.1472,-0.779 z m -54.1522,-32.8635 -8.25,-5.0364 0.0113,-11.1279 0.0113,-11.1279 9.32159,-4.9181 9.32158,-4.9181 8.66713,5.2352 8.6672,5.2352 V 2177 v 10.8658 l -8.3889,5.0671 -8.38886,5.0671 -1.36113,0.7577 -1.36112,-0.9297 z m -597.75,-66.6582 -8,-4.9099 -0.28236,-10.4671 -0.28236,-10.4671 8.60861,-5.145 8.60862,-5.1449 1.12687,-0.6562 1.22062,0.6562 8,4.8025 8.71875,4.8025 -0.0935,11.0617 -0.0622,11.0616 -6.98163,4.1477 -6.98163,4.1477 -3.72175,2.0069 -1.87801,-0.9931 z m 94.74944,-89.4782 -3.86742,-2.1558 -5.18999,-3 -5.19,-3 -10e-4,-10.702 -0.001,-10.7019 4.25,-2.8903 4.25,-2.8902 4.78111,-2.771 4.78111,-2.7711 8.95217,5.3632 8.95217,5.3633 0.0167,11.0397 0.0167,11.0397 -8.94157,5.1161 -8.94158,5.1161 z"
   />
</svg>
