<svg
   version="1.1"
   id="svg1"
   width="2952"
   height="3680"
   viewBox="0 0 2952 3680"
   xmlns="http://www.w3.org/2000/svg"
   xmlns:svg="http://www.w3.org/2000/svg">
   <path
      d="m 1668.3993,1952.6094 -0.9411,-0.6094 -7.9791,-4.6504 -7.9791,-4.6504 -1.4691,-0.9824 -3e-4,-1.2168 0.011,-10 0.011,-10 8.0053,-5.0048 8.0991,-4.8799 1.3953,-0.9242 c 18.9243,10.3205 0.1996,0.2009 18.8449,10.2288 l 5.5518,-3.1632 5.5517,-3.1631 2.7437,-1.5468 2.7437,-1.5468 0.032,-10 0.032,-10 c 17.379,-10.8737 0,0.014 17.3573,-10.8902 18.7455,10.3377 -0.066,-0.016 18.8073,10.3974 l 7.6417,-4.7175 7.6418,-4.7175 1.4554,-0.8755 0.014,-1.1967 -0.01,-10 -0.01,-10 -7.1404,-4 -7.1404,-4 -1.6237,-1.0562 -1.1597,-0.8575 0.1275,-10.9077 0.017,-10.1786 8.7645,-5.25 8.7644,-5.25 1.2052,-0.7344 1.2676,0.7344 8.0638,5.0013 8.0638,5.0013 8.1268,-5.0013 8.1269,-5.0013 1.1874,-0.8176 1.2758,0.8176 8.3102,4.9918 8.3102,4.9919 -0.1875,11.2135 -0.1875,11.2135 9.625,4.9168 8.25,4.9167 v 11.3779 l -0.066,9.4776 -2.8628,1.9003 -7.4121,4.5 -7.4121,4.5 -0.8942,0.4198 -0.8943,-0.4198 -7.9791,-4.6504 -9.0177,-5.1863 -0.9614,0.6076 -7.75,4.6894 -7.75,4.6895 v 10.9251 l -0.1105,9.091 -2.8186,1.8341 -7.4121,4.5 -7.4121,4.5 h -0.8942 -0.8943 l -7.9791,-4.6504 -8.8541,-5.541 c -6.8981,4.4909 -6.8744,4.4937 -6.8744,4.4937 l -6.25,3.7178 c -3.4591,2.2393 0.036,-0.025 -3.4079,2.2383 l -0.3039,10.2688 -0.2882,9.8625 -8,4.802 -8,4.802 -1.7301,0.7422 -1.699,-0.7422 -7.4121,-4.5 -7.4121,-4.5 -1.5989,-0.9944 -1.5769,0.9944 -7.4121,4.5 -7.4121,4.5 z"
   />
</svg>
