<svg
   version="1.1"
   id="map-unknown"
   width="2952"
   height="3680"
   viewBox="0 0 2952 3680"
   xmlns="http://www.w3.org/2000/svg"
   xmlns:svg="http://www.w3.org/2000/svg">
   <path
      d="m 1025.2145,917.90574 -2.7145,-0.0943 -3.576,-2.15573 -3.5759,-2.15574 -4.3151,-3.60681 -4.315,-3.6068 -0.4127,-7.8932 -0.4127,-7.89319 -0.4199,-2.06907 -0.42,-2.06906 -6.02768,-4.68094 L 992.99731,877 h -2.43964 -2.43964 c -14.16716,9.63124 -0.047,-0.12569 -14.16992,9.89297 l -3.95492,0.2109 -3.55336,-0.12375 c -13.29634,-10.29488 0.20845,0.50042 -13.40152,-10.48012 l -0.0191,-10.05887 -0.0192,-10.05887 -1.25,-1.53481 -1.25,-1.53482 -5.73485,-3.15631 L 939.0303,847 h -1.62101 -1.62101 l -8.00199,4.5 -8.00199,4.5 -0.64215,-0.0256 -0.64215,-0.0256 -5.05226,-3.22441 -5.05227,-3.2244 -4.19773,-3.59593 L 900,842.30814 v -8.97975 -8.97976 l -2.25,-2.05734 -2.25,-2.05734 -3.5,-1.76519 -3.5,-1.76519 -3.25,-2.47047 -3.25,-2.47048 v -9.19018 -9.19018 l -1.25,-1.55654 -1.25,-1.55654 -7.25,-4.61442 -7.25,-4.61442 v -9.61896 -9.61896 l -3.1627,-2.95441 -3.1627,-2.9544 -4.5873,-2.6594 -4.5873,-2.6594 -1.2182,-1.5374 -1.21819,-1.53741 -0.0318,-9.21104 -0.0318,-9.21105 -1.96156,-1.82747 -1.96156,-1.82747 -6.53844,-3.25407 L 830,718.91483 v -10.72735 -10.72736 l -6.75,-4.08981 -6.75,-4.08981 -1.60781,-0.5543 -1.60781,-0.5543 -0.64219,-3.21095 L 812,681.75 v -7.82155 -7.82154 l -5.25,-3.47182 -5.25,-3.47183 -2.62286,-1.18421 -2.62286,-1.18422 -0.61845,-5.14742 -0.61845,-5.14741 -0.009,-5.59501 -0.009,-5.59501 -1.75,-1.5344 -1.75,-1.5344 -3,-1.651 -3,-1.651 -3,-1.80006 -3,-1.80005 -0.63169,-2.91954 -0.63168,-2.91953 -0.11832,-8.16254 -0.11831,-8.16255 -7.37619,-4.3006 -7.37619,-4.30061 -1.12381,-3.10785 L 761,588.358 l -0.0153,-7.429 -0.0153,-7.429 -0.73468,-1.12929 -0.73469,-1.1293 -7.75,-4.6956 -7.75,-4.6956 v -10.71109 -10.7111 l -8.25,-4.86805 -8.25,-4.86805 0.22283,-10.2625 0.22283,-10.26249 -8.72283,-5.41596 -8.72283,-5.41596 -0.5,-10.68051 -0.5,-10.68051 -8,-4.737 -8,-4.73699 -0.25284,-10.5 -0.25285,-10.5 0.75285,-1.04797 0.75284,-1.04796 8.25,-4.79707 8.25,-4.79708 v -10.24929 -10.24929 l 9.50884,-5.58609 9.50883,-5.5861 9.17766,5.42324 9.17765,5.42324 2.06351,-1.3094 2.06351,-1.30941 6.13081,-3.68341 L 764.76165,405 h 0.73031 0.73032 l 8.37867,5.06096 8.37868,5.06096 7.98232,-4.78363 8.52656,-4.83096 c -0.33414,-19.36823 0.0175,-0.11934 -0.32706,-19.34344 l 1.66929,-1.44227 1.66929,-1.44227 7.28428,-4.2038 7.28427,-4.20381 -0.28427,-10.18587 L 816.5,354.5 l -8.5,-5.10901 -8.5,-5.10901 -0.23592,-10.89099 -0.23593,-10.89099 8.73593,-5.01789 8.73592,-5.0179 0.28383,-10.7321 L 817.06766,291 h 1.05769 1.05769 l 7.90848,-4.73938 L 835,281.52125 v -10.52909 -10.52908 l 8.96786,-4.98154 8.96786,-4.98154 0.0489,-10.5 0.0488,-10.5 8.73329,-5.04046 8.73328,-5.04047 -0.31584,-8.37914 -0.31584,-8.37914 0.56844,-2.26484 0.56844,-2.26485 8.42279,-5.0876 8.42279,-5.08761 0.66258,-3.01671 0.66258,-3.01671 -0.33029,-7.14952 -0.33029,-7.14952 9.24232,-5.40433 L 907,156.81477 V 146.40738 136 h 0.93979 0.9398 l 8.3102,-4.99809 8.31021,-4.99809 0.84879,-0.002 0.84879,-0.002 8.49521,5 8.49521,5 h 0.32974 0.32975 l 8.52759,-5.09652 8.52759,-5.09651 8.56596,5.17408 8.56596,5.17409 0.78274,-0.32757 0.78274,-0.32757 7.66344,-4.5 7.66344,-4.5 0.28653,-10.95853 0.28652,-10.95852 7.5,-4.25662 7.5,-4.256622 1,-0.367739 1,-0.36774 0.1,-10.417114 0.1,-10.417115 9.4994,-5.744752 9.4993,-5.744753 8.3105,4.994753 8.3105,4.994752 1.0904,-0.0019 1.0904,-0.0019 8.1514,-4.902597 8.1513,-4.902598 8.1589,4.904508 8.1588,4.904508 1.1898,-0.0019 1.1898,-0.0019 8.1192,-4.883251 8.1191,-4.883252 8.7219,5.385162 8.7218,5.385162 h 0.3783 0.3783 l 8.475,-5.005767 8.4749,-5.005766 8.6767,4.992759 8.6766,4.992758 8.6291,-5.121759 8.6291,-5.121759 1,-0.0096 1,-0.0096 8.3365,5.041616 8.3365,5.041616 7.896,-4.897214 7.8959,-4.897215 h 1.4821 1.4821 l 7.4121,4.5 7.4121,4.5 h 1.2467 1.2467 l 7.6267,-4.65129 7.6266,-4.651289 1,-0.01507 1,-0.01507 8.345,5.176128 8.3449,5.176127 8.2939,-5.009766 8.294,-5.009767 h 0.6881 0.6881 l 9.423,5.623207 9.423,5.623208 v 10.666908 10.666908 l 8.7023,5.085315 8.7023,5.08533 0.048,11.35469 0.048,11.35469 c 15.2282,8.36731 0.1314,0.056 15.2494,8.3808 l 8.3753,-5.06493 8.3753,-5.06493 1,-0.012 1,-0.012 6.5,3.98991 6.5,3.9899 2.1314,1.13821 2.1315,1.13821 8.1856,-4.97174 8.1857,-4.97173 h 0.7247 0.7247 l 8.1247,5 8.1248,5 h 1.2411 1.2411 l 7.8754,-5 7.8755,-5 h 0.4338 0.4338 l 7.8755,5 7.8754,5 h 1.0975 1.0974 l 8.3102,-4.99809 8.3102,-4.99809 0.7145,-0.002 0.7146,-0.002 7.7854,4.65995 7.7855,4.65994 1.75,1.49504 1.75,1.49505 v 10.29103 10.29103 l 8.25,4.84117 8.25,4.84116 0.2417,11.46282 0.2417,11.46281 -8.9917,4.98154 -8.9917,4.98154 v 9.74402 9.74403 l 7.7291,4.52444 7.7291,4.52443 h 0.8943 0.8942 l 7.6267,-4.65129 7.6266,-4.65129 1,0.0134 1,0.0135 7.7788,4.63784 7.7788,4.63785 h 0.8886 0.8885 l 7.6115,-4.5 7.6114,-4.5 h 1.0357 1.0358 l 8.9354,4.64207 8.9355,4.64206 0.054,0.85794 0.053,0.85793 0.054,11.52004 0.054,11.52004 -6.3572,3.50162 -6.3571,3.50162 -3.25,1.66355 -3.25,1.66355 0.011,9.56479 0.011,9.56479 6.135,3.5 6.135,3.5 2.402,1.86019 2.4019,1.86019 -0.1757,9.42854 -0.1758,9.42853 0.4589,0.45885 0.4588,0.45885 8.2282,4.99756 8.2281,4.99756 3.191,-1.64018 3.1909,-1.64018 5.7605,-3.81497 5.7605,-3.81496 9.4895,6.18496 9.4895,6.18496 v 11.13139 11.13138 l -8.75,4.97892 -8.75,4.97893 -0.2834,10.61776 -0.2833,10.61777 -8.3044,5.01611 -8.3045,5.01611 -1.5921,0.61095 -1.5921,0.61096 -8.5549,-5.05301 -8.555,-5.05302 -8.2651,4.97102 -8.2652,4.97101 -0.8335,0.002 -0.8334,0.002 -8.1248,-5 -8.1247,-5 h -0.8833 -0.8833 l -7.9085,4.73938 -7.9085,4.73937 v 9.14687 9.14686 l 8.4967,4.86376 8.4968,4.86376 v 9.81574 9.81574 l 0.9968,1.8626 0.9969,1.86259 8.0031,4.26427 8.0032,4.26426 v 10.58687 10.58687 l 8.5,4.91184 8.5,4.91184 v 11.68657 11.68658 l -8.25,4.91756 -8.25,4.91756 -0.2853,9.62984 -0.2853,9.62985 8.2853,4.8619 8.2853,4.86189 0.281,11.63091 0.2811,11.6309 -8.7811,4.94966 -8.781,4.94966 -0.2968,9.88225 -0.2968,9.88225 -7.5424,4.5 -7.5425,4.5 -1.9681,2.45776 -1.9681,2.45776 0.5659,6.04224 0.5658,6.04224 -0.7727,3.36907 -0.7727,3.36906 -7.394,3.78785 -7.3939,3.78786 -0.8657,1.54696 -0.8658,1.54696 -0.292,8.29612 -0.2921,8.29612 -1.434,2.33778 -1.4341,2.33777 -6.7865,3.44319 -6.7865,3.44319 -0.9127,2.40043 -0.9126,2.40042 -0.3956,8.56828 -0.3955,8.56828 -1.6505,1.82372 -1.6504,1.82372 -6.0059,2.92661 -6.006,2.92661 -1.5571,3.27379 -1.5571,3.27379 0.6551,6.72621 0.655,6.72621 -2.3468,2.1574 -2.3469,2.15739 -4.3614,2.25165 -4.3614,2.25164 -1.8849,3.09096 -1.8848,3.09096 v 5.80718 5.80718 l -1.0751,4.19282 -1.0751,4.19282 -5.9055,3.40754 -5.9054,3.40755 -2.0194,1.88141 -2.0195,1.88141 v 9.30352 9.30351 l -5.5659,3.90753 -5.5659,3.90753 -3.1841,2.66834 -3.1841,2.66834 0.2904,7.2595 0.2904,7.2595 -0.6199,2.82216 -0.6198,2.82216 c -17.9346,10.903 -0.2021,-0.0711 -17.8773,10.93611 -0.055,5.95223 0.033,-0.23127 0.3262,18.82313 -18.5022,11.28244 0.034,0.0719 -18.79,11.45686 l -0.094,6.64195 -0.094,6.64195 -0.1571,2.5 -0.1571,2.5 -4.9744,2.79385 -4.9744,2.79385 -3.0246,2.54504 -3.0246,2.54505 -0.074,5.6611 -0.074,5.66111 -0.6759,4.35466 -0.6759,4.35465 -7,4.3381 -7,4.3381 -4.3692,0.0573 -4.3692,0.0572 -6.0516,-3.67615 -6.0516,-3.67615 -6.722,3.67615 -6.7221,3.67615 h -5.0355 -5.0355 l -5.9489,-3.54376 -5.9489,-3.54377 -5.8728,3.54119 -5.8727,3.5412 -5.3317,0.003 -5.3318,0.003 -5.9718,-3.5 -5.9719,-3.5 h -1.0656 -1.0656 l -5.7616,3.5 -5.7616,3.5 h -4.7067 -4.7067 l -6.4392,-3.60098 -6.4392,-3.60099 -6.0449,3.60099 -6.045,3.60098 h -5.2059 -5.2058 l -1.9725,-1.34464 -1.9725,-1.34465 -4.5,-2.58802 -4.5,-2.58803 -6.5,3.92965 -6.5,3.92965 -4.1391,0.003 -4.1391,0.003 -6.7925,-3.96931 -6.7925,-3.96932 -3.0684,1.86403 -3.0684,1.86403 -3.5,2.10155 -3.5,2.10154 -3.9418,0.004 -3.9419,0.004 -6.733,-4 -6.733,-4 h -0.6507 -0.6507 l -6.8489,4 -6.8489,4 h -2.8465 -2.8464 l -7.7894,-4.55971 -7.7893,-4.55971 -7.7777,4.55971 -7.7776,4.55971 h -2.0453 -2.0453 l -7.5517,-4.61441 -7.5517,-4.61441 -7.6006,4.61441 -7.6005,4.61441 z"
   />
</svg>

