<svg
   version="1.1"
   id="svg1"
   width="2952"
   height="3680"
   viewBox="0 0 2952 3680"
   xmlns="http://www.w3.org/2000/svg"
   xmlns:svg="http://www.w3.org/2000/svg">
   <path
      d="m 1573.3014,1728.5779 -8.8014,-5.2171 -0.5,-11.4304 -0.5,-11.4304 -1.2113,-0.2371 -1.2113,-0.2371 -6.5563,-4.0129 -6.5563,-4.0129 h -1.2324 -1.2324 l -8.1478,4.9005 -8.1478,4.9004 -9.1022,-5.4567 -9.1022,-5.4567 v -10.4023 -10.4023 l 9.0009,-5.2933 9.001,-5.2934 -0.251,-10.4542 -0.2509,-10.4542 -8.2042,-4.8906 -8.2042,-4.8906 -8.4347,5.0948 -8.4347,5.0948 h -0.7222 -0.7222 l -8.3556,-5.047 -8.3555,-5.0469 -0.2833,-10.6852 -0.2834,-10.6851 -8.7117,-5.0179 -8.7117,-5.0179 -0.038,-9.1849 -0.038,-9.1849 -0.9452,-2.4859 -0.9451,-2.486 -8.0549,-4.1906 -8.0548,-4.1906 v -10.2335 -10.2336 l -1.75,-1.5129 -1.75,-1.5129 -6.3897,-3.6926 -6.3897,-3.6925 -7.1103,3.6891 -7.1103,3.6891 -1.75,1.5163 -1.75,1.5164 v 10.7699 10.7699 l -5.75,3.1968 -5.75,3.1968 -2.9003,1.5265 -2.9003,1.5265 -6.0997,-3.3092 -6.0997,-3.3092 -2.7642,-1.9172 -2.7643,-1.9173 -6.7357,3.8873 -6.7358,3.8873 -2.5587,1.6806 -2.5586,1.6806 -8.4414,-5.1646 -8.4413,-5.1646 -0.7347,-1.075 -0.7347,-1.0751 -0.016,-10 -0.016,-10 -5.0577,-3 -5.0576,-3 -3.323,-1.9445 -3.3231,-1.9446 -6.3683,3.9714 -6.3683,3.9713 -2.2717,1.2452 -2.2716,1.2452 -7.7284,-5.0964 -7.7283,-5.0963 -2.8025,0.5598 -2.8024,0.5599 -6.754,4.3691 -6.754,4.3691 -6.3446,-3.8363 -6.3447,-3.8364 -1.6776,-1.5183 -1.6777,-1.5182 h -1.111 -1.1111 l -8.3102,4.9981 -8.3102,4.9981 h -0.8053 -0.8054 l -7.778,-4.9894 -7.778,-4.9894 c 0,-22.4471 0.1033,-0.2296 0.059,-22.2804 -17.9004,-9.6535 0.073,0.02 -17.796,-9.7175 -18.4738,10.3199 -0.3546,0.054 -18.4592,10.1455 l -9.045,-5.3344 -9.0451,-5.3344 -0.024,-10.5106 -0.024,-10.5106 -7.9085,-4.7394 -7.9085,-4.7394 h -0.5608 -0.5608 l -8.6039,5.0819 -8.6038,5.0819 c -19.0863,-12.0106 -0.1369,-0.043 -18.9169,-12.07 0,0 0.041,-0.027 0.082,-19.4283 l 9.716,-5.9185 9.2299,-5.7859 8.0092,5.0194 8.0091,5.0195 h 1.1731 1.173 l 7.8379,-4.595 7.8379,-4.5951 0.017,-10.6549 0.017,-10.655 6.2326,-3.627 6.2325,-3.6271 3,-1.6856 3,-1.6856 8.4709,5.0436 8.4709,5.0436 1.7191,1.1529 -0.049,3.3627 -0.1956,8.1311 -0.1955,8.1311 -0.016,1.2385 1.2961,0.8322 7.9761,4.6761 7.9761,4.6761 8.5234,-5.1484 8.5235,-5.1484 v -10.3629 -10.3628 l 7.25,-3.9938 7.25,-3.9938 c 4.096,-2.0925 -0.1741,0.08 4.0815,-2.0934 l 8.8367,5.3089 8.8366,5.309 -0.1708,10.4115 -0.1708,10.4115 2.2934,1.43 2.2934,1.43 6.6376,3.8416 6.6375,3.8416 8.5321,-5.0992 8.5321,-5.0992 8.5664,5.1557 8.5663,5.1556 2.764,-1.926 2.764,-1.926 6.5,-3.5823 6.5,-3.5823 8.6071,5.2974 8.607,5.2973 7.893,-4.8385 7.8929,-4.8385 1.6514,-1.178 1.8281,1.12 7.2603,4.6613 7.2602,4.6613 1,-0.01 1,-0.01 7.6266,-4.6513 7.6267,-4.6513 1.1903,-0.7071 1.2786,0.7071 8.428,5.0907 8.428,5.0908 7.1663,-4.2574 7.1662,-4.2574 2.6556,-1.591 -0.066,-9.6787 v -11.2696 l 9.2378,-5.2075 9.2378,-5.2076 3.5122,1.9588 3.5122,1.9587 5.5153,3.1481 5.5153,3.1481 7.9847,-4.8093 7.9847,-4.8094 0.2843,-10.096 0.2844,-10.0961 -8.2844,-4.8891 -8.2843,-4.8891 v -10.9007 -10.9007 l 7,-4.2215 7,-4.2214 2.0606,-1.114 2.0606,-1.1139 8.6894,5.1932 8.6894,5.1932 v 10.8073 10.8073 l 8.5,5.1342 8.5,5.1342 v 10.8672 10.8671 l -8.4934,4.8158 -8.4934,4.8157 -0.01,10.0593 -0.01,10.0593 7.8856,4.6907 7.8857,4.6907 h 1.0317 1.0317 l 7.6115,-4.5 7.6114,-4.5 h 0.6556 0.6556 l 8.8156,5.219 8.8156,5.2189 v 10.2935 10.2934 l 5.75,3.5858 5.75,3.5858 2.5389,1.7757 2.5389,1.7756 8.2368,-4.8738 8.2369,-4.8739 h 0.7242 0.7243 l 8.9962,5.4077 8.9962,5.4077 4.0038,-2.4366 4.0038,-2.4366 4.75,-2.6322 4.75,-2.6322 v -10.7977 -10.7977 l 8.9761,-5.2933 8.9762,-5.2934 v -10 -10 l -8.9762,-5.2934 -8.9761,-5.2933 0.024,-10.7067 0.024,-10.7066 8.9762,-5.2934 8.9761,-5.2933 v -9.8895 -9.8896 l -8.4109,-5.0804 -8.4109,-5.0804 0.1609,-10.7104 0.1609,-10.7104 8.7436,-5.3665 8.7436,-5.3664 6.7564,3.9101 6.7564,3.9102 2.156,1.3618 2.1559,1.3618 8.7128,-5.2072 8.7128,-5.2072 7.8813,4.6204 7.8812,4.6205 2.0221,1.0455 v 10.4554 l 0.018,10.809 8.4818,4.964 8.4818,4.964 0.01,10.536 0.01,10.536 8.5568,5.2205 8.5569,5.2204 8.8831,-5.2204 8.8831,-5.2205 0.075,-10 0.075,-10 8.9034,-5.25 8.9034,-5.25 h 0.4965 0.4965 l 8.5276,5.0965 8.5276,5.0965 8.5486,-5.1636 8.5487,-5.1636 v -10.3629 -10.3628 l 7.7354,-4.3201 7.7354,-4.32 1.558,-0.8605 1.7349,-0.9048 9.1333,5.3112 8.603,5.0902 -0.3123,10.3272 -0.3122,10.3272 8.5611,5.1712 8.561,5.1711 8.4946,-4.8164 8.4946,-4.8164 0.01,-10.5 0.01,-10.5 8.9965,-5.4544 8.9966,-5.4544 v -10.1607 -10.1606 l -7.977,-4.6349 -7.9771,-4.635 h -0.6747 -0.6747 l -7.8016,4.5 -7.8017,4.5 h -1.1241 -1.124 l -9.3335,-5.25 -10.0405,-5.5815 c -0.057,-21.881 0.032,0.03 -0.051,-21.9974 8.1427,-5.017 -0.048,-0.05 17.4852,-10.6711 l 0.2971,-9.9545 0.2971,-9.9545 c 18.6205,-11.1311 -0.033,0.2782 18.5511,-11.0485 19.5593,11.6284 0.044,-0.072 19.6989,11.645 l 0.25,11.6869 v 9.8744 l 8.4121,5.0275 8.4121,5.0275 8.2415,-4.9019 8.2414,-4.9019 h 0.9576 0.9575 l 8.3889,5.0671 8.3889,5.0671 v 10.4022 10.4021 l 5.6756,3.6307 5.6757,3.6307 3.2316,1.541 3.2317,1.5411 8.0461,-4.641 8.0461,-4.641 h 1.1121 1.1121 l 8.22,4.8552 8.22,4.8551 8.4645,-4.8263 8.4645,-4.8264 0.6737,-0.029 0.6738,-0.029 8.506,5.0836 8.5059,5.0836 8.5703,-4.7722 8.5703,-4.7722 V 1277.8114 1267 h 0.9398 0.9398 l 8.2749,-4.9743 8.275,-4.9743 2.0353,1.2909 2.0352,1.2909 6.1308,3.6834 6.1308,3.6834 h 0.8692 0.8692 l 8.3357,-5.0135 8.3358,-5.0134 8.579,5.182 8.5791,5.182 1.0852,-0.015 1.0852,-0.015 7.6266,-4.6513 7.6267,-4.6513 h 1.0631 1.0632 l 8.3102,4.9916 8.3102,4.9916 0.5,10.714 0.5,10.7139 8.25,4.9166 8.25,4.9165 V 1309.6221 1320 h -1.059 -1.059 l 0.4697,0.7601 0.4698,0.7601 -7.9341,4.7399 -7.9341,4.7399 h -0.9646 -0.9646 l -8.575,-4.9168 -8.575,-4.9168 -8.437,5.0424 -8.4371,5.0424 v 10.2617 10.2618 l -8.9921,5.1126 -8.9921,5.1127 h -0.6313 -0.6312 l -7.6267,-4.6513 -7.6266,-4.6513 -1.1278,-0.015 -1.1278,-0.015 -8.1222,4.7617 -8.1222,4.7617 v 10.1844 10.1844 l 8.5,4.9119 8.5,4.9118 -0.025,11.0587 -0.025,11.0587 -8.0557,4.75 -8.0558,4.75 h -1.6696 -1.6697 l -8.25,-4.9619 -8.25,-4.9619 -8.25,4.9552 -8.25,4.9551 -0.5,10.1903 -0.5,10.1902 -8.5,5.1384 -8.5,5.1384 -0.2836,10.6612 -0.2837,10.6612 -8.497,5.0188 -8.4971,5.0188 h -0.5804 -0.5804 l -8.2778,-5 -8.2778,-5 h -0.5348 -0.5349 l -8.5762,5.1256 -8.5763,5.1256 v 9.7652 9.7653 l 9,5.3281 9,5.3281 v 9.3468 9.3468 c -17.3071,13.0697 -0.3255,0.1997 -17.0809,12.9785 -19.8474,-11.0265 -0.2324,-0.2007 -19.9191,-11.1351 v -10.3839 -10.384 l -7.7029,-4.801 -7.703,-4.801 -1.6397,0.1235 -1.6397,0.1235 -7.6573,4.6489 -7.6574,4.6489 v 10.6751 10.6751 l -8.4968,4.8638 -8.4967,4.8637 v 8.9359 8.9359 l -1.3975,2.7004 -1.3975,2.7003 -7.6028,4.25 -7.6027,4.25 h -0.6842 -0.6841 l -8.8156,-5.219 -8.8156,-5.2189 v -10.713 -10.7129 l -8.4477,-4.8181 -8.4476,-4.8181 -0.3024,-11 -0.3023,-11 -7.8992,-4.6812 -7.8993,-4.6812 -8.1007,4.3991 -8.1008,4.399 -0.3094,10.7821 -0.3093,10.7822 -9.4407,5.4428 -9.4406,5.4428 v 10.0572 10.0572 l -9.0591,5.5 -9.059,5.5 -1.1871,-0.3327 -1.1871,-0.3326 -8.2521,-4.9845 -8.252,-4.9844 -8.5,5.1342 -8.5,5.1342 v 10.8515 10.8514 l -8.1881,4.8315 -8.1882,4.8314 -1.3831,-0.3102 -1.3831,-0.3102 -8.4287,-4.9785 -8.4288,-4.9785 V 1588.5 1578.0774 l -8.6209,-5.092 -8.621,-5.092 -8.4553,5.0533 -8.4553,5.0533 h -0.4099 -0.4099 l -8.5875,-5.1501 -8.5874,-5.1501 -3.5158,1.6765 -3.5157,1.6766 -5.3765,3.4392 -5.3764,3.4393 -0.2842,10.7385 -0.2842,10.7385 -8.2055,4.8914 -8.2055,4.8914 -8.9639,-5.1734 -8.9639,-5.1733 -8.5806,5.1642 -8.5806,5.1642 -0.038,10.1636 -0.038,10.1635 -8.7117,5.0177 -8.7117,5.0178 -0.2824,9.9941 -0.2823,9.9942 9.0323,5.3473 9.0324,5.3472 0.018,10.6409 0.018,10.6408 8.4818,4.964 8.4818,4.964 -0.04,11.036 -0.04,11.036 -8.9084,5.1475 -8.9083,5.1474 z m -16.6924,-189.3279 8.3778,-4.75 0.01,-10.25 -0.025,-9.1852 -0.8853,-0.5206 -0.9208,-0.5442 -8.0137,-4.9703 -8.0137,-4.9702 -8.5565,5.2202 -8.5565,5.2203 -0.01,9.6279 -0.01,9.6279 8.25,5.0364 8.25,5.0365 0.8656,0.086 0.8656,0.086 z m -87.5538,-31.9037 8.0093,-4.6537 -0.2822,-10.4518 -0.2823,-10.4519 -8.0225,-4.7446 -8.0226,-4.7446 -8.7274,4.9631 -8.7275,4.9632 v 10.1905 10.1905 l 7.75,4.667 7.75,4.667 1.2257,0.7389 1.3202,-0.6799 z M 1698.2655,1478 l 7.71,-4.5 0.012,-10.2113 0.012,-10.2113 -8.5613,-5.0568 -8.5613,-5.0568 -7.9387,4.7575 -7.9387,4.7575 v 10.5165 10.5165 l 7.75,4.7212 7.75,4.7212 1.0278,-0.2271 1.0277,-0.2271 z m 105.2345,-61.7539 8,-4.7461 0.2836,-10.1255 0.2836,-10.1256 -7.4196,-4.6244 -7.4196,-4.6245 -1.2608,-0.7187 -1.1984,0.7187 -8.3778,4.75 -8.3778,4.75 -0.01,9.6447 -0.01,9.6447 8.25,5.0377 8.25,5.0377 0.5,0.064 0.5,0.064 z m -54.25,251.0555 -9.25,-5.5032 v -10.3281 -10.3282 c 18.0086,-10.87 0.034,0.07 18,-10.8191 v -8.8347 -10.1783 l 1.75,-1.4721 1.75,-1.472 6.8078,-4.183 6.8077,-4.1829 1.6923,0.036 1.6922,0.036 8,4.7539 8,4.7539 0.5,10.8735 0.5,10.8735 8.25,4.942 8.25,4.942 v 10.7997 10.7996 l -8.178,4.7945 -8.178,4.7944 -1.846,-0.1391 -1.8459,-0.139 -7.6058,-4.6176 -7.6057,-4.6175 -1.42,0.5449 -1.4199,0.5448 -7.4333,4.5124 -7.4334,4.5123 -0.267,-0.098 -0.267,-0.098 z m -140.75,-1.1782 -8,-4.7878 -0.2807,-10.9433 -0.2806,-10.9432 9.0511,-5.2794 9.0511,-5.2793 8.3684,5.0548 8.3685,5.0548 h 0.5509 0.5509 l 8.3102,-4.9914 8.3102,-4.9913 0.5,-10.1522 0.5,-10.1521 8.4321,-5.3492 8.432,-5.3492 5.568,3.1402 5.5679,3.1402 3.75,2.3651 3.75,2.365 v 10.3934 10.3933 l -8.75,5.3646 -8.75,5.3646 -0.5,10.4448 -0.5,10.4448 -7.5,4.7232 -7.5,4.7233 -2,0.05 -2,0.05 -7.5,-4.4774 -7.5,-4.4774 -1.0209,-0.011 -1.0209,-0.011 -7.6874,4.5 -7.6873,4.5 -1.2918,-0.044 -1.2917,-0.044 z m -246.5,-1.6073 -8.5,-5.3363 v -10.6913 -10.6912 l 4,-2.1506 4,-2.1506 4,-2.4453 4,-2.4452 0.7347,-1.0528 0.7347,-1.0528 0.015,-10.1257 0.015,-10.1257 9.0336,-5.2136 9.0335,-5.2136 8.9665,5.3083 8.9664,5.3082 -0.024,11.0311 -0.024,11.031 -8.0334,4.5 -8.0334,4.5 -0.8902,1.039 -0.8903,1.039 -0.173,10.0438 -0.1731,10.0437 -8.1296,4.9173 -8.1296,4.9172 -1,0.1762 -1,0.1762 z"
   />
</svg>
