<svg
   version="1.1"
   id="svg1"
   width="2952"
   height="3680"
   viewBox="0 0 2952 3680"
   xmlns="http://www.w3.org/2000/svg"
   xmlns:svg="http://www.w3.org/2000/svg">
   <path
      d="m 1351.5,2138.7557 -2,1.0126 -5,-3.4474 -5,-3.4474 -3.7667,-1.9656 -3.7667,-1.9656 -8.5775,5.0664 -8.5775,5.0664 -9.1558,-5.3514 -9.1558,-5.3513 -0.2872,-10.4362 -0.2873,-10.4362 -8.7127,-5.0571 -8.7128,-5.0571 -0.2817,-11.0788 -0.2817,-11.0789 -3.7183,-2.4444 -3.7183,-2.4443 -4.25,-2.6839 -4.25,-2.6839 v -10.9187 -10.9187 l 8.5,-5.1342 8.5,-5.1342 v -9.8762 -9.8762 l -2.163,-1.515 -2.1629,-1.515 c -6.8885,-4.6227 4.28,2.9963 -6.9241,-4.6693 l -5.25,-2.9942 -0.2883,-10.4599 -0.2882,-10.46 -8.9029,-5.1765 -7.9995,-4.4067 -1.5211,0.9088 -7.8432,4.6253 -7.8433,4.6253 -9.1567,-5.3521 -9.1568,-5.352 -0.2805,-10.9441 -0.2805,-10.9441 -8.405,-4.8187 -8.405,-4.8188 -8.6587,5.1143 -8.6587,5.1144 -9.1558,-5.3515 -9.1558,-5.3515 -0.2809,-10.9905 -0.2809,-10.9905 8.7809,-5.1888 8.7809,-5.1888 1.6141,-0.9565 1.5667,0.9365 7.9096,4.75 7.9096,4.75 8,-4.7461 8,-4.7461 1.4205,-0.9035 1.6213,0.9035 7.7291,4.5244 7.7291,4.5245 0.063,11.2255 0.063,11.2256 c 17.7387,10.4705 -0.1,-0.067 17.7246,10.438 l 7.8251,-4.6421 7.8251,-4.6422 0.4491,-0.3593 0.4491,-0.3593 0.2883,-9.2175 0.2884,-9.2176 0.02,-1.5 0.067,-1.25 c 3.9162,-2.2115 7.8324,-4.4255 11.7208,-6.7003 l 7.2834,-4.261 8.6051,5.1428 8.6051,5.1429 0.691,-0.2872 0.691,-0.2872 7.6383,-4.4099 7.6384,-4.4099 0.2822,-10.568 0.2822,-10.568 8.75,-5.3662 8.75,-5.3662 -0.051,-9.6559 -0.051,-9.6559 -8.6987,-5.109 -8.6986,-5.109 -0.2813,-10.9901 -0.2814,-10.99 9.0146,-5.401 9.0147,-5.4009 0.017,-9.6829 0.017,-9.6829 -8.3976,-5.0723 -8.933,-5.2063 c 0.422,-22.157 0.058,-0.1222 0.5035,-22.3556 5.8788,-3.4506 11.5248,-7.3039 17.4648,-10.6498 19.3195,10.4126 0.057,-0.035 19.3554,10.3611 l 7.5462,-4.7033 8.5637,-5.6736 c 6.9124,4.0833 0.1177,0.034 6.836,4.0526 l 2.561,1.754 4.6307,2.6517 4.6306,2.6517 c 16.6651,-10.868 0.018,-0.01 16.6681,-10.9933 11.8561,7.0038 7.8566,4.7502 11.81,7.0489 l 7.7394,4.5 0.011,9.8157 0.011,9.8158 0.01,2.1862 1.8145,1.1823 7.589,3.9386 7.5891,3.9387 v 11.76 11.76 l -8.2082,5.0513 -8.2082,5.0514 -1.1899,0.7955 -1.2783,-0.7955 -9.023,-5.25 -9.0229,-5.25 -0.1181,-8.5 -0.1181,-8.5 c 0.1212,-4.4882 0.1011,0.037 0.1399,-4.3807 -3.0013,-1.8056 -6.0559,-3.6395 -9.093,-5.4326 l -7.6198,-4.4987 -8.6302,5.1333 -8.6302,5.1332 0.012,9.5228 0.012,9.5227 8.7378,5.0593 8.7377,5.0593 v 11.4033 11.4032 l -8.75,4.9932 -8.75,4.9932 v 9.6992 9.6992 l 7.8379,4.5951 7.8379,4.595 h 1.2854 1.2855 l 7.5787,-4.6011 7.5786,-4.6011 4.048,2.0561 4.048,2.0561 5.0556,3.0153 5.0555,3.0153 6.4445,-3.9355 6.4444,-3.9355 2.1619,-1.1552 2.1618,-1.1551 8.6974,5.2535 8.7858,5.6953 3.3029,-1.8887 3.5681,-2.132 5.3751,-3.2663 5.0932,-3.4321 0.7211,-0.5193 0.7543,0.4916 8.9409,5.2887 8.9906,5.25 -0.2765,11.8832 -0.2766,11.8832 -3,1.6284 -3,1.6283 -5.7156,3.2922 -5.7156,3.2921 -0.2844,10.1882 -0.2844,10.1882 -8.5,5.0722 -8.5,5.0723 -0.5,11.2032 -0.5,11.2033 -2.7091,1.4021 -2.7092,1.4021 -5.5408,3.3141 -5.5409,3.3142 v 9.7183 9.7183 l 4.25,2.8816 4.25,2.8815 4.2106,2.3285 4.2106,2.3285 c 17.6092,-10.7015 0.014,0.052 17.5568,-10.5115 18.6048,10.6304 -0.083,-0.1234 18.522,10.5255 l 0.018,10.581 0.018,10.581 8.4818,4.964 8.4818,4.964 v 11.172 11.172 l -9,5.2827 -9,5.2828 v 10.6255 10.6255 l -8.75,4.9909 -8.75,4.9908 -0.2872,10.4649 -0.2872,10.4649 -5.7128,3.2265 -5.7128,3.2265 -3.6074,2.1386 -3.6074,2.1385 -8.499,-5.115 -8.4989,-5.1151 h -0.9785 -0.9786 l -8.0974,4.9182 -8.0975,4.9181 -8.8176,-5.1936 -8.8177,-5.1936 -0.5,-11.3693 -0.5,-11.3692 -1.5,-0.8 -1.5,-0.8 -7.25,-4.1693 -7.25,-4.1692 v -9.8927 l -0.125,-11.5801 c -16.6946,-9.8756 0.2508,-0.06 -16.7333,-9.9243 -16.9985,8.8394 0.1391,0.039 -17.0037,8.9739 l -0.138,5.0961 v 8.1833 8.1832 l 4.3846,2.8443 4.3846,2.8442 4.6482,2.7452 4.6482,2.7452 -0.2828,11.1447 -0.2828,11.1447 -5.1946,2.655 -5.1946,2.655 -1.8054,1.5766 -1.8054,1.5766 z"
  />
</svg>
