<svg
   version="1.1"
   id="svg1"
   width="2952"
   height="3680"
   viewBox="0 0 2952 3680"
   xmlns="http://www.w3.org/2000/svg"
   xmlns:svg="http://www.w3.org/2000/svg">
   <path
      d="m 2302.3228,1893.8897 -0.8228,-0.1103 -7.478,-4.3823 -7.4779,-4.3824 -0.7001,-0.2574 -0.7001,-0.2573 -0.3219,-11.3287 -0.322,-11.3286 -6,-3.6048 -6,-3.6047 -2.0377,-1.2925 -2.0376,-1.2925 -8.3659,4.9759 -8.3659,4.9759 -0.8444,0.5442 -0.797,-0.5442 -8.2758,-4.9071 -8.2757,-4.9071 -6,3.46 -6,3.4599 -3,1.5076 -3,1.5076 -8.5,-5.0914 -8.5,-5.0914 -1,-1.3122 -1,-1.3123 0.3125,-9.9748 0.3125,-9.9749 8.9375,-5.2911 8.9375,-5.2911 -0.01,-9.6409 -0.01,-9.6408 -7.1869,-4 -7.1868,-4 -1.7505,-0.8778 -1.7505,-0.8779 -7.8938,4.6279 -7.8939,4.6278 -1.2854,0.8868 -1.2855,-0.8868 -7.4121,-4.5 -7.4121,-4.5 -0.6979,-0.4376 -0.7312,0.3656 -9.0823,4.7407 -9.0822,4.7406 -8.9178,-5.5383 -8.9177,-5.5383 -0.5068,-19.8325 0.017,-1.3957 1.4896,-0.7265 6.1022,-3.6715 6.1023,-3.6716 2.7437,-1.4235 2.7438,-1.4234 8.154,4.9042 8.154,4.9042 0.875,0.502 0.808,-0.502 7.9085,-4.7394 7.9085,-4.7394 v -9.7139 -9.7139 l 2.25,-1.6049 2.25,-1.6049 7,-4.219 7,-4.219 v -9.8709 -9.871 l -7.5,-4.7899 -7.5,-4.79 -1.5167,-1.0035 -1.4833,0.9375 -7.8713,4.8254 -7.8713,4.8253 -9.3787,-5.5096 -9.3787,-5.5096 -0.024,-10.5944 -0.024,-10.5943 -8.9762,-5.2934 -8.9761,-5.2933 v -10.3856 -10.3856 l -7.3339,-4.5711 -7.334,-4.571 h -1.1058 -1.1059 l -8.149,4.8986 -8.1491,4.8986 -7.1612,-4.2339 -7.1611,-4.2339 -2.25,-1.4052 -2.25,-1.4053 v -11.1386 -11.1386 l 8.5,-4.7706 8.5,-4.7706 v -10.1109 -10.1108 l -7.9085,-4.7394 -7.9085,-4.7394 h -1.109 -1.1091 l -8.0774,5.0098 -8.0774,5.0097 -8.2939,-5.0097 -8.294,-5.0098 -1.1404,-0.6034 -1.1169,0.6034 -7.8882,4.8924 -7.8881,4.8924 -9.594,-5.6424 -8.6238,-5.7844 0.029,-2.5216 v -9.4056 -9.4057 l 3.75,-2.3308 3.75,-2.3307 5.5048,-3.1149 5.5048,-3.1149 8.7156,5.0455 8.7157,5.0455 8.0295,-4.7075 8.0296,-4.7074 v -9.2138 -9.2138 l -0.022,-1.8333 2.5216,-1.4317 7.454,-4.5586 7.454,-4.5587 1.7198,-1.0708 1.7197,1.0708 8.5762,5.1256 8.5763,5.1256 v 10.6831 10.6831 l 8.5,4.9118 8.5,4.9119 v 10.5698 10.5699 l 8.0585,4.7096 8.0584,4.7096 0.6916,-0.023 0.6915,-0.023 8.3385,-4.8876 8.3385,-4.8875 8.1615,4.9087 8.1615,4.9087 h 0.9267 0.9266 l 8.3114,-4.9845 8.3113,-4.9845 8.762,5.3062 8.762,5.3062 0.2834,10.6313 0.2833,10.6314 8.3555,5.0469 8.3556,5.047 h 0.6577 0.6577 l 7.9534,-4.5875 7.9534,-4.5875 v -10.6625 -10.6625 l 8.666,-5 8.666,-5 0.9062,-0.3585 0.9063,-0.3585 8.4472,5.1619 8.4472,5.1619 8.4773,-5.1205 8.4773,-5.1205 v -9.8678 -9.8677 l 8.9878,-5.3152 8.9878,-5.3151 0.012,-10.1244 0.012,-10.1244 8.5981,-5.1386 8.598,-5.1387 9.3567,5.5834 9.3567,5.5833 8.9959,-5.3203 8.9958,-5.3203 0.2994,-9.8793 0.2994,-9.8794 9.5,-5.7818 9.5,-5.7819 4.5,2.5786 4.5,2.5786 3.7824,2.3656 3.7825,2.3656 -0.2825,11.1948 -0.2824,11.1947 -8.75,5.3663 -8.75,5.3664 v 9.6665 9.6665 l 7.9085,4.7394 7.9085,4.7394 1.3415,-0.073 1.3415,-0.073 7,-4.2154 7,-4.2154 0.5,-10.8802 0.1214,-9.9575 c 1.6548,-1.1718 1.7903,-1.2427 2.3786,-1.623 l 7.75,-4.5149 7.75,-4.5149 0.014,-10.716 0.014,-10.7159 8.1952,-4.5 8.1953,-4.5 1.7091,-0.8664 1.7091,-0.8664 8.5816,5.1835 8.5816,5.1835 v 11.3956 11.3955 l -8.25,4.8689 -8.25,4.8688 v 10.3703 10.3703 l 8.25,4.9203 8.25,4.9203 v 10.3346 10.3345 l 8.9761,5.2933 8.9762,5.2934 0.024,10.5106 0.024,10.5106 7.9085,4.7394 7.9085,4.7394 0.5877,0.4259 0.635,-0.4259 3.7302,-2.3056 3.7301,-2.3057 4.6144,-2.657 4.6145,-2.6571 9.0597,5.3535 9.0597,5.3535 8.136,-4.8908 8.1361,-4.8908 1.5509,-0.8519 1.5509,0.8519 8.3889,5.0671 8.3889,5.0671 v 10.887 10.8869 l -9.4533,5.6413 -9.4533,5.6413 -8.4356,-5.0954 -8.4356,-5.0953 h -0.8611 -0.8611 l -8.2885,4.9851 -8.2886,4.9851 -8.2114,-5.1282 -8.2115,-5.1282 -1.1751,-0.6639 -1.0805,0.6139 -8.2069,4.8113 -8.2068,4.8113 0.3347,10.8566 0.3346,10.8566 h -0.7966 -0.7966 l -7.9534,4.5875 -7.9534,4.5875 v 10.2575 10.2575 l -1.75,1.5138 -1.75,1.5138 -7.25,4.2552 -7.25,4.2551 -0.01,10.1361 -0.01,10.136 -6.7433,3.7406 -6.7433,3.7407 -2.5212,1.6021 -2.5212,1.6022 -8.2112,-5.0928 -8.2113,-5.0928 h -0.9097 -0.9097 l -8.142,4.5787 -8.1419,4.5787 0.2841,10.0943 0.2841,10.0942 7,4.2351 7,4.2351 2.4323,1.6888 -0.1492,11.2454 -0.2831,10.6097 -8.5,5.14 -8.5,5.14 -0.2838,10.68 -0.2672,9.0737 -2.449,1.6643 -7.9958,4.9011 -7.9958,4.901 -3.5042,-2.1128 -3.5042,-2.1128 -5.25,-3.3044 -5.25,-3.3045 v -10.3984 -10.3984 l -9,-5.2827 -9,-5.2828 -0.015,-10.0812 -0.015,-10.0813 v -1.137 l -1.4709,-0.8693 -5.4768,-3.3465 -5.4768,-3.3465 -3.8981,-2.2705 -2.225,1.2768 -6.9616,4.3169 -6.9617,4.3168 -1.4919,0.935 0.023,1.1243 -0.015,8.595 -0.015,8.595 -0.029,0.7688 3.5293,2.2886 7.25,4.2833 7.25,4.2834 v 10.7983 10.7983 l -7.25,4.2256 -7.25,4.2255 -3.501,2.184 v 0.7642 8.6539 8.6538 l -0.075,1.6672 2.5751,1.4777 7,4.1567 8.0412,4.4407 -0.041,2.5261 -0.3222,9.8069 -0.3223,9.807 -8.855,5.25 -8.855,5.25 z m 28.7823,-288.1632 8.9101,-4.9686 8.6715,5.1825 8.6715,5.1825 5.0709,-2.6992 5.0709,-2.6991 3.25,-1.9439 3.25,-1.9438 -0.012,-10.1685 -0.012,-10.1684 -8.6206,-5 -8.6205,-5 0.1771,-10.5 0.1771,-10.5 -7.9528,-4.75 -7.9528,-4.75 -0.8066,-0.435 -0.7732,0.435 -8.2984,4.75 -8.2983,4.75 -0.015,10 -0.015,10 -8.9878,5.3151 -8.9878,5.3152 v 9.8053 9.8054 l 8.5975,4.9771 8.5975,4.9771 z m -256.6707,192.2314 -0.9344,-0.042 -8.725,-5.2079 -8.7249,-5.2079 -0.025,-11.031 -0.025,-11.0311 9.065,-5.3666 9.0649,-5.3666 4.1851,2.3158 4.185,2.3158 5.25,3.3194 5.25,3.3195 v 10.7934 10.7935 l -8.8156,5.2189 -8.8156,5.219 z m -34,-125 -0.9344,-0.042 -8.725,-5.2079 -8.7249,-5.2079 -0.025,-11.031 -0.025,-11.0311 9.065,-5.3666 9.0649,-5.3666 4.1851,2.3158 4.185,2.3158 5.25,3.3194 5.25,3.3195 v 10.7934 10.7935 l -8.8156,5.2189 -8.8156,5.219 z m -105.4462,-63.2422 -1.4882,-0.8205 -4.5,-2.7079 -4.5,-2.708 -3.7376,-2.4916 -3.7376,-2.4917 0.016,-11 0.016,-11 8.643,-4.9167 8.643,-4.9166 1.079,-0.6757 1.079,0.7297 8.5,5.1132 8.5,5.1131 -0.5,11.1967 -0.5,11.1967 -8,4.7857 -8,4.7858 z"
   />
</svg>
