<?xml version="1.0" encoding="UTF-8" standalone="no"?>
<!-- Created with Inkscape (http://www.inkscape.org/) -->

<svg
   version="1.1"
   id="svg1"
   width="419.95053"
   height="304.22409"
   viewBox="0 0 419.95053 304.22409"
   xmlns:xlink="http://www.w3.org/1999/xlink"
   xmlns="http://www.w3.org/2000/svg"
   xmlns:svg="http://www.w3.org/2000/svg">
  <defs
     id="defs1" />
  <g
     id="g1"
     transform="translate(-0.043924,-0.70231956)">
    <path
       d="m 288.23888,303.66513 c -1.79362,-0.65049 -4.85589,-2.4552 -6.80505,-4.01048 -1.94916,-1.55527 -4.50883,-4.81381 -5.68815,-7.24121 L 273.60147,288 145.55073,287.99442 C 60.552411,287.99072 16.24964,287.64159 13.781055,286.95599 11.735635,286.38792 8.6341003,284.72155 6.8887562,283.25294 5.1434121,281.78433 2.8893205,278.76412 1.8796636,276.54137 0.13546687,272.70153 0.043924,267.18916 0.043924,166 0.043924,64.810838 0.13546687,59.298469 1.8796636,55.45863 2.8893205,53.235876 5.1434121,50.215669 6.8887562,48.747059 8.6341003,47.278449 11.735635,45.612075 13.781055,45.044006 15.826475,44.475937 19.1875,44.008644 21.25,44.005577 L 25,44 V 33.69113 c 0,-6.701725 0.437384,-10.885368 1.25,-11.956443 0.6875,-0.906165 4.85,-3.172208 9.25,-5.035651 4.4,-1.863443 11.6,-4.563239 16,-5.999547 4.4,-1.4363072 11.6,-3.5039502 16,-4.5947621 4.4,-1.0908119 12.95,-2.7513715 19,-3.6901325 7.404246,-1.1488954 17.0474,-1.70860599 29.5,-1.71224639 14.50724,-0.004241 21.21533,0.46476239 31.0812,2.17307679 6.91966,1.1981668 16.61269,3.2573846 21.54008,4.5760397 4.92738,1.318655 13.21584,4.0796365 18.4188,6.1355135 5.20296,2.055878 11.03492,3.73796 12.95992,3.73796 1.925,0 7.75696,-1.682082 12.95992,-3.73796 5.20296,-2.055877 13.49142,-4.8168585 18.4188,-6.1355135 4.92739,-1.3186551 14.62042,-3.3778729 21.54008,-4.5760397 9.86587,-1.7083144 16.57396,-2.17731785 31.0812,-2.17307679 12.4526,0.00364 22.09575,0.56335099 29.5,1.71224639 6.05,0.938761 14.6,2.5993206 19,3.6901325 4.4,1.0908119 11.6,3.1584549 16,4.5947621 4.4,1.436308 11.6,4.136104 16,5.999547 4.4,1.863443 8.5625,4.129486 9.25,5.035651 0.81262,1.071075 1.25,5.254718 1.25,11.956443 V 44 l 3.75,0.0056 c 2.0625,0.0031 5.42353,0.47036 7.46895,1.038429 2.04542,0.568069 5.14695,2.234443 6.89229,3.703053 1.74535,1.46861 3.99944,4.488817 5.0091,6.711571 1.70283,3.748777 1.83733,7.717916 1.8577,54.822747 0.0205,47.47461 0.13592,50.81743 1.77196,51.33478 0.9625,0.30437 3.47567,1.2758 5.58481,2.15874 2.10915,0.88294 5.2994,3.31637 7.08944,5.40764 1.79005,2.09127 3.77689,5.54542 4.41519,7.6759 0.63831,2.13048 1.15805,5.17139 1.15498,6.75758 -0.003,1.58619 -0.48722,4.61859 -1.07591,6.73868 -0.58868,2.12008 -2.89602,5.83533 -5.12742,8.25611 -2.58355,2.80282 -5.82477,5.02924 -8.92408,6.13002 L 400,206.46944 l -0.022,33.01528 c -0.0199,29.86752 -0.19699,33.40059 -1.8577,37.05665 -1.00966,2.22275 -3.26375,5.24296 -5.0091,6.71157 -1.74534,1.46861 -4.84687,3.13498 -6.89229,3.70305 -2.20571,0.61259 -16.96665,1.03513 -36.2765,1.03843 L 317.3849,288 l -1.75346,3.9743 c -0.9644,2.18586 -3.52259,5.48861 -5.68487,7.33944 -2.16228,1.85083 -5.67453,3.8874 -7.80501,4.5257 -2.13048,0.63831 -5.39639,1.12632 -7.25758,1.08448 -1.86119,-0.0418 -4.85148,-0.6083 -6.6451,-1.25879 z M 273.79772,269.25 274.09543,263 H 152.18258 C 30.360815,263 30.267749,262.99845 27.634859,260.92742 L 25,258.85484 V 157.42742 56 h -4.5 c -3.166667,0 -5.092593,0.592593 -6.5,2 -1.974843,1.974843 -2,3.333333 -2,108 0,104.73319 0.02395,106.02395 2.003773,108.00377 1.986942,1.98694 3.085153,2.00164 130.749997,1.75 L 273.5,275.5 Z M 386,274 c 1.91919,-1.91919 2,-3.33333 2,-35 v -33 h -6.5 -6.5 v 26.42742 26.42742 l -2.63486,2.07258 C 369.85378,262.90286 368.51801,263 343.86514,263 H 318 v 6.5 6.5 h 33 c 31.66667,0 33.08081,-0.0808 35,-2 z M 185,250.53525 c 0,-0.25561 -4.3875,-1.84369 -9.75,-3.52906 -5.3625,-1.68537 -15.35702,-4.2067 -22.21004,-5.60296 -6.85302,-1.39625 -18.10302,-2.86042 -25,-3.2537 -6.89698,-0.39328 -18.22121,-0.38553 -25.16496,0.0172 -6.943754,0.40275 -18.193754,1.86692 -25.000003,3.2537 C 71.068749,242.80724 61.1125,245.32082 55.75,247.00619 50.3875,248.69156 46,250.27964 46,250.53525 46,250.79086 77.275,251 115.5,251 c 38.225,0 69.5,-0.20914 69.5,-0.46475 z m 89,-6.17318 v -6.63793 l -7.75,0.68314 c -4.2625,0.37572 -13.15,1.77472 -19.75,3.10887 -6.6,1.33415 -16.3875,3.80467 -21.75,5.49004 -5.3625,1.68537 -9.75,3.27345 -9.75,3.52906 C 215,250.79086 228.275,251 244.5,251 H 274 Z m 78.84813,5.61275 c -0.90853,-0.5304 -6.98353,-2.4981 -13.5,-4.37267 -6.51647,-1.87457 -13.98563,-3.72801 -16.59813,-4.11877 L 318,240.77291 V 245.88646 251 l 18.25,-0.0304 c 12.20596,-0.0203 17.70293,-0.34979 16.59813,-0.99477 z M 45.741246,238.15378 c 4.289356,-1.56542 12.289813,-4.0187 17.778792,-5.45172 C 69.009017,231.26903 77.775,229.29897 83,228.32415 c 7.369941,-1.37501 14.656986,-1.76791 32.5,-1.75236 17.53008,0.0153 25.25931,0.4356 32.5,1.76736 5.225,0.96102 14.45,3.06029 20.5,4.66504 6.05,1.60475 13.89783,4.0603 17.43961,5.45677 3.54179,1.39647 6.80429,2.53904 7.25,2.53904 C 193.63533,241 194,232.46806 194,222.04014 v -18.95986 l -3.94374,-1.18157 c -2.16905,-0.64986 -5.55711,-2.51145 -7.52902,-4.13687 -1.97191,-1.62541 -4.43466,-4.6202 -5.47277,-6.65508 -1.03812,-2.03488 -2.19786,-5.3542 -2.5772,-7.37625 -0.37995,-2.0253 -0.1576,-5.89459 0.49509,-8.6153 0.69012,-2.87674 2.57793,-6.56638 4.52141,-8.8369 1.83513,-2.14394 5.06227,-4.62047 7.17142,-5.50341 2.10914,-0.88294 4.62231,-1.85437 5.58481,-2.15874 1.64286,-0.51951 1.75,-4.50257 1.75,-65.059095 V 29.05136 l -2.76255,-1.428571 c -1.51941,-0.785714 -7.30947,-3.01125 -12.86682,-4.945636 -5.55735,-1.934386 -15.2267,-4.653149 -21.48745,-6.041697 -6.26075,-1.388548 -15.75294,-2.999568 -21.09377,-3.580044 C 130.44859,12.474935 121.31836,12 115.5,12 c -5.81836,0 -14.94859,0.474935 -20.289414,1.055412 -5.340822,0.580476 -14.833017,2.191496 -21.093767,3.580044 -6.260749,1.388548 -15.930101,4.107311 -21.487447,6.041697 -5.557347,1.934386 -11.347416,4.159922 -12.86682,4.945636 L 37,29.05136 V 135.02568 C 37,193.31156 37.212044,241 37.471208,241 c 0.259164,0 3.980682,-1.2808 8.270038,-2.84622 z m 168.319144,0.30718 c 3.54178,-1.39647 11.38961,-3.85202 17.43961,-5.45677 6.05,-1.60475 15.05,-3.57684 20,-4.38242 4.95,-0.80558 11.98638,-1.75538 15.6364,-2.11066 l 6.6364,-0.64597 0.46058,-10.18257 c 0.25332,-5.60041 0.19194,-10.46395 -0.1364,-10.80786 -0.32834,-0.34391 -15.78448,-0.92705 -34.34698,-1.29586 L 206,202.90828 v 19.04586 C 206,232.42936 206.36467,241 206.81039,241 c 0.44571,0 3.70821,-1.14257 7.25,-2.53904 z M 363,223 v -18 h -22 -22 v 11.77544 11.77544 l 11.75,2.75032 c 6.4625,1.51267 16.025,4.28097 21.25,6.15177 5.225,1.8708 9.8375,3.43421 10.25,3.47424 C 362.6625,240.96725 363,232.9 363,223 Z M 363,95.02568 V 29.05136 l -2.76255,-1.428571 c -1.51941,-0.785714 -7.30947,-3.01125 -12.86682,-4.945636 -5.55735,-1.934386 -15.2267,-4.653149 -21.48745,-6.041697 -6.26075,-1.388548 -15.75294,-2.999568 -21.09377,-3.580044 C 299.44859,12.474935 290.31836,12 284.5,12 c -5.81836,0 -14.94859,0.474935 -20.28941,1.055412 -5.34083,0.580476 -14.83302,2.191496 -21.09377,3.580044 -6.26075,1.388548 -15.9301,4.107311 -21.48745,6.041697 -5.55735,1.934386 -11.34741,4.159922 -12.86682,4.945636 L 206,29.05136 v 64.338396 64.338394 l 4.63957,0.63593 C 213.19134,158.71383 228.64718,159 244.98589,159 h 29.70676 l 0.65367,-12.157 C 275.70585,140.15665 276,122.45317 276,107.50193 c 0,-20.56237 0.34485,-28.329908 1.4157,-31.888087 0.77864,-2.587211 2.60471,-6.262884 4.05793,-8.168162 1.45323,-1.905279 4.41473,-4.3684 6.5811,-5.473604 2.16638,-1.105203 5.85747,-2.272434 8.20242,-2.593845 2.34495,-0.321411 6.21217,-0.05967 8.59383,0.581642 2.51496,0.677208 6.14784,2.841384 8.66588,5.162429 2.71423,2.501894 4.92073,5.713714 5.9003,8.588589 1.36367,4.002163 1.48079,9.837188 0.9115,45.414428 l -0.65321,40.82225 15.91227,0.30351 c 8.75176,0.16693 18.49978,0.40372 21.66228,0.52621 L 363,161 Z M 388,110.5 c 0,-49.166667 -0.0528,-50.552805 -2,-52.5 -1.40741,-1.407407 -3.33333,-2 -6.5,-2 H 375 v 52.5 52.5 h 6.5 6.5 z"
       id="path1" />
  </g>
</svg>
