<?xml version="1.0" encoding="UTF-8" standalone="no"?>
<!-- Created with Inkscape (http://www.inkscape.org/) -->

<svg
   version="1.1"
   id="svg1"
   width="491.51999"
   height="491.51999"
   viewBox="0 0 491.51999 491.51999"
   xmlns="http://www.w3.org/2000/svg"
   xmlns:svg="http://www.w3.org/2000/svg">
  <defs
     id="defs1" />
  <g
     id="g1">
    <path
       style="fill:#000000"
       d="m 240.47999,490.89768 c -10.07761,-0.88154 -19.84361,-2.64243 -26.85729,-4.84261 -9.83552,-3.08538 -24.18204,-10.45978 -32.1827,-16.54255 -3.432,-2.60929 -40.41022,-39.00905 -82.173814,-80.88835 C 45.395097,334.60384 22.159852,310.66695 19.296874,306.23999 -4.82775,268.93666 -5.0511581,223.29531 18.710951,186.53841 c 4.724942,-7.30887 15.860795,-18.8726 81.938559,-85.0869 66.91187,-67.050117 77.61046,-77.386706 85.59049,-82.694398 36.57578,-24.3273772 82.28937,-24.4166613 119.47791,-0.233355 7.57909,4.9286 18.3914,15.361496 85.1076,82.121053 67.53176,67.57565 77.10533,77.51888 82.2673,85.4438 22.63612,34.75213 23.74701,79.84889 2.82283,114.59295 -2.76961,4.59886 -6.97965,10.72433 -9.35565,13.61216 -2.376,2.88783 -37.584,38.4813 -78.24,79.09659 -80.2687,80.18833 -80.72959,80.59944 -99.36662,88.6343 -14.85566,6.40463 -34.85066,10.06472 -48.47338,8.87307 z m 25.70429,-45.30804 c 11.01605,-3.93996 17.22488,-8.05411 28.25533,-18.72282 10.76625,-10.41316 10.76625,-10.41316 7.88884,-12.83435 -5.82148,-4.89845 -5.68846,-3.65956 -5.68846,-52.97755 0,-28.60321 -0.38046,-46.98271 -1.03931,-50.20767 -1.87896,-9.19715 -7.94732,-20.0201 -15.09326,-26.91893 -10.45335,-10.09186 -20.90127,-14.39486 -34.84432,-14.35073 -21.86438,0.0692 -41.05161,14.91978 -47.80927,37.00352 -1.92683,6.29681 -2.01383,8.5903 -2.01383,53.08768 0,51.02538 0.17148,49.43287 -5.87041,54.51678 -3.05936,2.57428 -3.05936,2.57428 1.64552,7.4265 13.31958,13.73669 26.10861,22.12113 38.5455,25.27027 8.18358,2.07216 28.67117,1.33697 36.02367,-1.2927 z m -140.6543,-133.82965 -0.24998,-42.48 -7.69432,-0.50222 c -10.98013,-0.71669 -16.87207,-4.80824 -20.704413,-14.37778 -1.984599,-4.95563 -1.60039,-14.10203 0.787252,-18.74119 1.232796,-2.3953 25.535631,-27.36081 64.014501,-65.76 46.86382,-46.76677 63.35344,-62.64425 67.45215,-64.94812 10.33534,-5.809471 22.48497,-6.032753 33.38622,-0.61357 6.92524,3.44265 129.40333,125.48042 132.29851,131.82288 4.47808,9.81014 0.95491,23.0934 -7.74739,29.2096 -3.51297,2.46901 -5.23789,2.95783 -11.98796,3.39719 l -7.88456,0.51321 -0.23884,42.72 -0.23884,42.72 33.97376,-34.08 c 21.32551,-21.3922 35.30732,-36.18596 37.55579,-39.73671 1.97012,-3.11119 4.91478,-9.15919 6.54368,-13.44 2.81844,-7.40696 2.96097,-8.45633 2.94773,-21.70329 -0.0126,-12.56962 -0.25808,-14.60309 -2.53083,-20.96152 -5.09086,-14.24262 -4.38691,-13.46275 -85.18447,-94.37166 -76.34798,-76.453176 -76.34798,-76.453176 -84.50798,-80.39509 -10.65788,-5.148589 -18.64789,-7.081324 -29.28,-7.08266 -14.81986,-0.0019 -27.89432,4.349971 -39.51814,13.153615 -3.08102,2.3335 -38.05068,36.781011 -77.71036,76.550025 -78.211485,78.42711 -77.536053,77.66398 -82.458337,93.16435 -5.886242,18.53589 -2.887728,40.58388 7.591404,55.81938 3.389042,4.92729 69.394953,72.60356 70.811593,72.60356 0.4531,0 0.71133,-19.116 0.57383,-42.48 z"
       id="path1" />
  </g>
</svg>
