<?xml version="1.0" encoding="UTF-8" standalone="no"?>
<!-- Created with Inkscape (http://www.inkscape.org/) -->

<svg
   version="1.1"
   id="svg1"
   width="399.91217"
   height="318.47604"
   viewBox="0 0 399.91217 318.47604"
   xmlns="http://www.w3.org/2000/svg"
   xmlns:svg="http://www.w3.org/2000/svg">
  <defs
     id="defs1" />
  <g
     id="g1"
     transform="translate(-0.043924,-0.52396895)">
    <path
       d="M 221.65499,317.17126 C 220.28489,315.65731 220,312.98919 220,301.67126 V 288 L 118.75,287.994 C 52.18727,287.99076 16.225925,287.635 13.781055,286.95599 8.8065796,285.57445 4.1199056,281.47325 1.8796636,276.54137 0.13546687,272.70153 0.043924,267.18916 0.043924,166 0.043924,64.810838 0.13546687,59.298469 1.8796636,55.45863 5.1693016,48.216511 12.268586,44.018934 21.25,44.005577 L 25,44 V 33.69113 c 0,-6.701725 0.437384,-10.885368 1.25,-11.956443 2.366106,-3.118665 24.286714,-11.424562 41.25,-15.6299601 24.099265,-5.97449199 56.20352,-7.2772412 79.5812,-3.2293021 16.0015,2.7707249 28.00733,5.9890596 39.95888,10.7115532 5.20296,2.055878 11.03492,3.73796 12.95992,3.73796 1.925,0 7.75696,-1.682082 12.95992,-3.73796 C 248.8996,-0.61410142 294.00919,-3.4375999 332.5,6.1047269 c 16.96329,4.2053981 38.88389,12.5112951 41.25,15.6299601 0.6875,0.906165 1.25,4.036564 1.25,6.956443 V 34 l 14.76749,-0.148148 0.28408,8.667614 c 0.0784,2.392107 8.4123,-0.490864 8.42435,1.93346 0.02,4.023794 1.48016,19.991858 1.48016,121.547074 0,101.18916 -0.0915,106.70153 -1.83574,110.54137 -1.00966,2.22275 -3.29454,5.26887 -5.07751,6.76914 l -3.24177,2.72777 0.14662,14.60002 c 0.12533,12.48001 -0.10054,14.87313 -1.55552,16.48086 C 386.75243,318.93104 383.69487,319 305,319 c -77.86998,0 -81.76742,-0.0855 -83.34501,-1.82874 z M 378.81037,301.25 378.5,297.5 H 305 231.5 l -0.31037,3.75 -0.31036,3.75 H 305 379.12073 Z m -5.27882,-25.5 c -0.99091,-10.69961 -5.10105,-27.02642 -9.24443,-36.72186 -7.70035,-18.01869 -16.67422,-30.20489 -31.45942,-42.72082 -17.51247,-14.8246 -18.24334,-15.62787 -18.12176,-19.91695 0.11977,-4.2251 -0.77569,-3.25335 15.86794,-17.21989 16.52134,-13.86391 26.56468,-27.2617 33.86099,-45.17048 4.32217,-10.60875 8.21644,-26.096862 9.11456,-36.25 L 374.23498,70 H 305 235.76502 l 0.70845,7.75 c 2.36396,25.86056 13.8897,52.45118 30.2577,69.80649 2.62286,2.78106 10.0103,9.4522 16.41654,14.82474 15.35414,12.87662 15.86727,15.24261 5.25953,24.25117 -22.50027,19.10824 -27.43532,24.33124 -34.97853,37.01942 -8.85088,14.88776 -15.35743,34.73697 -16.94691,51.69915 L 235.76502,283 h 69.21898 69.21898 z m -104.17331,-13.5 c 0.28443,-1.5125 0.80721,-5.37466 1.16173,-8.58258 1.42867,-12.92753 8.19699,-26.38056 17.74608,-35.27299 8.9701,-8.35325 17.49268,-14.70142 18.97129,-14.13106 2.56489,0.98938 17.5526,13.69109 21.65641,18.35326 C 336.71831,231.50581 343,247.88337 343,259.39434 V 265 h -37.07946 -37.07945 z m 25.38221,-105.5 C 282.9435,143.84229 281.81962,141.08947 286.45455,136.45455 288.85722,134.05187 289.24916,134 305,134 c 15.75084,0 16.14278,0.0519 18.54545,2.45455 2.67532,2.67531 3.08831,5.46607 1.31132,8.86119 C 322.69093,149.45383 306.80669,166 305,166 c -1.0013,0 -5.57122,-4.12024 -10.25955,-9.25 z M 225,274.13957 c 0,-1.02323 0.28617,-3.94823 0.63592,-6.5 L 226.27185,263 H 128.27078 C 30.63994,263 30.259764,262.992 27.634859,260.92742 L 25,258.85484 V 157.42742 56 h -4.5 c -3.166667,0 -5.092593,0.592593 -6.5,2 -1.974843,1.974843 -2,3.333333 -2,108 0,104.66667 0.02516,106.02516 2,108 1.974482,1.97448 3.333333,2 106.5,2 101.2201,0 104.5,-0.0584 104.5,-1.86043 z m 162.39301,-1.72136 c 1.0233,-2.66668 0.70492,-203.918464 -0.32094,-202.86821 -0.51037,0.5225 -1.62672,6.35 -2.48079,12.95 -1.6244,12.552883 -4.30549,24.09568 -7.62604,32.83209 -1.8678,4.91421 -1.96426,7.93093 -1.96474,61.45003 -4.2e-4,47.86031 0.22479,56.82132 1.50511,59.88555 2.27188,5.43738 6.21636,20.85532 7.56825,29.58233 1.17684,7.59704 2.10732,9.3262 3.31915,6.16821 z M 185,250.53525 c 0,-0.97696 -20.04436,-6.70428 -31.96004,-9.13202 -23.35249,-4.75791 -51.7609,-4.7514 -75.164963,0.0172 C 66.027135,243.83447 46,249.56132 46,250.53525 46,250.79086 77.275,251 115.5,251 c 38.225,0 69.5,-0.20914 69.5,-0.46475 z m 44.52392,-1.61061 c 0.36228,-1.14145 0.38234,-2.35172 0.0446,-2.68948 C 228.94403,245.61069 215,249.74793 215,250.55767 c 0,0.24328 3.11968,0.44233 6.93261,0.44233 6.13827,0 7.00809,-0.2378 7.59131,-2.07536 z M 45.741246,238.15378 C 55.352867,234.64597 70.416941,230.67176 83,228.32415 c 13.381566,-2.49659 51.39238,-2.48782 65,0.015 12.42763,2.28578 29.86288,6.93728 37.93961,10.12181 3.54179,1.39647 6.80429,2.53904 7.25,2.53904 C 193.63533,241 194,193.31156 194,135.02568 V 29.05136 l -2.76255,-1.428571 c -5.52363,-2.856379 -23.23832,-8.521969 -34.35427,-10.987333 -27.92493,-6.193365 -54.84143,-6.193365 -82.766361,0 C 63.000869,19.10082 45.28618,24.76641 39.762552,27.622789 L 37,29.05136 V 135.02568 C 37,193.31156 37.212044,241 37.471208,241 c 0.259164,0 3.980682,-1.2808 8.270038,-2.84622 z m 169.708414,-0.12086 c 4.42769,-1.6319 10.65005,-3.69238 13.82747,-4.57885 5.70073,-1.59044 5.82281,-1.70245 9.22999,-8.46821 8.09635,-16.07719 17.48726,-28.17493 30.85909,-39.75386 l 9.95524,-8.62045 -4.41072,-3.55399 C 245.89374,149.67679 229.62927,119.51769 224.99547,80.5 c -0.88696,-7.468403 -0.10924,-11.872669 -3.09154,-11.788955 -2.6804,0.07524 -1.92028,-3.251267 -1.90419,-15.634253 C 219.99991,52.946714 220,52.815635 220,52.683551 220,41.415029 219.98712,33.8733 219.98712,33.8733 L 293.0567,34 H 363 v -2.47432 c 0,-3.000374 -1.87061,-4.059418 -15.62937,-8.848527 C 313.7584,10.977505 277.97715,8.903916 243.11682,16.635456 232.00087,19.10082 214.28618,24.76641 208.76255,27.622789 L 206,29.05136 V 135.02568 C 206,193.31156 206.31485,241 206.69966,241 c 0.38482,0 4.32232,-1.33519 8.75,-2.96708 z M 363,176.93449 v -33.06551 l -5.86086,7.37527 c -5.09871,6.41619 -13.67864,14.80069 -23.50286,22.96754 l -2.86372,2.3806 7.36372,6.37484 c 4.05005,3.50616 8.93872,7.95944 10.86372,9.89617 4.56274,4.59056 13,15.14625 13,16.26406 0,0.4799 0.225,0.87254 0.5,0.87254 0.275,0 0.5,-14.87948 0.5,-33.06551 z M 379,52.5 V 49 h -74 -74 v 3.5 3.5 h 74 74 z"
       id="path1" />
  </g>
</svg>
