<?xml version="1.0" encoding="UTF-8" standalone="no"?>
<!-- Created with Inkscape (http://www.inkscape.org/) -->

<svg
   version="1.1"
   id="svg1"
   width="360"
   height="280.23462"
   viewBox="0 0 360 280.23462"
   xmlns="http://www.w3.org/2000/svg"
   xmlns:svg="http://www.w3.org/2000/svg">
  <defs
     id="defs1" />
  <g
     id="g1"
     transform="translate(-0.5,-0.5)">
    <path
       style="fill:#000000"
       d="M 25.286039,279.55575 C 15.086392,276.35237 7.7047791,269.86075 3.101113,260.04563 L 0.5,254.5 v -114 -114 L 3.1351653,20.879989 C 6.8419279,12.974585 12.130488,7.5533839 19.836585,3.7596846 L 26.457945,0.5 H 180.5 334.54205 l 6.62136,3.2596846 c 7.7061,3.7936993 12.99466,9.2149004 16.70142,17.1203044 L 360.5,26.5 v 114.02103 114.02102 l -3.25968,6.62136 c -3.7937,7.7061 -9.21491,12.99466 -17.12031,16.70142 L 334.5,280.5 182,280.68961 C 57.865245,280.84396 28.716196,280.63306 25.286039,279.55575 Z M 329.42857,249.42857 C 330.83763,248.01952 331,236.76407 331,140.5 331,44.235931 330.83763,32.980483 329.42857,31.571429 328.01422,30.157076 313.12771,30 180.5,30 47.872294,30 32.985781,30.157076 31.571429,31.571429 30.162374,32.980483 30,44.235931 30,140.5 30,236.76407 30.162374,248.01952 31.571429,249.42857 32.985781,250.84292 47.872294,251 180.5,251 c 132.62771,0 147.51422,-0.15708 148.92857,-1.57143 z M 95.414891,221.80688 c 0.912508,-5.70652 5.196569,-13.27315 9.277129,-16.38554 l 3.36944,-2.57 4.28499,2.07433 c 4.34573,2.10373 8.26838,2.55185 12.47564,1.42519 1.42674,-0.38206 11.92321,-12.0405 27.22277,-30.23634 L 176.94555,146.5 l -7.09319,-0.29624 -7.09319,-0.29624 0.64691,-4.04553 c 0.3558,-2.22503 1.53725,-5.79074 2.62545,-7.92379 l 2.32606,-3.71473 -5.10255,-2.22905 C 160.64213,126.85297 138.475,117.02277 114,106.13749 76.589114,89.498966 69.975552,86.257107 69.221333,84.571659 68.6988,83.403957 70.66222,80.818976 72.917542,82.143095 c 0,0 1.509155,-2.424903 4.646653,-6.893095 6.475895,-9.222487 6.072852,-8.939605 8.922561,-6.262442 C 87.86904,70.286147 89,71.640756 89,71.997802 c 0,0.357046 -3.15,2.801473 -7,5.432062 -3.85,2.630588 -7.507182,5.477617 -7.507182,5.477617 0.56194,0.294559 82.217952,37.104029 94.199402,41.964169 3.00599,1.21934 2.7765,2.11947 5.29726,-0.36213 1.75127,-1.72406 2.12917,-1.63049 6.27889,0.37835 5.53247,2.67823 9.93947,2.67402 15.49378,-0.0148 l 4.3936,-2.12691 4.04522,3.87691 c 4.30712,4.12789 7.21548,9.56446 8.31589,15.54478 0.58258,3.1661 0.40184,3.71332 -1.32117,4 -2.93401,0.48818 53.38192,33.30197 57.30431,33.3897 1.65,0.0369 4.67305,0.82655 6.71788,1.75476 4.96917,2.25566 9.24404,2.12655 14.54427,-0.43924 l 4.3936,-2.12691 4.04522,3.87691 c 4.32595,4.14594 7.21558,9.56598 8.3313,15.6269 l 0.69031,3.75 H 282.11129 C 260.12955,202 257,201.80741 257,200.45469 c 0,-1.19338 -0.74016,-1.41584 -3.25,-0.9768 -8.44246,1.47681 -108.3554,17.5208 -109.11354,17.52141 -0.47495,3.9e-4 -0.55988,2.0257 -0.18873,4.5007 l 0.67482,4.5 H 119.93346 94.744384 Z M 201.52838,202.94457 c 30.78439,-4.98049 56.24469,-9.36799 56.57844,-9.75 1.34286,-1.53706 5.22036,-9.19552 4.82103,-9.52203 -0.23532,-0.1924 -14.76637,-8.74744 -32.29123,-19.01118 L 198.77324,146 191.13662,146.0455 183.5,146.091 160,174.11089 c -12.925,15.41095 -23.93906,28.65178 -24.47568,29.42407 -1.26809,1.82501 4.96813,8.46507 7.95023,8.46507 1.14522,0 27.26945,-4.07494 58.05383,-9.05543 z m -87.4573,-0.69612 c -9.84576,-5.02048 -10.46947,-17.7682 -1.1732,-23.97852 6.73013,-4.49601 15.64011,-1.74497 19.43857,6.00183 3.35773,6.84796 0.11226,15.38933 -6.97223,18.34942 -4.3759,1.82837 -7.15649,1.73659 -11.29314,-0.37273 z m 162,-24 C 270.91463,175.61911 268.5,171.71273 268.5,166 c 0,-5.799 2.11508,-9.62366 7.98359,-12.66149 1.22865,-0.63601 3.40747,-1.12375 4.69532,-1.21573 l 2.21358,-27.32763 C 284.56687,110.29691 286.42627,97.375 286.67797,96 c 0.41999,-2.29427 -0.0211,-2.63903 -5.36016,-4.189468 -7.6005,-2.207153 -13.36526,-7.216697 -17.24947,-14.989678 C 261.44319,71.567455 261,69.571182 261,63 c 0,-6.575074 0.44267,-8.56641 3.07552,-13.835208 C 269.30452,38.700627 278.42849,33 289.94759,33 301.7298,33 310.60981,38.529195 315.93166,49.179146 318.55681,54.432545 319,56.428818 319,63 c 0,6.571182 -0.44319,8.567455 -3.06834,13.820854 -1.68759,3.377164 -4.89006,7.699615 -7.11659,9.605446 C 304.89544,89.781353 297.5544,93 293.82186,93 c -1.00202,0 -1.84579,0.3375 -1.87505,0.75 -0.0293,0.4125 -1.2425,13.70322 -3.301,29.46123 l -3.81114,29.17468 c 1.30879,0.23479 4.28778,1.73859 4.28778,1.73859 9.91766,5.52164 8.45921,20.22756 -1.75823,24.49668 -4.3759,1.82837 -7.15649,1.73659 -11.29314,-0.37273 z m 22.19894,-91.14987 c 10.01391,-4.292463 16.02155,-13.389522 16.04898,-24.302133 0.0209,-8.314115 -5.08638,-18.179513 -11.42985,-22.078321 -8.01399,-4.925536 -19.18861,-4.705535 -26.90768,0.529748 -2.00878,1.362407 -4.70217,4.909078 -6.81771,8.977611 -4.54643,8.743531 -4.80103,15.907774 -0.85214,23.979 3.15635,6.451349 5.91224,9.208267 12.36534,12.36994 5.8748,2.878336 11.69635,3.051779 17.59306,0.524155 z M 286.2,86.8 c -1.38502,-1.385017 -1.55005,-4.699578 -0.32982,-6.624183 0.50491,-0.796372 2.19283,-1.194966 4.23468,-1 2.8835,0.275329 3.4437,0.747717 3.7174,3.134655 0.17724,1.545759 -0.21536,3.458259 -0.87245,4.25 -1.45228,1.749892 -5.10966,1.87968 -6.74981,0.239528 z m -0.1255,-13.210233 c -2.08944,-2.517624 0.47512,-7.94802 6.48888,-13.740043 C 296.54434,56.015545 298,53.881171 298,51.87821 c 0,-7.676702 -11.03921,-9.145009 -15.5,-2.06163 -1.7644,2.801719 -2.47121,3.146836 -6,2.92963 -3.60949,-0.222173 -3.97286,-0.487791 -3.72201,-2.720703 0.3122,-2.779047 4.4255,-7.526281 8.25657,-9.529053 7.15592,-3.740914 16.21063,-3.076205 21.89795,3.06154 5.44959,5.881179 5.7374,12.299841 -2.84281,20.582326 -2.78406,2.68746 -5.51159,5.800289 -5.94741,7.442569 -0.61015,2.299214 -1.41366,2.980882 -3.79338,3.218176 -1.79234,0.178724 -3.52931,-0.313505 -4.27441,-1.211298 z M 182.07108,122.24845 c -9.84576,-5.02048 -10.46947,-17.7682 -1.1732,-23.978517 6.73013,-4.496014 15.64011,-1.744976 19.43857,6.001827 3.35773,6.84796 0.11226,15.38933 -6.97223,18.34942 -4.3759,1.82837 -7.15649,1.73659 -11.29314,-0.37273 z M 88.060713,67.560886 C 78.351416,57.823966 76.842832,55.894302 77.922708,54.593131 c 0.945825,-1.139649 2.384039,-1.375761 5.651831,-0.92786 3.900883,0.534676 4.877239,0.22854 8.873395,-2.782245 3.626241,-2.732083 4.496174,-3.987786 4.521145,-6.526037 0.05618,-5.710178 2.540421,-4.903415 11.212251,3.641198 6.89408,6.792945 7.90076,8.197979 6.81284,9.508836 -0.70209,0.845973 -2.02411,1.300862 -2.93781,1.010865 -2.10517,-0.668154 -4.04266,0.877635 -7.85952,6.270563 -2.58385,3.650761 -2.90343,4.747825 -2.14918,7.377728 C 102.90383,75.151488 101.86247,79 100.1985,79 99.796384,79 94.334378,73.852398 88.060713,67.560886 Z"
       id="path1" />
  </g>
</svg>
