<?xml version="1.0" encoding="UTF-8" standalone="no"?>
<!-- Created with Inkscape (http://www.inkscape.org/) -->

<svg
   version="1.1"
   id="svg1"
   width="530"
   height="358"
   viewBox="0 0 530 358"
   xmlns="http://www.w3.org/2000/svg"
   xmlns:svg="http://www.w3.org/2000/svg">
  <defs
     id="defs1" />
  <g
     id="g1">
    <path
       d="m 141.65519,356.54135 c -4.95158,-1.76548 -8.4529,-5.03139 -10.76515,-10.04135 -1.64713,-3.56885 -1.84848,-6.8833 -1.86808,-30.75 L 129,289 73.25,288.99442 C 37.98593,288.9909 16.133434,288.60931 13.781055,287.95599 8.8065796,286.57445 4.1199056,282.47325 1.8796636,277.54137 0.13546687,273.70153 0.043924,268.18916 0.043924,167 0.043924,65.810838 0.13546687,60.298469 1.8796636,56.45863 5.1693016,49.216511 12.268586,45.018934 21.25,45.005577 L 25,45 V 34.69113 c 0,-6.701725 0.437384,-10.885368 1.25,-11.956443 2.366106,-3.118665 24.286714,-11.424562 41.25,-15.6299601 24.099265,-5.974492 56.20352,-7.27724119 79.5812,-3.2293021 16.0015,2.7707249 28.00733,5.9890596 39.95888,10.7115532 5.20296,2.055878 11.03492,3.73796 12.95992,3.73796 1.925,0 7.75696,-1.682082 12.95992,-3.73796 C 248.8996,0.38589858 294.00919,-2.4375999 332.5,7.1047269 349.46329,11.310125 371.38389,19.616022 373.75,22.734687 374.56262,23.805762 375,27.989405 375,34.69113 V 45 l 3.75,0.0056 c 12.56282,0.01866 21.17283,8.33063 21.22928,20.4944 l 0.0232,5 15.24875,0.10427 c 21.90701,0.149799 41.53148,3.332407 62.24876,10.095219 11.54121,3.767438 23.80111,9.125473 25.25,11.035198 0.81262,1.071075 1.25,5.254718 1.25,11.956443 L 504,114 l 3.75,0.006 c 8.98141,0.0134 16.0807,4.21093 19.37034,11.45305 1.74419,3.83984 1.83574,9.35221 1.83574,110.54137 0,101.18916 -0.0916,106.70153 -1.83574,110.54137 -2.24025,4.93188 -6.92692,9.03308 -11.90139,10.41462 -2.49819,0.69382 -63.78953,1.02028 -186.71895,0.99454 -152.39614,-0.0319 -183.64298,-0.26757 -186.84481,-1.40918 z M 515,344 c 1.97484,-1.97484 2,-3.33333 2,-108 0,-104.66667 -0.0252,-106.02516 -2,-108 -1.40741,-1.40741 -3.33333,-2 -6.5,-2 H 504 v 101.42742 101.42742 l -2.63486,2.07258 L 498.73028,333 H 329 159.26972 L 156.63486,330.92742 154,328.85484 V 227.42742 126 h -4.5 c -3.16667,0 -5.09259,0.59259 -6.5,2 -1.97484,1.97484 -2,3.33333 -2,108 0,104.66667 0.0252,106.02516 2,108 1.98551,1.98551 3.33333,2 186,2 182.66667,0 184.01449,-0.0145 186,-2 z M 314,320.53525 c 0,-0.97696 -20.04436,-6.70428 -31.96004,-9.13202 -23.35249,-4.75791 -51.7609,-4.7514 -75.16496,0.0172 -11.84787,2.41402 -31.875,8.14087 -31.875,9.1148 0,0.25561 31.275,0.46475 69.5,0.46475 38.225,0 69.5,-0.20914 69.5,-0.46475 z m 169,0 c 0,-0.97696 -20.04436,-6.70428 -31.96004,-9.13202 -23.35249,-4.75791 -51.7609,-4.7514 -75.16496,0.0172 -11.84787,2.41402 -31.875,8.14087 -31.875,9.1148 0,0.25561 31.275,0.46475 69.5,0.46475 38.225,0 69.5,-0.20914 69.5,-0.46475 z M 174.74125,308.15378 c 9.61162,-3.50781 24.67569,-7.48202 37.25875,-9.82963 13.38157,-2.49659 51.39238,-2.48782 65,0.015 12.42763,2.28578 29.86288,6.93728 37.93961,10.12181 3.54179,1.39647 6.80429,2.53904 7.25,2.53904 C 322.63533,311 323,263.31156 323,205.02568 V 99.05136 l -2.76255,-1.428571 c -5.52363,-2.856379 -23.23832,-8.521969 -34.35427,-10.987333 -27.92493,-6.193365 -54.84143,-6.193365 -82.76636,0 -11.11595,2.465364 -28.83064,8.130954 -34.35427,10.987333 L 166,99.05136 V 205.02568 C 166,263.31156 166.21204,311 166.47121,311 c 0.25916,0 3.98068,-1.2808 8.27004,-2.84622 z m 168.31914,0.30718 c 8.07673,-3.18453 25.51198,-7.83603 37.93961,-10.12181 13.60762,-2.50282 51.61843,-2.51159 65,-0.015 12.58306,2.34761 27.64713,6.32182 37.25875,9.82963 C 487.54811,309.7192 491.26963,311 491.52879,311 491.78796,311 492,263.31156 492,205.02568 V 99.05136 l -2.76255,-1.428571 c -5.52363,-2.856379 -23.23832,-8.521969 -34.35427,-10.987333 -27.92493,-6.193365 -54.84143,-6.193365 -82.76636,0 -11.11595,2.465364 -28.83064,8.130954 -34.35427,10.987333 L 335,99.05136 V 205.02568 C 335,263.31156 335.36467,311 335.81039,311 c 0.44571,0 3.70821,-1.14257 7.25,-2.53904 z M 129,270.5 V 264 H 79.634859 c -48.427189,0 -49.415205,-0.0394 -52,-2.07258 L 25,259.85484 V 158.42742 57 h -4.5 c -3.166667,0 -5.092593,0.592593 -6.5,2 -1.974843,1.974843 -2,3.333333 -2,108 0,104.66667 0.02516,106.02516 2,108 1.952802,1.9528 3.333333,2 58.5,2 H 129 Z m 0,-24.91467 v -6.41468 l -6.75,-0.34007 C 110.33983,238.23054 90.602009,239.8273 77.874997,242.42045 66.027135,244.83447 46,250.56132 46,251.53525 46,251.79086 64.675,252 87.5,252 H 129 Z M 45.190403,239.34964 C 66.948032,231.46061 85.779399,227.96412 110.25,227.26976 l 18.75,-0.53203 0.022,-48.61886 c 0.0203,-45.00673 0.15835,-48.91912 1.8577,-52.66024 3.28964,-7.24212 10.38893,-11.4397 19.37034,-11.45305 L 154,114 v -10.30887 c 0,-6.676738 0.44041,-10.905868 1.25,-12.003293 1.49832,-2.031029 19.51357,-9.502397 30.72163,-12.741017 L 194,76.626984 V 53.339172 30.05136 l -2.76255,-1.428571 c -5.52363,-2.856379 -23.23832,-8.521969 -34.35427,-10.987333 -27.92493,-6.193365 -54.84143,-6.193365 -82.766361,0 C 63.000869,20.10082 45.28618,25.76641 39.762552,28.622789 L 37,30.05136 V 136.02568 C 37,194.31156 37.198181,242 37.440403,242 c 0.242221,0 3.729721,-1.19266 7.75,-2.65036 z M 339.05504,84.531906 c 4.82363,-1.907451 12.18454,-4.472601 16.35759,-5.700333 L 363,76.599332 V 53.325346 30.05136 l -2.76255,-1.428571 c -5.52363,-2.856379 -23.23832,-8.521969 -34.35427,-10.987333 -27.92493,-6.193365 -54.84143,-6.193365 -82.76636,0 -11.11595,2.465364 -28.83064,8.130954 -34.35427,10.987333 L 206,30.05136 v 22.053775 22.053776 l 2.75,-0.575422 c 21.67606,-4.535594 50.62971,-4.172717 76.11039,0.953893 11.99312,2.412967 33.73822,9.094181 39.13961,12.025706 3.70256,2.009509 5.4242,1.777232 15.05504,-2.031182 z M 384.25,72.422908 388,71.777418 V 66.388709 C 388,59.373092 385.85154,57 379.5,57 H 375 v 8.579455 8.579456 l 2.75,-0.545257 c 1.5125,-0.29989 4.4375,-0.835726 6.5,-1.190746 z"
       id="path1" />
  </g>
</svg>
